<svg xmlns="http://www.w3.org/2000/svg" width="1.5cm" height="1.5cm" viewBox="0 0 42.51968 42.519681"><path d="M40.916 34.833c0 3.273-2.675 5.926-5.974 5.926H7.577c-3.3 0-5.973-2.66-5.973-5.93V7.685c0-3.273 2.674-5.926 5.973-5.926h27.365c3.3 0 5.974 2.657 5.974 5.93v27.146z"/><path d="M21.55 17.283c-2.534 0-4.59 1.975-4.59 4.415 0 2.436 2.056 4.413 4.59 4.413 2.537 0 4.594-1.97 4.594-4.41 0-2.44-2.057-4.412-4.593-4.412M30.38 20h-2.013a6.6 6.6 0 0 1 .295 1.946c0 3.772-3.183 6.83-7.11 6.83-3.922 0-7.106-3.058-7.106-6.83 0-.678.105-1.33.295-1.947h-2.1v9.58c0 .493.41.9.91.9h15.92c.5 0 .91-.407.91-.9V20zm-3.624-7.074a1.03 1.03 0 0 0-1.03 1.023v2.44a1.03 1.03 0 0 0 1.03 1.022h2.584c.565 0 1.03-.46 1.03-1.022v-2.44a1.03 1.03 0 0 0-1.03-1.023h-2.585zm-13.72-2.518H30.03c1.613 0 2.933 1.31 2.933 2.91v16.86c0 1.6-1.32 2.91-2.934 2.91h-17c-1.617 0-2.938-1.31-2.938-2.91v-16.86c0-1.6 1.32-2.91 2.936-2.91" fill="#fff"/></svg>