<svg width="806" height="342" viewBox="0 0 806 342" xmlns="http://www.w3.org/2000/svg"><title>#050505ff</title><g fill="none" fill-rule="evenodd"><path d="M109.357 331.015V222.328m20.006 107.962v-48.97m21.38 48.13V222.328m21.347 101.915V281.32m21.348 37.602v-96.594m20.007 92.42V281.32m21.38 31.796v-90.788m21.347 86.775V281.32m21.123 25.078v-84.07m20.007 82.59V281.32m21.378 23.62v-82.61m21.35 84.8v-25.81m21.347 24.863v-83.855m20.006 87.13V281.32m21.38 29.53v-88.522m21.347 89.53V281.32m21.348 34.958v-93.95m20.007 95.492v-36.5m21.38 38.035v-97.027m21.347 95.005V281.32m21.348 34.472v-93.464m20.006 88.155V281.32m21.38 25.534v-84.526m21.348 79.972v-20.98m21.346 15.902v-74.894m20.008 67.852v-8.86m21.38.085v-59.077m42.695 37.7v-37.7m41.387 10.515v-10.515M66.808 325.788V222.223m21.3 108.66V281.32m-62.79 11.012v-70.68m19.698 91.718v-32.62" stroke="#000" stroke-width="7.891"/><path d="M799.575 80.2c2.75 10.93 5.26 21.864 6.193 32.796.115 15.797-2.328 55.377-22.878 80.947-36.545 48.933-92.484 77.887-147.783 100.518-30.832 12.527-77.9 22.66-95.232 25.11-61.798 12.78-124.64 1.06-186.385-5.64-67.193-7.764-134.033 7.42-199.673 19.768-29.238 8.69-62.086 11.712-90.267-2.05-25.288-9.874-41.74-33.658-53.177-57.282-4.737-10.7-6.234-15.945-8.356-24.804-10.35-59.026 21.91-126.9 89.673-135.26 0 0-23.56 9.47-34.247 16.206-6.794 4.28-15.878 11.542-23.022 19.07-8.33 8.782-14.91 20.018-14.91 20.018-9.442 20.7-14.96 44.474-11.99 67.236 3.77 28.944 19.556 56.47 39.807 76.275C56.63 320.89 63.27 323.43 63.27 323.43s5.79 2.647 9.556 3.994c17.988 4.734 37.043 6.368 55.348 2.977 54.825-11.543 109.92-23.03 165.855-27.01 37.053-1.76 74.11 2.6 110.693 8.16 64.597 9.05 126.634 8.48 188.49-13.54 59.172-16.296 121.888-45.65 165.792-89.414 8.797-9.066 18.134-18.96 24.014-30.94 12.992-26.47 19.487-57.764 10.83-86.36C772.55 15.66 736.82 3 684.07 2.396c63.76-9.56 90.178 17.015 108.947 61.062 2.252 5.317 4.61 10.205 6.558 16.74z" fill="#000"/><g fill="#000"><path d="M88.163 112.41c0-.046.225-.406.675-1.08.405-.72.945-1.486 1.62-2.296.675-.855 1.44-1.62 2.295-2.295.855-.72 1.71-1.08 2.565-1.08.765 0 1.462.242 2.092.74a7.08 7.08 0 0 1 1.755 1.89c.495.762.9 1.62 1.215 2.562.36.9.585 1.8.675 2.7 0 1.305-.112 2.34-.337 3.105a13.37 13.37 0 0 1-.675 2.025 80.54 80.54 0 0 0-.675 1.822c-.18.63-.27 1.507-.27 2.632 0 .81.045 1.664.135 2.564.09.9.292 1.733.607 2.498a5.15 5.15 0 0 0 1.485 1.89c.675.496 1.553.744 2.633.744 1.575 0 2.812-.405 3.712-1.215a8.27 8.27 0 0 0 2.093-2.97 17.09 17.09 0 0 0 1.215-3.714 62.58 62.58 0 0 1 .945-3.51c-1.215-.946-2.115-2.183-2.7-3.713a15.087 15.087 0 0 1-.81-4.928c0-.81.045-1.643.135-2.498.09-.9.225-1.71.405-2.43.225-.765.472-1.395.742-1.89.315-.495.675-.743 1.08-.743.135 0 .27.024.405.07l.54.135c2.115.9 3.533 2.182 4.253 3.847.765 1.665 1.147 3.533 1.147 5.603 0 .585-.022 1.035-.067 1.35v1.22c.18 0 .832-.09 1.957-.27a123.29 123.29 0 0 0 3.848-.81c1.44-.36 2.79-.72 4.05-1.08 1.305-.36 2.182-.72 2.632-1.08.225-.09.495-.157.81-.202.36-.044.743-.066 1.148-.066.63 0 1.215.09 1.755.27.54.135.81.427.81.877 0 .36-.27.834-.81 1.42-.495.54-1.395 1.237-2.7 2.092l-1.013.338c-1.17.36-2.295.698-3.375 1.013l-3.105.81c-1.035.27-2.092.495-3.172.675-1.08.18-2.25.312-3.51.402l-.743 3.443c-.405 1.35-.72 2.407-.945 3.172-.225.81-.472 1.506-.742 2.09a7.246 7.246 0 0 1-1.148 1.82c-.45.63-1.125 1.44-2.025 2.43a6.69 6.69 0 0 1-2.7 1.757c-.99.36-2.092.54-3.307.54-3.195 0-5.693-.968-7.493-2.903-1.755-1.935-2.632-4.523-2.632-7.763 0-1.17.112-2.113.337-2.833.225-.72.473-1.418.743-2.093s.517-1.44.742-2.295c.225-.9.338-2.116.338-3.646l-.203-2.903c0-.36-.022-.674-.067-.944-.045-.27-.203-.406-.473-.406-.045 0-.112.043-.202.133-.09.042-.315.27-.675.672-.315.405-.81 1.035-1.485 1.89-.63.855-1.553 2.093-2.768 3.713-.585.316-1.125.473-1.62.473-.585 0-1.035-.16-1.35-.473-.36-.36-.54-.81-.54-1.35 0-.585.248-1.238.743-1.958zm24.232-4.996c0 .405-.09.9-.27 1.485-.18.54-.225 1.232-.135 2.09l.068.874c.045.54.157 1.034.337 1.484.225.45.45.855.675 1.215.135-.406.27-.923.405-1.553.18-.63.27-1.305.27-2.025 0-.63-.09-1.24-.27-1.824-.18-.63-.54-1.215-1.08-1.755z"/><path d="M137.254 95.94c-1.035 0-1.912.45-2.632 1.35-.675.854-1.238 1.867-1.688 3.037a18.653 18.653 0 0 0-.877 3.375c-.18 1.08-.27 1.845-.27 2.295 0 1.575.157 2.857.472 3.847a12.09 12.09 0 0 0 1.35 2.768c.76-.72 1.46-1.62 2.09-2.7a24.01 24.01 0 0 0 1.752-3.375c.495-1.17.877-2.318 1.147-3.443.315-1.17.473-2.205.473-3.105v-1.15c-.72-1.94-1.328-2.907-1.823-2.907zm17.01 19.372c-1.08 1.35-2.542 2.61-4.387 3.78a19.034 19.034 0 0 1-6.075 2.497h-2.363c-.81 0-1.69-.07-2.638-.208a14.99 14.99 0 0 1-2.768-.81c-1.44-.99-2.453-1.688-3.038-2.093-.586-.45-.99-.74-1.216-.877a3.272 3.272 0 0 1-.404-.473c-.046-.133-.294-.425-.744-.875-1.17-1.17-1.958-2.52-2.363-4.05-.45-1.53-.677-3.173-.677-4.928 0-1.666.224-3.398.674-5.198.45-1.848 1.1-3.536 1.956-5.066.81-1.53 1.8-2.79 2.97-3.78 1.215-1.036 2.565-1.553 4.05-1.553.45 0 1.035.204 1.755.61.764.36 1.484.923 2.16 1.69.72.72 1.327 1.64 1.822 2.765.54 1.124.81 2.43.81 3.914-.27 2.43-1.013 4.95-2.228 7.56-1.216 2.61-2.858 5.287-4.928 8.032.585.27 1.305.54 2.16.81a10.3 10.3 0 0 0 2.632.338h2.36c1.35-.404 2.34-.74 2.97-1.01.676-.316 1.216-.654 1.62-1.014.45-.36.856-.788 1.216-1.283.406-.495 1.013-1.17 1.823-2.025.403-.54.943-.81 1.62-.81.54 0 1.033.18 1.483.54.45.315.675.787.675 1.417s-.316 1.327-.946 2.092z"/><path d="M154.954 89.46c-.315 0-.63-.023-.945-.068a2.03 2.03 0 0 1-.88-.54c-.27-.315-.47-.765-.61-1.35-.18-.585-.27-1.418-.27-2.498.314-1.44.99-2.587 2.024-3.442s2.18-1.283 3.44-1.283c.496.04.88.22 1.15.54.314.27.56.63.74 1.08.18.45.294.92.34 1.412.044.45.066.855.066 1.215 0 .63-.09 1.237-.27 1.822a3.443 3.443 0 0 1-.81 1.552c-.36.45-.876.832-1.55 1.147-.63.27-1.44.404-2.43.404zm-3.848 17.55c-.18-.81-.315-1.53-.405-2.16a8.15 8.15 0 0 1-.2-1.688c0-.855.25-1.463.74-1.823.5-.41 1.44-.61 2.84-.61.72 0 1.284.514 1.69 1.55.404.99.764 2.25 1.08 3.78.314 1.53.63 3.172.944 4.93a46.747 46.747 0 0 0 1.147 4.925c.495 1.53 1.103 2.812 1.823 3.847.72.99 1.685 1.485 2.9 1.485 1.08 0 1.98-.226 2.7-.676a6.22 6.22 0 0 0 1.89-1.687c.54-.676.99-1.418 1.35-2.228.36-.81.7-1.555 1.013-2.23.36-.675.742-1.237 1.147-1.687.406-.45.924-.675 1.554-.675.585.584.922 1.08 1.012 1.484.09.404.134.9.134 1.484-.27 1.35-.72 2.655-1.35 3.915a12.568 12.568 0 0 1-2.224 3.24c-.9.9-1.96 1.642-3.175 2.227-1.214.54-2.564.81-4.05.81-1.214 0-2.406-.156-3.576-.47-1.127-.36-2.14-.99-3.04-1.89-.9-1.08-1.71-2.5-2.43-4.254a105.41 105.41 0 0 1-1.823-5.265 81.317 81.317 0 0 1-1.69-6.345z"/><path d="M233.19 111.06c.586-.496 1.013-.743 1.283-.743.36 0 .585.225.675.675.135.405.203.922.203 1.552 0 2.205-.332 4.095-1.01 5.67-.672 1.575-1.46 2.858-2.36 3.848-.854.99-1.754 1.71-2.7 2.16-.9.45-1.574.675-2.024.675-2.024 0-3.712-.405-5.062-1.215a15.068 15.068 0 0 1-3.44-3.105 27.176 27.176 0 0 1-2.634-4.05 34.422 34.422 0 0 0-2.43-4.05c-.81-1.26-1.756-2.295-2.836-3.105-1.08-.855-2.43-1.283-4.05-1.283-1.214 0-2.16.4-2.834 1.21-.676.764-1.26 1.732-1.756 2.902a31.195 31.195 0 0 0-1.214 3.78c-.315 1.35-.72 2.61-1.215 3.78-.45 1.125-1.056 2.092-1.82 2.902-.766.764-1.8 1.147-3.106 1.147-.63 0-1.195-.247-1.69-.742-.45-.54-.675-1.125-.675-1.755l.61-7.763c0-3.6-.43-6.188-1.284-7.763-.854-1.62-2.024-2.43-3.51-2.43-.404 0-1.146.473-2.226 1.42a153.17 153.17 0 0 0-3.713 3.373 336.692 336.692 0 0 0-4.25 4.05c-1.394 1.35-2.63 2.43-3.71 3.24-.137.09-.294.18-.474.27-.36.18-.72.27-1.08.27-.36 0-.81-.203-1.35-.608-.54-.406-.81-.99-.81-1.756 0-.45.136-.856.406-1.216a2.35 2.35 0 0 1 .473-.473c.584-.404 1.35-1.012 2.294-1.822.99-.81 2.047-1.69 3.172-2.635 1.126-.945 2.273-1.913 3.443-2.903s2.272-1.89 3.307-2.7c1.036-.81 1.958-1.463 2.768-1.958.81-.54 1.397-.81 1.757-.81 1.8 0 3.24.314 4.32.944 1.08.63 1.913 1.462 2.498 2.497.586.99.968 2.14 1.148 3.444.225 1.26.338 2.567.338 3.917 1.847-2.114 3.647-3.644 5.4-4.59 1.8-.944 3.6-1.417 5.4-1.417 2.43 0 4.547.54 6.347 1.62 1.844 1.033 3.554 2.923 5.13 5.67l3.51 6.546c.944.944 1.62 1.686 2.024 2.226.45.54 1.035.81 1.755.81.18 0 .562-.34 1.147-1.014a33.225 33.225 0 0 0 1.89-2.43 64.61 64.61 0 0 0 2.16-3.172 41.867 41.867 0 0 0 1.825-3.105z"/><path d="M244.75 92.632h-11.34c.09 2.205.247 4.432.472 6.682.225 2.25.54 4.433.945 6.548.405 2.07.923 4.027 1.553 5.872.675 1.845 1.485 3.465 2.43 4.86.99 1.395 2.16 2.498 3.51 3.308 1.35.765 2.925 1.147 4.725 1.147 2.16 0 3.847-.45 5.062-1.35 1.26-.95 2.273-1.96 3.038-3.04.81-1.128 1.44-2.14 1.89-3.04.495-.946 1.035-1.418 1.62-1.418.585 0 1.035.337 1.35 1.012.36.63.54 1.147.54 1.552a13.214 13.214 0 0 1-1.418 3.846 12.738 12.738 0 0 1-2.565 3.24 11.06 11.06 0 0 1-3.442 2.227c-1.26.54-2.633.81-4.118.81-1.215 0-2.61-.113-4.185-.338-1.575-.27-3.15-.72-4.725-1.35-1.575-.63-2.925-1.62-4.05-2.97-1.125-1.396-2.092-3.286-2.902-5.67-.81-2.43-1.485-5.423-2.025-8.978-.585-3.6-1.125-7.943-1.62-13.028-.765 0-1.508-.023-2.228-.068a15.88 15.88 0 0 1-1.89-.34c-.54-.18-.967-.428-1.282-.743a1.54 1.54 0 0 1-.54-1.214c.36-.9.787-1.417 1.282-1.552.45-.18.833-.27 1.148-.27.045.045.225.068.54.068.495 0 .945-.044 1.35-.134.405-.09.81-.135 1.215-.135l-.675-7.49c-.18-.81-.315-1.53-.405-2.16a8.15 8.15 0 0 1-.203-1.69c0-.854.248-1.46.743-1.82.495-.407 1.44-.61 2.835-.61.36 0 .652.317.877.947.18.584.338 1.416.473 2.496.135 1.08.225 2.362.27 3.847.045 1.486.112 3.083.202 4.793l.068 1.89h16.335c.27.27.495.54.675.81.18.224.337.494.472.81.135.27.203.562.203.877 0 .494-.293.944-.878 1.35-.54.36-1.597.54-3.172.54h-.945c-.315-.046-.72-.09-1.215-.136z"/><path d="M260.423 89.46c-.315 0-.63-.023-.945-.068a2.03 2.03 0 0 1-.878-.54c-.27-.315-.472-.765-.607-1.35-.18-.585-.27-1.418-.27-2.498.315-1.44.99-2.587 2.025-3.442s2.182-1.283 3.442-1.283c.495.04.878.22 1.148.54.315.27.562.63.742 1.08.18.45.293.92.338 1.412.045.45.067.855.067 1.215 0 .63-.09 1.237-.27 1.822a3.443 3.443 0 0 1-.81 1.552c-.36.45-.877.832-1.552 1.147-.63.27-1.44.404-2.43.404zm-3.848 17.55c-.18-.81-.315-1.53-.405-2.16a8.15 8.15 0 0 1-.202-1.688c0-.855.247-1.463.742-1.823.495-.41 1.44-.61 2.835-.61.72 0 1.283.514 1.688 1.55.405.99.765 2.25 1.08 3.78.315 1.53.63 3.172.945 4.93a46.747 46.747 0 0 0 1.147 4.925c.495 1.53 1.103 2.812 1.823 3.847.72.99 1.687 1.485 2.902 1.485 1.08 0 1.98-.226 2.7-.676a6.22 6.22 0 0 0 1.89-1.687c.54-.676.99-1.418 1.35-2.228.36-.81.698-1.555 1.013-2.23.36-.675.742-1.237 1.147-1.687.405-.45.923-.675 1.553-.675.585.584.922 1.08 1.012 1.484.09.404.135.9.135 1.484-.27 1.35-.72 2.655-1.35 3.915a12.568 12.568 0 0 1-2.227 3.24c-.9.9-1.958 1.642-3.173 2.227-1.215.54-2.565.81-4.05.81-1.215 0-2.407-.156-3.577-.47-1.125-.36-2.138-.99-3.038-1.89-.9-1.08-1.71-2.5-2.43-4.254a105.41 105.41 0 0 1-1.822-5.265 81.317 81.317 0 0 1-1.688-6.345z"/><path d="M310.444 112.072c.27-.09.473-.135.608-.135.45 0 .81.225 1.08.675.315.405.472.855.472 1.35 0 .72-.45 1.327-1.35 1.822-.9.45-1.912.833-3.037 1.148a28.04 28.04 0 0 1-3.173.607c-.99.13-1.597.2-1.822.2-.675 0-1.44-.07-2.295-.206a2.41 2.41 0 0 0-.203.607c-.045.18-.112.383-.202.608-1.17 3.06-2.655 5.29-4.455 6.683-1.755 1.44-3.848 2.16-6.278 2.16-1.08 0-2.25-.157-3.51-.472a30.346 30.346 0 0 1-3.85-1.145c-2.34-.9-4.008-2.25-4.998-4.05a12.373 12.373 0 0 1-1.485-5.94c0-2.205.337-4.208 1.012-6.008.63-1.8 1.484-3.308 2.564-4.523 1.08-1.26 2.294-2.228 3.644-2.903 1.395-.673 2.813-1.01 4.253-1.01.766 0 1.62.09 2.566.27.944.135 1.844.36 2.7.675.854.315 1.574.675 2.16 1.08.63.405.99.855 1.08 1.35 1.8.9 3.104 2.182 3.914 3.847.855 1.667 1.327 3.4 1.417 5.2.315.045.585.067.81.067h.743a9.07 9.07 0 0 0 1.62-.138 24.44 24.44 0 0 0 1.552-.336c.584-.18 1.214-.383 1.89-.608a55.19 55.19 0 0 1 2.564-.88zm-29.835-.54c-.59 1.485-.88 2.925-.88 4.32 0 1.575.36 2.857 1.08 3.847a9.84 9.84 0 0 0 2.7 2.43c1.08.58 2.18.99 3.304 1.21 1.17.224 2.16.34 2.97.34 1.53 0 2.834-.475 3.914-1.42s2.07-2.565 2.97-4.86c.09-.27.135-.517.135-.74a457.47 457.47 0 0 1-3.106-.878c-1.26-.36-2.497-.81-3.71-1.35-1.217-.585-2.275-1.282-3.175-2.092-.856-.81-1.283-1.753-1.283-2.833 0-.585.11-1.08.336-1.485a9.5 9.5 0 0 1 .81-1.214c-.54.27-1.08.45-1.62.54a7.575 7.575 0 0 0-1.553.47c-.495.224-.99.607-1.485 1.147-.495.54-.968 1.395-1.418 2.565zm13.022-3.713a4.858 4.858 0 0 0-1.755-.34c-.72 0-1.305.154-1.755.47-.405.27-.675.584-.81.944v.202c0 .404.337.83 1.012 1.28a16.55 16.55 0 0 0 2.362 1.15c.9.36 1.8.674 2.7.944.944.226 1.686.406 2.226.54a8.593 8.593 0 0 0-1.283-3.037c-.63-.99-1.53-1.71-2.7-2.16z"/><path d="M340.102 114.434a23.632 23.632 0 0 1-6.615 6.75c-2.61 1.8-5.535 2.7-8.775 2.7-1.89 0-3.802-.337-5.737-1.012-2.025-.495-3.848-1.305-5.468-2.43a20.32 20.32 0 0 1-2.092-1.62 13.19 13.19 0 0 1-1.823-2.295c-.54-.9-.99-1.89-1.35-2.97-.405-1.125-.63-2.363-.675-3.713.18-1.26.36-2.587.54-3.982.135-1.44.383-2.835.743-4.185a17.48 17.48 0 0 1 1.417-3.983 10.327 10.327 0 0 1 2.43-3.307c1.035-.99 2.318-1.755 3.848-2.295 1.575-.585 3.51-.878 5.805-.878 1.215 0 2.362.248 3.442.743a8.603 8.603 0 0 1 2.835 2.092c.81.9 1.463 1.98 1.958 3.24.495 1.26.742 2.65.742 4.18 0 .584-.022 1.26-.067 2.024a8.353 8.353 0 0 1-.405 2.16 3.902 3.902 0 0 1-1.08 1.687c-.495.45-1.193.676-2.093.676-.315 0-.585-.114-.81-.34-.18-.27-.36-.56-.54-.876a6.995 6.995 0 0 1-.472-1.282c0-.135.067-.36.202-.675.135-.36.27-.743.405-1.148.18-.406.338-.81.473-1.216.135-.406.202-.744.202-1.014 0-.9-.135-1.71-.405-2.43-.27-.765-.63-1.417-1.08-1.957a4.432 4.432 0 0 0-1.552-1.215c-.585-.316-1.17-.474-1.755-.474-.45 0-1.215.203-2.295.608-1.08.404-2.205 1.124-3.375 2.16-1.125 1.034-2.138 2.43-3.038 4.184-.855 1.755-1.282 4.005-1.282 6.75 0 3.24.967 5.58 2.902 7.02 1.935 1.395 4.68 2.295 8.235 2.7 2.97 0 5.49-.563 7.56-1.688a16.167 16.167 0 0 0 5.333-4.522c.54-.675 1.192-1.013 1.957-1.013.54 0 1.013.18 1.418.54.45.314.675.72.675 1.214 0 .404-.113.764-.338 1.08z"/><path d="M337.345 116.19a149.97 149.97 0 0 1-.202-4.388 149.326 149.326 0 0 1-.068-4.523c0-3.02.135-6.12.405-9.32.27-3.196.765-6.68 1.485-10.46.135-1.26.27-2.477.405-3.647a28.53 28.53 0 0 1 .608-3.51 17.55 17.55 0 0 1 1.147-3.375c.54-1.124 1.283-2.25 2.228-3.374.72-.315 1.327-.473 1.822-.473.495 0 .945.16 1.35.474 2.16 2.43 3.713 4.972 4.658 7.627a24.185 24.185 0 0 1 1.417 8.17c0 2.386-.292 4.75-.877 7.09a42.582 42.582 0 0 1-2.295 7.02 70.143 70.143 0 0 1-3.443 6.882c-1.305 2.25-2.7 4.5-4.185 6.75.09 1.305.18 2.295.27 2.97.09.675.158 1.305.203 1.89.09.585.157 1.283.202 2.093.09.765.158 1.957.203 3.577 1.08-.675 1.957-1.597 2.632-2.767a50.333 50.333 0 0 0 2.025-3.78 35.747 35.747 0 0 1 2.228-3.848c.81-1.26 1.89-2.298 3.24-3.108l2.835-1.485c.99-.54 1.98-.81 2.97-.81 1.035 0 1.845.27 2.43.81.585.493 1.035 1.123 1.35 1.89.36.72.652 1.506.877 2.36a10.6 10.6 0 0 0 .878 2.296c.315.406.607.856.877 1.35.315.45.63.856.945 1.216.36.36.743.675 1.148.945.405.226.855.338 1.35.338 1.98 0 3.69-.338 5.13-1.013a15.893 15.893 0 0 0 3.982-2.564 37.78 37.78 0 0 0 3.51-3.577 73.97 73.97 0 0 1 3.645-4.05c.36-.36.788-.54 1.283-.54.63 0 1.192.247 1.687.742.495.495.743 1.057.743 1.687 0 .494-.18.922-.54 1.282a96.282 96.282 0 0 0-4.185 4.32 48.748 48.748 0 0 1-4.388 4.25 24.064 24.064 0 0 1-4.86 3.24c-1.71.855-3.577 1.283-5.602 1.283a6.23 6.23 0 0 1-2.7-.608 9.202 9.202 0 0 1-2.363-1.62 14.77 14.77 0 0 1-1.89-2.16 22.4 22.4 0 0 1-1.552-2.634 3.57 3.57 0 0 1-.608-1.42 13.182 13.182 0 0 0-.202-1.485c-.045-.45-.18-.832-.405-1.147-.18-.316-.563-.474-1.148-.474-1.395 0-2.587.403-3.577 1.213-.99.81-1.868 1.845-2.633 3.105a36.72 36.72 0 0 0-2.16 3.982 40.222 40.222 0 0 1-2.16 3.914c-.765 1.26-1.642 2.295-2.632 3.105-.945.81-2.115 1.213-3.51 1.213h-.54c-.495.135-.878.202-1.148.202-.9 0-1.35-.7-1.35-2.094 0-2.97-.045-5.76-.135-8.37-.135-2.61-.27-5.13-.405-7.56l-.405.878zm7.695-37.328c-.45.72-.81 1.462-1.08 2.227a17.12 17.12 0 0 0-.54 2.29 33.743 33.743 0 0 0-.337 2.5c-.09.853-.203 1.8-.338 2.833-.54 3.15-.922 6.075-1.147 8.775a95.115 95.115 0 0 0-.338 7.9v2.43l.135 2.292c2.025-3.375 3.713-6.772 5.063-10.192 1.35-3.42 2.025-6.793 2.025-10.123 0-1.935-.27-3.803-.81-5.603-.54-1.845-1.418-3.622-2.633-5.332z"/><path d="M418.286 112.072c.27-.09.473-.135.608-.135.45 0 .81.225 1.08.675.315.405.472.855.472 1.35 0 .72-.45 1.327-1.35 1.822-.9.45-1.912.833-3.037 1.148-1.08.27-2.14.472-3.18.607-.99.13-1.596.2-1.82.2-.675 0-1.44-.07-2.295-.206a2.41 2.41 0 0 0-.204.607c-.044.18-.11.383-.2.608-1.17 3.06-2.655 5.29-4.455 6.683-1.756 1.44-3.85 2.16-6.28 2.16-1.08 0-2.25-.157-3.51-.472a30.346 30.346 0 0 1-3.846-1.145c-2.34-.9-4.005-2.25-4.995-4.05a12.373 12.373 0 0 1-1.486-5.94c0-2.205.336-4.208 1.01-6.008.63-1.8 1.486-3.308 2.566-4.523 1.08-1.26 2.296-2.228 3.646-2.903 1.395-.673 2.813-1.01 4.253-1.01.764 0 1.62.09 2.564.27.944.135 1.844.36 2.7.675.854.315 1.574.675 2.16 1.08.63.405.99.855 1.08 1.35 1.8.9 3.104 2.182 3.914 3.847.854 1.667 1.326 3.4 1.416 5.2.32.045.59.067.81.067h.747a9.07 9.07 0 0 0 1.62-.138 24.44 24.44 0 0 0 1.55-.336c.586-.18 1.216-.383 1.89-.608a54.39 54.39 0 0 1 2.566-.88zm-29.835-.54c-.58 1.485-.87 2.925-.87 4.32 0 1.575.36 2.857 1.08 3.847.764.99 1.664 1.8 2.7 2.43 1.08.58 2.18.99 3.306 1.21 1.17.224 2.16.34 2.97.34 1.53 0 2.836-.475 3.916-1.42s2.07-2.565 2.97-4.86c.09-.27.135-.517.135-.74-.81-.225-1.844-.518-3.104-.878s-2.497-.81-3.712-1.35c-1.214-.585-2.272-1.282-3.172-2.092-.854-.81-1.28-1.753-1.28-2.833 0-.585.11-1.08.336-1.485a9.5 9.5 0 0 1 .81-1.214c-.54.27-1.08.45-1.62.54a7.575 7.575 0 0 0-1.55.47c-.496.224-.99.607-1.486 1.147s-.97 1.395-1.42 2.565zm13.03-3.713a4.858 4.858 0 0 0-1.75-.34c-.72 0-1.306.154-1.756.47-.405.27-.675.584-.81.944v.202c0 .404.337.83 1.01 1.28a16.55 16.55 0 0 0 2.365 1.15c.9.36 1.8.674 2.7.944.944.226 1.686.406 2.226.54a8.593 8.593 0 0 0-1.28-3.037c-.63-.99-1.53-1.71-2.7-2.16z"/><path d="M447.944 114.434a23.632 23.632 0 0 1-6.615 6.75c-2.61 1.8-5.54 2.7-8.78 2.7-1.89 0-3.804-.337-5.74-1.012-2.024-.495-3.846-1.305-5.466-2.43-.676-.45-1.374-.99-2.094-1.62a13.19 13.19 0 0 1-1.82-2.295c-.54-.9-.99-1.89-1.35-2.97-.405-1.125-.63-2.363-.675-3.713.18-1.26.36-2.587.54-3.982.134-1.44.38-2.835.74-4.185a17.48 17.48 0 0 1 1.42-3.983 10.327 10.327 0 0 1 2.43-3.307c1.034-.99 2.316-1.755 3.846-2.295 1.577-.585 3.51-.878 5.807-.878a8.17 8.17 0 0 1 3.444.743 8.603 8.603 0 0 1 2.838 2.092c.81.9 1.46 1.98 1.956 3.24.495 1.26.743 2.65.743 4.18 0 .584-.024 1.26-.07 2.024a8.353 8.353 0 0 1-.404 2.16 3.902 3.902 0 0 1-1.08 1.687c-.494.45-1.19.676-2.09.676a1.1 1.1 0 0 1-.81-.34c-.18-.27-.36-.56-.54-.876a6.995 6.995 0 0 1-.474-1.282c0-.135.07-.36.203-.675.136-.36.27-.743.406-1.148.18-.406.335-.81.47-1.216.135-.406.203-.744.203-1.014 0-.9-.135-1.71-.405-2.43-.27-.765-.63-1.417-1.08-1.957a4.432 4.432 0 0 0-1.554-1.215c-.583-.316-1.17-.474-1.753-.474-.45 0-1.213.203-2.293.608-1.08.404-2.205 1.124-3.375 2.16-1.122 1.034-2.134 2.43-3.034 4.184-.854 1.755-1.282 4.005-1.282 6.75 0 3.24.97 5.58 2.904 7.02 1.935 1.395 4.68 2.295 8.235 2.7 2.97 0 5.49-.563 7.56-1.688a16.167 16.167 0 0 0 5.33-4.522c.54-.675 1.193-1.013 1.96-1.013.54 0 1.01.18 1.415.54.45.314.675.72.675 1.214 0 .404-.11.764-.336 1.08z"/><path d="M478.667 112.072c.27-.09.472-.135.607-.135.45 0 .81.225 1.08.675.315.405.473.855.473 1.35 0 .72-.45 1.327-1.35 1.822-.9.45-1.913.833-3.038 1.148a28.04 28.04 0 0 1-3.178.607c-.99.13-1.598.2-1.823.2-.675 0-1.44-.07-2.295-.206a2.41 2.41 0 0 0-.203.607 4.79 4.79 0 0 1-.203.608c-1.17 3.06-2.655 5.29-4.455 6.683-1.756 1.44-3.848 2.16-6.278 2.16-1.08 0-2.25-.157-3.51-.472a30.346 30.346 0 0 1-3.85-1.145c-2.34-.9-4.004-2.25-4.994-4.05a12.373 12.373 0 0 1-1.486-5.94c0-2.205.338-4.208 1.013-6.008.63-1.8 1.488-3.308 2.568-4.523 1.08-1.26 2.295-2.228 3.645-2.903 1.396-.673 2.813-1.01 4.253-1.01.764 0 1.62.09 2.564.27.943.135 1.843.36 2.7.675.853.315 1.573.675 2.16 1.08.63.405.99.855 1.08 1.35 1.8.9 3.103 2.182 3.913 3.847.855 1.667 1.328 3.4 1.418 5.2.32.045.59.067.81.067h.746a9.07 9.07 0 0 0 1.62-.138 24.44 24.44 0 0 0 1.553-.336 85.89 85.89 0 0 0 1.89-.608 55.27 55.27 0 0 1 2.564-.88zm-29.835-.54c-.585 1.485-.878 2.925-.878 4.32 0 1.575.36 2.857 1.08 3.847.765.99 1.665 1.8 2.7 2.43 1.08.58 2.183.99 3.308 1.21 1.17.224 2.16.34 2.97.34 1.53 0 2.835-.475 3.915-1.42s2.07-2.565 2.97-4.86c.09-.27.135-.517.135-.74-.81-.225-1.845-.518-3.105-.878s-2.498-.81-3.713-1.35c-1.215-.585-2.272-1.282-3.172-2.092-.855-.81-1.283-1.753-1.283-2.833 0-.585.11-1.08.332-1.485a9.5 9.5 0 0 1 .81-1.214c-.54.27-1.08.45-1.62.54a7.575 7.575 0 0 0-1.553.47c-.495.224-.99.607-1.485 1.147-.496.54-.968 1.395-1.418 2.565zm13.027-3.713a4.858 4.858 0 0 0-1.76-.34c-.72 0-1.306.154-1.756.47-.406.27-.676.584-.81.944v.202c0 .404.337.83 1.012 1.28a16.55 16.55 0 0 0 2.36 1.15c.9.36 1.8.674 2.7.944.946.226 1.69.406 2.23.54a8.593 8.593 0 0 0-1.284-3.037c-.63-.99-1.53-1.71-2.7-2.16z"/><path d="M568.737 115.042a30.05 30.05 0 0 1-2.632.877 9.825 9.825 0 0 1-2.7.4c-1.755 0-3.623-.47-5.603-1.418-1.98-.945-3.892-2.475-5.737-4.59l-7.763-8.37c-1.8-2.16-3.307-3.69-4.522-4.59-1.17-.9-2.07-1.35-2.7-1.35-1.395 1.305-2.633 3.015-3.713 5.13a53.138 53.138 0 0 0-2.767 6.682 79.574 79.574 0 0 0-2.093 7.29c-.54 2.43-1.057 4.634-1.552 6.614-.45 1.98-.878 3.58-1.283 4.793-.405 1.26-.81 1.89-1.215 1.89-.27 0-.675-.63-1.215-1.89a117.4 117.4 0 0 1-1.755-4.657 323.45 323.45 0 0 0-2.295-6.346 91.548 91.548 0 0 0-2.632-6.75c-.9-2.205-1.868-4.185-2.903-5.94-.99-1.8-1.98-3.08-2.97-3.847-.18.315-.675 1.17-1.485 2.565l-2.902 4.992a290.94 290.94 0 0 1-3.578 6.075 121.624 121.624 0 0 1-3.847 5.87c-1.215 1.8-2.318 3.31-3.308 4.524-.99 1.17-1.732 1.755-2.227 1.755-.9 0-1.44-.27-1.62-.81-.135-.585-.203-1.305-.203-2.16.54-2.745 1.035-5.31 1.485-7.695.18-.99.36-2.003.54-3.038.18-1.08.338-2.07.473-2.97.18-.946.315-1.8.405-2.566.09-.764.135-1.37.135-1.82 0-1.036-.045-1.89-.135-2.566-.09-.72-.27-1.33-.54-1.824-.225-.495-.54-.9-.945-1.215-.36-.315-.833-.63-1.418-.945l-7.762 12.014c-.18.27-.405.74-.675 1.416-.27.63-.54 1.283-.81 1.958a15.95 15.95 0 0 1-.878 1.755c-.27.493-.517.74-.742.74-.045 0-.09-.022-.135-.067-.675.675-1.283 1.013-1.823 1.013-.45 0-.81-.16-1.08-.474a4.543 4.543 0 0 1-.742-1.147 13.875 13.875 0 0 1-.473-1.62c.045-.09.27-.43.675-1.014.36-.63.765-1.305 1.215-2.025.45-.72.855-1.374 1.215-1.96.405-.584.63-.9.675-.944l8.978-13.164c0-.36.225-.56.675-.607.45-.046.832-.07 1.147-.07 3.015.63 5.153 1.913 6.413 3.848 1.305 1.89 1.957 4.186 1.957 6.886 0 .9-.112 2.09-.337 3.576a44.5 44.5 0 0 1-.878 4.252c1.89-2.97 3.443-5.58 4.658-7.83a559.64 559.64 0 0 1 3.172-5.603c.9-1.487 1.643-2.59 2.228-3.31.63-.764 1.282-1.147 1.957-1.147 1.35 0 2.7.675 4.05 2.025 1.395 1.305 2.7 2.993 3.915 5.063 1.26 2.025 2.385 4.275 3.375 6.75.99 2.43 1.8 4.77 2.43 7.02l2.363-7.155c1.035-3.15 1.912-5.67 2.632-7.56.765-1.935 1.485-3.443 2.16-4.523.72-1.08 1.44-1.845 2.16-2.295.765-.497 1.665-.88 2.7-1.15 1.395.315 2.543.65 3.443 1.01.945.36 1.8.81 2.565 1.35a12.134 12.134 0 0 1 2.227 1.89 68.33 68.33 0 0 1 2.498 2.837 277.61 277.61 0 0 0 3.442 3.845c1.35 1.485 3.015 3.217 4.995 5.197 1.485 1.17 2.858 2.16 4.118 2.97 1.305.81 2.7 1.216 4.185 1.216 1.215 0 2.43-.428 3.645-1.283.675.18 1.26.36 1.755.54.45.18.855.405 1.215.675.36.27.54.585.54.945 0 .315-.135.63-.405.945-.27.315-.743.675-1.418 1.08z"/><path d="M604.81 115.312c0 .405-.248 1.012-.743 1.822a17.1 17.1 0 0 1-1.822 2.43c-.72.81-1.463 1.508-2.228 2.093-.765.585-1.417.877-1.957.877-1.395 0-2.633-.405-3.713-1.215a14.752 14.752 0 0 1-2.902-3.11 28.88 28.88 0 0 1-2.16-4.05 308.138 308.138 0 0 1-1.688-4.05 45.763 45.763 0 0 0-1.215-3.106c-.315-.856-.63-1.283-.945-1.283l.608 4.793c0 3.96-.63 6.974-1.89 9.044-1.215 2.07-3.173 3.263-5.873 3.58-1.53 0-3.172-.565-4.927-1.69-1.755-1.125-3.51-2.767-5.265-4.927-.855-.81-1.553-1.62-2.093-2.43s-.967-1.664-1.282-2.564a11.87 11.87 0 0 1-.608-2.905 26.755 26.755 0 0 1-.202-3.44c0-1.936.427-3.69 1.282-5.266.81-1.575 1.8-2.925 2.97-4.05 1.215-1.125 2.475-2.003 3.78-2.633 1.305-.675 2.408-1.08 3.308-1.215h.472c.36 0 .878.067 1.553.202.72.09 1.53.36 2.43.81.945.45 1.98 1.125 3.105 2.025 1.125.9 2.272 2.116 3.442 3.646 1.17 1.53 2.363 3.465 3.578 5.805 1.215 2.296 2.362 5.086 3.442 8.37.63 1.846 1.26 3.218 1.89 4.118.63.9 1.373 1.35 2.228 1.35.315 0 .697-.27 1.147-.81a16.85 16.85 0 0 0 1.418-1.957 40.33 40.33 0 0 0 1.35-2.093c.405-.72.72-1.216.945-1.486.45-.404.945-.606 1.485-.606.585 0 1.035.225 1.35.675a2.414 2.414 0 0 1 .337 2.496c-.09.27-.292.515-.607.74zm-24.098 1.822c.36-1.215.63-2.295.81-3.24.225-.945.338-2.07.338-3.375 0-1.76-.09-3.49-.27-5.2a11.528 11.528 0 0 0-1.62-4.86 8.13 8.13 0 0 0-1.148-1.62 5.48 5.48 0 0 0-1.35-1.08 3.666 3.666 0 0 0-1.822-.61 7.42 7.42 0 0 0-2.97 1.08 9.25 9.25 0 0 0-2.363 2.024c-.675.81-1.215 1.71-1.62 2.7-.405.944-.607 1.867-.607 2.767 0 1.98.45 3.78 1.35 5.4.9 1.62 1.912 3.016 3.037 4.186 1.17 1.124 2.318 2.024 3.443 2.7 1.125.63 1.912.944 2.362.944.585 0 1.035-.134 1.35-.404.36-.316.72-.79 1.08-1.42z"/><path d="M633.042 114.434a23.632 23.632 0 0 1-6.615 6.75c-2.61 1.8-5.535 2.7-8.775 2.7-1.89 0-3.803-.337-5.738-1.012-2.025-.495-3.847-1.305-5.467-2.43-.675-.45-1.373-.99-2.093-1.62a13.19 13.19 0 0 1-1.822-2.295c-.54-.9-.99-1.89-1.35-2.97-.405-1.125-.63-2.363-.675-3.713.18-1.26.36-2.587.54-3.982.135-1.44.382-2.835.742-4.185a17.48 17.48 0 0 1 1.412-3.983 10.327 10.327 0 0 1 2.43-3.307c1.035-.99 2.317-1.755 3.847-2.295 1.575-.585 3.51-.878 5.805-.878 1.214 0 2.362.248 3.442.743a8.603 8.603 0 0 1 2.834 2.092c.81.9 1.463 1.98 1.958 3.24.494 1.26.742 2.65.742 4.18 0 .584-.023 1.26-.068 2.024a8.353 8.353 0 0 1-.406 2.16 3.902 3.902 0 0 1-1.08 1.687c-.495.45-1.19.676-2.09.676a1.1 1.1 0 0 1-.81-.34c-.18-.27-.36-.56-.54-.876a6.995 6.995 0 0 1-.475-1.282c0-.135.068-.36.203-.675.135-.36.27-.743.405-1.148.18-.406.337-.81.472-1.216.134-.406.202-.744.202-1.014 0-.9-.135-1.71-.405-2.43-.27-.765-.63-1.417-1.08-1.957a4.432 4.432 0 0 0-1.553-1.215c-.587-.316-1.17-.474-1.757-.474-.45 0-1.215.203-2.295.608-1.08.404-2.205 1.124-3.375 2.16-1.126 1.034-2.138 2.43-3.038 4.184-.856 1.755-1.284 4.005-1.284 6.75 0 3.24.966 5.58 2.9 7.02 1.936 1.395 4.68 2.295 8.236 2.7 2.97 0 5.49-.563 7.56-1.688a16.167 16.167 0 0 0 5.33-4.522c.54-.675 1.193-1.013 1.958-1.013.54 0 1.012.18 1.417.54.45.314.676.72.676 1.214 0 .404-.113.764-.338 1.08z"/><path d="M633.255 89.46c-.315 0-.63-.023-.945-.068a2.03 2.03 0 0 1-.878-.54c-.27-.315-.472-.765-.607-1.35-.18-.585-.27-1.418-.27-2.498.315-1.44.99-2.587 2.025-3.442s2.182-1.283 3.442-1.283c.495.04.878.22 1.148.54.315.27.562.63.742 1.08.18.45.293.92.338 1.412.045.45.067.855.067 1.215 0 .63-.09 1.237-.27 1.822a3.443 3.443 0 0 1-.81 1.552c-.36.45-.877.832-1.552 1.147-.63.27-1.44.404-2.43.404zm-3.848 17.55c-.18-.81-.315-1.53-.405-2.16a8.15 8.15 0 0 1-.202-1.688c0-.855.247-1.463.742-1.823.495-.41 1.44-.61 2.835-.61.72 0 1.283.514 1.688 1.55.405.99.765 2.25 1.08 3.78.315 1.53.63 3.172.945 4.93a46.747 46.747 0 0 0 1.147 4.925c.495 1.53 1.103 2.812 1.823 3.847.72.99 1.687 1.485 2.902 1.485 1.08 0 1.98-.226 2.7-.676a6.22 6.22 0 0 0 1.89-1.687c.54-.676.99-1.418 1.35-2.228.36-.81.698-1.555 1.013-2.23.36-.675.742-1.237 1.147-1.687.405-.45.923-.675 1.553-.675.585.584.922 1.08 1.012 1.484.09.404.135.9.135 1.484-.27 1.35-.72 2.655-1.35 3.915a12.568 12.568 0 0 1-2.227 3.24c-.9.9-1.958 1.642-3.173 2.227-1.215.54-2.565.81-4.05.81-1.215 0-2.407-.156-3.577-.47-1.125-.36-2.138-.99-3.038-1.89-.9-1.08-1.71-2.5-2.43-4.254a105.41 105.41 0 0 1-1.822-5.265 81.317 81.317 0 0 1-1.688-6.345z"/><path d="M711.49 111.06c.586-.496 1.014-.743 1.284-.743.36 0 .585.225.675.675.13.405.2.922.2 1.552 0 2.205-.34 4.095-1.01 5.67-.68 1.575-1.47 2.858-2.37 3.848-.854.99-1.754 1.71-2.7 2.16-.9.45-1.574.675-2.024.675-2.025 0-3.71-.405-5.06-1.215a15.068 15.068 0 0 1-3.445-3.105 27.176 27.176 0 0 1-2.63-4.05 34.422 34.422 0 0 0-2.43-4.05c-.81-1.26-1.755-2.295-2.835-3.105-1.08-.855-2.43-1.283-4.05-1.283-1.217 0-2.16.4-2.837 1.21-.676.764-1.26 1.732-1.756 2.902a31.195 31.195 0 0 0-1.216 3.78c-.316 1.35-.72 2.61-1.216 3.78-.45 1.125-1.06 2.092-1.824 2.902-.764.764-1.8 1.147-3.104 1.147-.63 0-1.19-.247-1.686-.742-.45-.54-.675-1.125-.675-1.755l.607-7.763c0-3.6-.426-6.188-1.28-7.763-.855-1.62-2.025-2.43-3.51-2.43-.405 0-1.148.473-2.228 1.42-1.08.943-2.318 2.07-3.713 3.373a336.692 336.692 0 0 0-4.25 4.05c-1.395 1.35-2.63 2.43-3.71 3.24-.137.09-.295.18-.475.27-.36.18-.72.27-1.08.27-.36 0-.81-.203-1.35-.608-.54-.406-.81-.99-.81-1.756 0-.45.135-.856.405-1.216a2.35 2.35 0 0 1 .472-.473c.584-.404 1.35-1.012 2.294-1.822.99-.81 2.046-1.69 3.17-2.635 1.126-.945 2.274-1.913 3.444-2.903s2.275-1.89 3.31-2.7c1.035-.81 1.96-1.463 2.77-1.958.81-.54 1.393-.81 1.753-.81 1.8 0 3.24.314 4.32.944 1.08.63 1.914 1.462 2.5 2.497.586.99.97 2.14 1.15 3.444a22.33 22.33 0 0 1 .336 3.917c1.845-2.114 3.645-3.644 5.4-4.59 1.8-.944 3.6-1.417 5.4-1.417 2.43 0 4.545.54 6.345 1.62 1.848 1.033 3.558 2.923 5.13 5.67l3.51 6.546c.948.944 1.62 1.686 2.028 2.226.45.54 1.034.81 1.754.81.18 0 .565-.34 1.15-1.014a33.225 33.225 0 0 0 1.89-2.43 64.61 64.61 0 0 0 2.16-3.172 41.867 41.867 0 0 0 1.82-3.105z"/><path d="M741.41 114.434a23.632 23.632 0 0 1-6.614 6.75c-2.61 1.8-5.535 2.7-8.775 2.7-1.89 0-3.8-.337-5.732-1.012-2.025-.495-3.847-1.305-5.467-2.43-.675-.45-1.373-.99-2.093-1.62a13.19 13.19 0 0 1-1.822-2.295c-.54-.9-.99-1.89-1.35-2.97-.404-1.125-.63-2.363-.674-3.713.18-1.26.36-2.587.54-3.982.135-1.44.38-2.835.74-4.185a17.48 17.48 0 0 1 1.42-3.983 10.327 10.327 0 0 1 2.43-3.307c1.035-.99 2.317-1.755 3.847-2.295 1.575-.585 3.51-.878 5.805-.878a8.17 8.17 0 0 1 3.446.743 8.603 8.603 0 0 1 2.836 2.092c.81.9 1.46 1.98 1.957 3.24.495 1.26.743 2.65.743 4.18 0 .584-.025 1.26-.07 2.024a8.353 8.353 0 0 1-.405 2.16 3.902 3.902 0 0 1-1.08 1.687c-.495.45-1.192.676-2.092.676-.314 0-.584-.114-.81-.34-.18-.27-.36-.56-.54-.876a6.995 6.995 0 0 1-.472-1.282c0-.135.07-.36.205-.675.135-.36.27-.743.405-1.148.18-.406.34-.81.474-1.216.134-.406.202-.744.202-1.014 0-.9-.133-1.71-.403-2.43-.27-.765-.63-1.417-1.08-1.957a4.432 4.432 0 0 0-1.554-1.215c-.587-.316-1.17-.474-1.757-.474-.45 0-1.216.203-2.296.608-1.08.404-2.206 1.124-3.376 2.16-1.125 1.034-2.137 2.43-3.037 4.184-.854 1.755-1.282 4.005-1.282 6.75 0 3.24.968 5.58 2.903 7.02 1.937 1.395 4.68 2.295 8.237 2.7 2.97 0 5.49-.563 7.56-1.688a16.167 16.167 0 0 0 5.332-4.522c.54-.675 1.192-1.013 1.957-1.013.54 0 1.012.18 1.417.54.45.314.674.72.674 1.214 0 .404-.112.764-.337 1.08z"/><path d="M772.134 112.072c.27-.09.472-.135.607-.135.45 0 .81.225 1.08.675.32.405.48.855.48 1.35 0 .72-.45 1.327-1.35 1.822-.9.45-1.914.833-3.04 1.148a28.04 28.04 0 0 1-3.172.607c-.99.13-1.598.2-1.823.2-.674 0-1.44-.07-2.294-.206a2.41 2.41 0 0 0-.202.607 4.79 4.79 0 0 1-.203.608c-1.17 3.06-2.654 5.29-4.454 6.683-1.755 1.44-3.847 2.16-6.277 2.16-1.08 0-2.25-.157-3.51-.472a30.346 30.346 0 0 1-3.85-1.145c-2.34-.9-4.004-2.25-4.994-4.05a12.373 12.373 0 0 1-1.486-5.94c0-2.205.34-4.208 1.014-6.008.63-1.8 1.485-3.308 2.565-4.523 1.08-1.26 2.294-2.228 3.644-2.903 1.395-.673 2.812-1.01 4.252-1.01.764 0 1.62.09 2.564.27.946.135 1.846.36 2.7.675.856.315 1.576.675 2.16 1.08.63.405.99.855 1.08 1.35 1.8.9 3.106 2.182 3.916 3.847.85 1.667 1.324 3.4 1.414 5.2.315.045.585.067.81.067h.742a9.07 9.07 0 0 0 1.62-.138 24.44 24.44 0 0 0 1.552-.336c.583-.18 1.213-.383 1.89-.608.72-.27 1.573-.565 2.563-.88zm-29.835-.54c-.59 1.485-.88 2.925-.88 4.32 0 1.575.36 2.857 1.08 3.847a9.84 9.84 0 0 0 2.7 2.43c1.08.58 2.18.99 3.31 1.21 1.17.224 2.16.34 2.97.34 1.53 0 2.83-.475 3.91-1.42s2.07-2.565 2.97-4.86c.09-.27.134-.517.134-.74a457.47 457.47 0 0 1-3.106-.878c-1.26-.36-2.498-.81-3.713-1.35-1.215-.585-2.27-1.282-3.17-2.092-.857-.81-1.285-1.753-1.285-2.833 0-.585.113-1.08.338-1.485a9.5 9.5 0 0 1 .81-1.214c-.54.27-1.08.45-1.62.54a7.575 7.575 0 0 0-1.55.47c-.495.224-.99.607-1.485 1.147-.495.54-.967 1.395-1.417 2.565zm13.02-3.713a4.858 4.858 0 0 0-1.754-.34c-.72 0-1.305.154-1.755.47-.404.27-.674.584-.81.944v.202c0 .404.34.83 1.014 1.28a16.55 16.55 0 0 0 2.36 1.15c.9.36 1.8.674 2.7.944.945.226 1.69.406 2.23.54a8.593 8.593 0 0 0-1.285-3.037c-.63-.99-1.53-1.71-2.7-2.16z"/></g></g></svg>