<?xml version="1.0" encoding="UTF-8" standalone="no"?>
<svg width="688px" height="63px" viewBox="0 0 688 63" version="1.1" xmlns="http://www.w3.org/2000/svg" xmlns:xlink="http://www.w3.org/1999/xlink" xmlns:sketch="http://www.bohemiancoding.com/sketch/ns">
    <!-- Generator: Sketch 3.5.2 (25235) - http://www.bohemiancoding.com/sketch -->
    <title>logo_black</title>
    <desc>Created with Sketch.</desc>
    <defs></defs>
    <g id="Page-1" stroke="none" stroke-width="1" fill="none" fill-rule="evenodd" sketch:type="MSPage">
        <g id="logo_black" sketch:type="MSLayerGroup" fill="#FFFFFF">
            <g id="Group" sketch:type="MSShapeGroup">
                <path d="M1.163,39.41 C1.163,39.364 1.388,39.004 1.838,38.33 C2.243,37.61 2.783,36.844 3.458,36.034 C4.133,35.179 4.898,34.414 5.753,33.739 C6.608,33.019 7.463,32.659 8.318,32.659 C9.083,32.659 9.78,32.901 10.41,33.399 C11.1057849,33.9162326 11.7006535,34.5568604 12.165,35.289 C12.66,36.051 13.065,36.909 13.38,37.851 C13.74,38.751 13.965,39.651 14.055,40.551 C14.055,41.856 13.943,42.891 13.718,43.656 C13.547328,44.3479107 13.3216088,45.0250682 13.043,45.681 C12.810682,46.2855971 12.5856656,46.8929746 12.368,47.503 C12.188,48.133 12.098,49.01 12.098,50.135 C12.098,50.945 12.143,51.799 12.233,52.699 C12.323,53.599 12.525,54.432 12.84,55.197 C13.1789963,55.9353113 13.6878544,56.5829488 14.325,57.087 C15,57.583 15.878,57.831 16.958,57.831 C18.533,57.831 19.77,57.426 20.67,56.616 C21.5792059,55.7933941 22.2941248,54.7789129 22.763,53.646 C23.3086699,52.4585266 23.7163341,51.2123826 23.978,49.932 C24.2589464,48.7530964 24.5740793,47.5826028 24.923,46.422 C23.708,45.476 22.808,44.239 22.223,42.709 C21.6811078,41.1227381 21.4073581,39.4572584 21.413,37.781 C21.413,36.971 21.458,36.138 21.548,35.283 C21.638,34.383 21.773,33.573 21.953,32.853 C22.178,32.088 22.425,31.458 22.695,30.963 C23.01,30.468 23.37,30.22 23.775,30.22 C23.91,30.22 24.045,30.244 24.18,30.29 L24.72,30.425 C26.835,31.325 28.253,32.607 28.973,34.272 C29.738,35.937 30.12,37.805 30.12,39.875 C30.12,40.46 30.098,40.91 30.053,41.225 L30.053,42.445 C30.233,42.445 30.885,42.355 32.01,42.175 C33.2968912,41.9254738 34.579721,41.6554394 35.858,41.365 C37.298,41.005 38.648,40.645 39.908,40.285 C41.213,39.925 42.09,39.565 42.54,39.205 C42.765,39.115 43.035,39.048 43.35,39.003 C43.71,38.959 44.093,38.937 44.498,38.937 C45.128,38.937 45.713,39.027 46.253,39.207 C46.793,39.342 47.063,39.634 47.063,40.084 C47.063,40.444 46.793,40.918 46.253,41.504 C45.758,42.044 44.858,42.741 43.553,43.596 L42.54,43.934 C41.37,44.294 40.245,44.632 39.165,44.947 L36.06,45.757 C35.025,46.027 33.968,46.252 32.888,46.432 C31.808,46.612 30.638,46.744 29.378,46.834 L28.635,50.277 C28.23,51.627 27.915,52.684 27.69,53.449 C27.465,54.259 27.218,54.955 26.948,55.539 C26.6580478,56.1994216 26.2711156,56.8128507 25.8,57.359 C25.35,57.989 24.675,58.799 23.775,59.789 C23.031543,60.5858411 22.1046745,61.1889922 21.075,61.546 C20.085,61.906 18.983,62.086 17.768,62.086 C14.573,62.086 12.075,61.118 10.275,59.183 C8.52,57.253 7.643,54.663 7.643,51.423 C7.643,50.253 7.755,49.309 7.98,48.589 C8.205,47.869 8.453,47.171 8.723,46.496 C8.993,45.821 9.24,45.056 9.465,44.201 C9.69,43.301 9.803,42.086 9.803,40.556 L9.6,37.656 C9.6,37.296 9.578,36.982 9.533,36.712 C9.488,36.442 9.33,36.302 9.06,36.302 C9.015,36.302 8.948,36.347 8.858,36.437 C8.768,36.481 8.543,36.707 8.183,37.111 C7.868,37.516 7.373,38.146 6.698,39.001 C6.068,39.856 5.145,41.094 3.93,42.714 C3.345,43.029 2.805,43.186 2.31,43.186 C1.725,43.186 1.275,43.028 0.96,42.713 C0.6,42.353 0.42,41.903 0.42,41.363 C0.42,40.778 0.668,40.125 1.163,39.405 L1.163,39.41 Z M25.395,34.414 C25.395,34.819 25.305,35.314 25.125,35.899 C24.945,36.439 24.9,37.131 24.99,37.989 L25.058,38.863 C25.103,39.403 25.215,39.897 25.395,40.347 C25.62,40.797 25.845,41.202 26.07,41.562 C26.205,41.156 26.34,40.639 26.475,40.009 C26.655,39.379 26.745,38.704 26.745,37.984 C26.745,37.354 26.655,36.744 26.475,36.16 C26.295,35.53 25.935,34.945 25.395,34.405 L25.395,34.414 Z" id="Shape"></path>
                <path d="M50.254,22.94 C49.219,22.94 48.342,23.39 47.622,24.29 C46.947,25.144 46.384,26.157 45.934,27.327 C45.5369208,28.4221468 45.2433048,29.552083 45.057,30.702 C44.877,31.782 44.787,32.547 44.787,32.997 C44.787,34.572 44.944,35.854 45.259,36.844 C45.5891651,37.8204424 46.0428448,38.7506539 46.609,39.612 C47.369,38.892 48.069,37.992 48.699,36.912 C49.3713091,35.8350882 49.957146,34.7065498 50.451,33.537 C50.946,32.367 51.328,31.219 51.598,30.094 C51.913,28.924 52.071,27.889 52.071,26.989 L52.071,25.839 C51.351,23.899 50.743,22.932 50.248,22.932 L50.254,22.94 Z M67.264,42.312 C66.184,43.662 64.722,44.922 62.877,46.092 C61.0119928,47.2700728 58.9563944,48.114983 56.802,48.589 L54.44,48.589 C53.63,48.589 52.752,48.519 51.807,48.381 C50.8604435,48.2005946 49.9334876,47.9293394 49.039,47.571 C47.599,46.581 46.581,45.883 45.999,45.478 C45.411,45.028 45.009,44.738 44.781,44.601 C44.63127,44.4565671 44.495656,44.2981834 44.376,44.128 C44.331,43.995 44.083,43.703 43.633,43.253 C42.463,42.083 41.675,40.733 41.27,39.203 C40.82,37.673 40.596,36.03 40.596,34.275 C40.596,32.609 40.82,30.877 41.27,29.077 C41.72,27.229 42.373,25.541 43.228,24.011 C44.038,22.481 45.028,21.221 46.198,20.231 C47.414,19.195 48.764,18.678 50.248,18.678 C50.698,18.678 51.284,18.882 52.004,19.288 C52.768,19.648 53.488,20.211 54.164,20.978 C54.884,21.698 55.491,22.618 55.986,23.743 C56.526,24.867 56.796,26.173 56.796,27.657 C56.526,30.087 55.781,32.607 54.566,35.217 C53.351,37.827 51.709,40.504 49.639,43.249 C50.223,43.519 50.943,43.789 51.799,44.059 C52.6574419,44.2845119 53.541432,44.3981197 54.429,44.397 L56.799,44.397 C58.149,43.993 59.139,43.657 59.769,43.387 C60.444,43.071 60.984,42.733 61.389,42.373 C61.839,42.013 62.244,41.585 62.604,41.09 C63.009,40.595 63.616,39.92 64.426,39.065 C64.83,38.525 65.37,38.255 66.046,38.255 C66.586,38.255 67.08,38.435 67.53,38.795 C67.98,39.11 68.21,39.582 68.21,40.212 C68.21,40.842 67.894,41.539 67.264,42.304 L67.264,42.312 Z" id="Shape"></path>
                <path d="M67.954,16.46 C67.639,16.46 67.324,16.437 67.009,16.392 C66.6740293,16.2908507 66.3708913,16.1048342 66.129,15.852 C65.859,15.537 65.659,15.087 65.519,14.502 C65.339,13.917 65.249,13.084 65.249,12.004 C65.563,10.564 66.239,9.417 67.273,8.562 C68.307,7.707 69.453,7.279 70.713,7.279 C71.209,7.319 71.593,7.499 71.863,7.819 C72.177,8.089 72.423,8.449 72.603,8.899 C72.783,9.349 72.897,9.819 72.943,10.311 C72.987,10.761 73.009,11.166 73.009,11.526 C73.009,12.156 72.919,12.763 72.739,13.348 C72.6072306,13.9264821 72.328211,14.4610976 71.929,14.9 C71.569,15.35 71.053,15.732 70.379,16.047 C69.749,16.317 68.939,16.451 67.949,16.451 L67.954,16.46 Z M64.106,34.01 C63.926,33.2 63.791,32.48 63.701,31.85 C63.5756788,31.2958426 63.5086477,30.7300997 63.501,30.162 C63.501,29.307 63.751,28.699 64.241,28.339 C64.741,27.929 65.681,27.729 67.081,27.729 C67.801,27.729 68.365,28.243 68.771,29.279 C69.175,30.269 69.535,31.529 69.851,33.059 C70.165,34.589 70.481,36.231 70.795,37.989 C71.0881956,39.6501586 71.471089,41.2942301 71.942,42.914 C72.437,44.444 73.045,45.726 73.765,46.761 C74.485,47.751 75.45,48.246 76.665,48.246 C77.745,48.246 78.645,48.02 79.365,47.57 C80.1040601,47.1432785 80.7474022,46.5690361 81.255,45.883 C81.795,45.207 82.245,44.465 82.605,43.655 C82.965,42.845 83.305,42.1 83.618,41.425 C83.978,40.75 84.36,40.188 84.765,39.738 C85.171,39.288 85.689,39.063 86.319,39.063 C86.904,39.647 87.241,40.143 87.331,40.547 C87.421,40.951 87.465,41.447 87.465,42.031 C87.195,43.381 86.745,44.686 86.115,45.946 C85.548149,47.1359383 84.7976428,48.2293015 83.891,49.186 C82.991,50.086 81.931,50.828 80.716,51.413 C79.502,51.953 78.152,52.223 76.666,52.223 C75.452,52.223 74.26,52.067 73.09,51.753 C71.963,51.393 70.95,50.763 70.05,49.863 C69.15,48.783 68.34,47.363 67.62,45.609 C66.9660492,43.8703691 66.3581703,42.114756 65.797,40.344 C65.1484962,38.2529456 64.5847035,36.1365545 64.107,34 L64.106,34.01 Z" id="Shape"></path>
                <path d="M146.19,38.06 C146.776,37.564 147.203,37.317 147.473,37.317 C147.833,37.317 148.058,37.542 148.148,37.992 C148.283,38.397 148.351,38.914 148.351,39.544 C148.351,41.749 148.019,43.639 147.341,45.214 C146.669,46.789 145.881,48.072 144.981,49.062 C144.127,50.052 143.227,50.772 142.281,51.222 C141.381,51.672 140.707,51.897 140.257,51.897 C138.233,51.897 136.545,51.492 135.195,50.682 C133.895087,49.8305718 132.734701,48.7831883 131.755,47.577 C130.758505,46.3078749 129.877023,44.9525206 129.121,43.527 C128.404682,42.1229563 127.592771,40.7697718 126.691,39.477 C125.881,38.217 124.935,37.182 123.855,36.372 C122.775,35.517 121.425,35.089 119.805,35.089 C118.591,35.089 117.645,35.489 116.971,36.299 C116.295,37.063 115.711,38.031 115.215,39.201 C114.730483,40.4339449 114.324995,41.6965012 114.001,42.981 C113.686,44.331 113.281,45.591 112.786,46.761 C112.336,47.886 111.73,48.853 110.966,49.663 C110.2,50.427 109.166,50.81 107.86,50.81 C107.23,50.81 106.665,50.563 106.17,50.068 C105.72,49.528 105.495,48.943 105.495,48.313 L106.105,40.55 C106.105,36.95 105.675,34.362 104.821,32.787 C103.967,31.167 102.797,30.357 101.311,30.357 C100.907,30.357 100.165,30.83 99.085,31.777 C97.8290041,32.8809898 96.5911715,34.0054739 95.372,35.15 C93.9435905,36.4876233 92.52687,37.8376746 91.122,39.2 C89.728,40.55 88.492,41.63 87.412,42.44 C87.275,42.53 87.118,42.62 86.938,42.71 C86.578,42.89 86.218,42.98 85.858,42.98 C85.498,42.98 85.048,42.777 84.508,42.372 C83.968,41.966 83.698,41.382 83.698,40.616 C83.698,40.166 83.834,39.76 84.104,39.4 C84.2383055,39.2205854 84.3975854,39.0613055 84.577,38.927 C85.161,38.523 85.927,37.915 86.871,37.105 C87.861,36.295 88.918,35.415 90.043,34.47 C91.169,33.525 92.316,32.557 93.486,31.567 C94.656,30.577 95.758,29.677 96.793,28.867 C97.829,28.057 98.751,27.404 99.561,26.909 C100.371,26.369 100.958,26.099 101.318,26.099 C103.118,26.099 104.558,26.413 105.638,27.043 C106.718,27.673 107.551,28.505 108.136,29.54 C108.722,30.53 109.104,31.68 109.284,32.984 C109.509,34.244 109.622,35.551 109.622,36.901 C111.469,34.787 113.269,33.257 115.022,32.311 C116.822,31.367 118.622,30.894 120.422,30.894 C122.852,30.894 124.969,31.434 126.769,32.514 C128.613,33.547 130.323,35.437 131.899,38.184 L135.409,44.73 C136.353,45.674 137.029,46.416 137.433,46.956 C137.883,47.496 138.468,47.766 139.188,47.766 C139.368,47.766 139.75,47.426 140.335,46.752 C141.002207,45.9716372 141.632884,45.160767 142.225,44.322 C142.976249,43.2862873 143.696567,42.2284875 144.385,41.15 C145.03759,40.1416573 145.646487,39.105699 146.21,38.045 L146.19,38.06 Z" id="Shape"></path>
                <path d="M157.75,19.632 L146.41,19.632 C146.5,21.837 146.657,24.064 146.882,26.314 C147.107,28.564 147.422,30.747 147.827,32.862 C148.232,34.932 148.75,36.889 149.38,38.734 C150.055,40.579 150.865,42.199 151.81,43.594 C152.8,44.989 153.97,46.092 155.32,46.902 C156.67,47.667 158.245,48.049 160.045,48.049 C162.205,48.049 163.892,47.599 165.107,46.699 C166.367,45.749 167.38,44.739 168.145,43.659 C168.955,42.531 169.585,41.519 170.035,40.619 C170.53,39.673 171.07,39.201 171.655,39.201 C172.24,39.201 172.69,39.538 173.005,40.213 C173.365,40.843 173.545,41.36 173.545,41.765 C173.275264,43.1129541 172.796843,44.4105631 172.127,45.611 C171.454052,46.8234132 170.587653,47.9178114 169.562,48.851 C168.563475,49.8013465 167.396091,50.5566529 166.12,51.078 C164.86,51.618 163.487,51.888 162.002,51.888 C160.787,51.888 159.392,51.775 157.817,51.55 C156.242,51.28 154.667,50.83 153.092,50.2 C151.517,49.57 150.167,48.58 149.042,47.23 C147.917,45.834 146.95,43.944 146.14,41.56 C145.33,39.13 144.655,36.137 144.115,32.582 C143.53,28.982 142.99,24.639 142.495,19.554 C141.73,19.554 140.987,19.531 140.267,19.486 C139.630718,19.4108977 138.999564,19.2973568 138.377,19.146 C137.837,18.966 137.41,18.718 137.095,18.403 C136.74071,18.1007907 136.542194,17.6544974 136.555,17.189 C136.915,16.289 137.342,15.772 137.837,15.637 C138.287,15.457 138.67,15.367 138.985,15.367 C139.03,15.412 139.21,15.435 139.525,15.435 C140.02,15.435 140.47,15.391 140.875,15.301 C141.28,15.211 141.685,15.166 142.09,15.166 L141.415,7.676 C141.235,6.866 141.1,6.146 141.01,5.516 C140.883531,4.96129641 140.815493,4.39487468 140.807,3.826 C140.807,2.972 141.055,2.366 141.55,2.006 C142.045,1.599 142.99,1.396 144.385,1.396 C144.745,1.396 145.037,1.713 145.262,2.343 C145.442,2.927 145.6,3.759 145.735,4.839 C145.87,5.919 145.96,7.201 146.005,8.686 C146.05,10.172 146.117,11.769 146.207,13.479 L146.275,15.369 L162.61,15.369 C162.88,15.639 163.105,15.909 163.285,16.179 C163.465,16.403 163.622,16.673 163.757,16.989 C163.892,17.259 163.96,17.551 163.96,17.866 C163.96,18.36 163.667,18.81 163.082,19.216 C162.542,19.576 161.485,19.756 159.91,19.756 L158.965,19.756 C158.65,19.71 158.245,19.666 157.75,19.62 L157.75,19.632 Z" id="Shape"></path>
                <path d="M173.423,16.46 C173.108,16.46 172.793,16.437 172.478,16.392 C172.143748,16.2905389 171.841332,16.1045429 171.6,15.852 C171.33,15.537 171.128,15.087 170.993,14.502 C170.813,13.917 170.723,13.084 170.723,12.004 C171.038,10.564 171.713,9.417 172.748,8.562 C173.783,7.707 174.93,7.279 176.19,7.279 C176.685,7.319 177.068,7.499 177.338,7.819 C177.653,8.089 177.9,8.449 178.08,8.899 C178.26,9.349 178.373,9.819 178.418,10.311 C178.463,10.761 178.485,11.166 178.485,11.526 C178.485,12.156 178.395,12.763 178.215,13.348 C178.083231,13.9264821 177.804211,14.4610976 177.405,14.9 C177.045,15.35 176.528,15.732 175.853,16.047 C175.223,16.317 174.413,16.451 173.423,16.451 L173.423,16.46 Z M169.575,34.01 C169.395,33.2 169.26,32.48 169.17,31.85 C169.044006,31.2959137 168.976304,30.73017 168.968,30.162 C168.968,29.307 169.215,28.699 169.71,28.339 C170.205,27.929 171.15,27.729 172.545,27.729 C173.265,27.729 173.828,28.243 174.233,29.279 C174.638,30.269 174.998,31.529 175.313,33.059 C175.628,34.589 175.943,36.231 176.258,37.989 C176.551196,39.6501586 176.934089,41.2942301 177.405,42.914 C177.9,44.444 178.508,45.726 179.228,46.761 C179.948,47.751 180.915,48.246 182.13,48.246 C183.21,48.246 184.11,48.02 184.83,47.57 C185.56906,47.1432785 186.212402,46.5690361 186.72,45.883 C187.26,45.207 187.71,44.465 188.07,43.655 C188.43,42.845 188.768,42.1 189.083,41.425 C189.443,40.75 189.825,40.188 190.23,39.738 C190.635,39.288 191.153,39.063 191.783,39.063 C192.368,39.647 192.705,40.143 192.795,40.547 C192.885,40.951 192.93,41.447 192.93,42.031 C192.66,43.381 192.21,44.686 191.58,45.946 C191.012234,47.1361408 190.260707,48.2295158 189.353,49.186 C188.453,50.086 187.395,50.828 186.18,51.413 C184.965,51.953 183.615,52.223 182.13,52.223 C180.915,52.223 179.723,52.067 178.553,51.753 C177.428,51.393 176.415,50.763 175.515,49.863 C174.615,48.783 173.805,47.363 173.085,45.609 C172.431385,43.8703593 171.82384,42.1147463 171.263,40.344 C170.615169,38.2529167 170.052044,36.1365259 169.575,34 L169.575,34.01 Z" id="Shape"></path>
                <path d="M223.444,39.072 C223.714,38.982 223.917,38.937 224.052,38.937 C224.502,38.937 224.862,39.162 225.132,39.612 C225.447,40.017 225.604,40.467 225.604,40.962 C225.604,41.682 225.154,42.289 224.254,42.784 C223.354,43.234 222.342,43.617 221.217,43.932 C220.171878,44.1951437 219.112453,44.3978133 218.044,44.539 C217.054,44.669 216.447,44.739 216.222,44.739 C215.547,44.739 214.782,44.669 213.927,44.533 C213.832647,44.7254081 213.764378,44.9295412 213.724,45.14 C213.679,45.32 213.612,45.523 213.522,45.748 C212.352,48.808 210.867,51.038 209.067,52.431 C207.312,53.871 205.219,54.591 202.789,54.591 C201.709,54.591 200.539,54.434 199.279,54.119 C197.971788,53.8227776 196.685638,53.4402733 195.429,52.974 C193.089,52.074 191.421,50.724 190.431,48.924 C189.446176,47.0996787 188.935542,45.0571417 188.946,42.984 C188.946,40.779 189.283,38.776 189.958,36.976 C190.588,35.176 191.442,33.668 192.522,32.453 C193.602,31.193 194.816,30.225 196.166,29.55 C197.561,28.877 198.979,28.54 200.419,28.54 C201.185,28.54 202.039,28.63 202.985,28.81 C203.929,28.945 204.829,29.17 205.685,29.485 C206.539,29.8 207.259,30.16 207.845,30.565 C208.475,30.97 208.835,31.42 208.925,31.915 C210.725,32.815 212.029,34.097 212.839,35.762 C213.694,37.429 214.166,39.162 214.256,40.962 C214.571,41.007 214.841,41.029 215.066,41.029 L215.809,41.029 C216.352042,41.0315899 216.89422,40.9854044 217.429,40.891 C217.949836,40.7958405 218.467443,40.6837814 218.981,40.555 C219.565,40.375 220.195,40.172 220.871,39.947 C221.718333,39.6327181 222.573257,39.3392963 223.435,39.067 L223.444,39.072 Z M193.609,38.532 C193.019,40.017 192.729,41.457 192.729,42.852 C192.729,44.427 193.089,45.709 193.809,46.699 C194.550398,47.6695399 195.465996,48.4935779 196.509,49.129 C197.589,49.709 198.689,50.119 199.813,50.339 C200.983,50.563 201.973,50.679 202.783,50.679 C204.313,50.679 205.617,50.204 206.697,49.259 C207.777,48.314 208.767,46.694 209.667,44.399 C209.757,44.129 209.802,43.882 209.802,43.659 C208.765637,43.3699867 207.730298,43.0773182 206.696,42.781 C205.436,42.421 204.199,41.971 202.986,41.431 C201.769,40.846 200.711,40.149 199.811,39.339 C198.955,38.529 198.528,37.586 198.528,36.506 C198.528,35.921 198.638,35.426 198.864,35.021 C199.102472,34.5961622 199.37327,34.1902983 199.674,33.807 C199.134,34.077 198.594,34.257 198.054,34.347 C197.520999,34.4476129 197.000346,34.6051833 196.501,34.817 C196.006,35.041 195.511,35.424 195.016,35.964 C194.521,36.504 194.048,37.359 193.598,38.529 L193.609,38.532 Z M206.631,34.819 C206.072068,34.5980825 205.476995,34.4827978 204.876,34.479 C204.156,34.479 203.571,34.633 203.121,34.949 C202.716,35.219 202.446,35.533 202.311,35.893 L202.311,36.095 C202.311,36.499 202.648,36.925 203.323,37.375 C204.078617,37.8203155 204.868438,38.20486 205.685,38.525 C206.585,38.885 207.485,39.199 208.385,39.469 C209.329,39.695 210.071,39.875 210.611,40.009 C210.383364,38.9233451 209.94768,37.8920335 209.328,36.972 C208.698,35.982 207.798,35.262 206.628,34.812 L206.631,34.819 Z" id="Shape"></path>
                <path d="M253.102,41.434 C251.373996,44.1064597 249.124009,46.4023646 246.487,48.184 C243.877,49.984 240.952,50.884 237.712,50.884 C235.822,50.884 233.91,50.547 231.975,49.872 C229.95,49.377 228.127,48.567 226.507,47.442 C225.775213,46.9480224 225.076398,46.4068755 224.415,45.822 C223.723962,45.1270995 223.112521,44.3573485 222.592,43.527 C222.052,42.627 221.602,41.637 221.242,40.557 C220.837,39.432 220.612,38.194 220.567,36.844 C220.747,35.584 220.927,34.257 221.107,32.862 C221.242,31.422 221.49,30.027 221.85,28.677 C222.159454,27.2968953 222.635266,25.9594498 223.267,24.694 C223.847613,23.440205 224.673925,22.3156718 225.697,21.387 C226.732,20.397 228.015,19.632 229.545,19.092 C231.12,18.507 233.055,18.214 235.35,18.214 C236.565,18.214 237.712,18.462 238.792,18.957 C239.871204,19.4512841 240.836443,20.1635524 241.627,21.049 C242.437,21.949 243.09,23.029 243.585,24.289 C244.08,25.549 244.327,26.939 244.327,28.469 C244.327,29.053 244.305,29.729 244.26,30.493 C244.220717,31.2276944 244.084539,31.9539786 243.855,32.653 C243.647929,33.2997303 243.275663,33.881224 242.775,34.34 C242.28,34.79 241.582,35.016 240.682,35.016 C240.367,35.016 240.097,34.902 239.872,34.676 C239.692,34.406 239.512,34.116 239.332,33.8 C239.133214,33.3890907 238.975127,32.9597102 238.86,32.518 C238.86,32.383 238.927,32.158 239.062,31.843 C239.197,31.483 239.332,31.1 239.467,30.695 C239.647,30.289 239.805,29.885 239.94,29.479 C240.075,29.073 240.142,28.735 240.142,28.465 C240.142,27.565 240.007,26.755 239.737,26.035 C239.467,25.27 239.107,24.618 238.657,24.078 C238.237423,23.5616402 237.706974,23.1463721 237.105,22.863 C236.52,22.547 235.935,22.389 235.35,22.389 C234.9,22.389 234.135,22.592 233.055,22.997 C231.975,23.401 230.85,24.121 229.68,25.157 C228.555,26.191 227.542,27.587 226.642,29.341 C225.787,31.096 225.36,33.346 225.36,36.091 C225.36,39.331 226.327,41.671 228.262,43.111 C230.197,44.506 232.942,45.406 236.497,45.811 C239.467,45.811 241.987,45.248 244.057,44.123 C246.143241,43.022728 247.963473,41.4793026 249.39,39.601 C249.93,38.926 250.582,38.588 251.347,38.588 C251.887,38.588 252.36,38.768 252.765,39.128 C253.215,39.442 253.44,39.848 253.44,40.342 C253.44,40.746 253.327,41.106 253.102,41.422 L253.102,41.434 Z" id="Shape"></path>
                <path d="M250.345,43.19 C250.256248,41.7283979 250.188908,40.2655744 250.143,38.802 C250.097498,37.2947632 250.074828,35.7869235 250.075,34.279 C250.075,31.259 250.21,28.159 250.48,24.959 C250.75,21.763 251.245,18.279 251.965,14.499 C252.1,13.239 252.235,12.022 252.37,10.852 C252.499354,9.67047737 252.702417,8.49819286 252.978,7.342 C253.244797,6.18098721 253.629112,5.0501558 254.125,3.967 C254.665,2.843 255.408,1.717 256.353,0.593 C257.073,0.278 257.68,0.12 258.175,0.12 C258.67,0.12 259.12,0.28 259.525,0.594 C261.685,3.024 263.238,5.566 264.183,8.221 C265.122148,10.8424509 265.601526,13.6063993 265.6,16.391 C265.6,18.777 265.308,21.141 264.723,23.481 C264.162757,25.8830515 263.39487,28.2318841 262.428,30.501 C261.407127,32.856273 260.257731,35.1537294 258.985,37.383 C257.68,39.633 256.285,41.883 254.8,44.133 C254.89,45.438 254.98,46.428 255.07,47.103 C255.16,47.778 255.228,48.408 255.273,48.993 C255.363,49.578 255.43,50.276 255.475,51.086 C255.565,51.851 255.633,53.043 255.678,54.663 C256.758,53.988 257.635,53.066 258.31,51.896 C259.038392,50.6653393 259.714005,49.4041951 260.335,48.116 C260.997096,46.7883422 261.741202,45.50319 262.563,44.268 C263.373,43.008 264.453,41.97 265.803,41.16 L268.638,39.675 C269.628,39.135 270.618,38.865 271.608,38.865 C272.643,38.865 273.453,39.135 274.038,39.675 C274.623,40.168 275.073,40.798 275.388,41.565 C275.748,42.285 276.04,43.071 276.265,43.925 C276.467635,44.7217932 276.762283,45.4923062 277.143,46.221 C277.458,46.627 277.75,47.077 278.02,47.571 C278.335,48.021 278.65,48.427 278.965,48.787 C279.325,49.147 279.708,49.462 280.113,49.732 C280.518,49.958 280.968,50.07 281.463,50.07 C283.443,50.07 285.153,49.732 286.593,49.057 C288.040943,48.4060114 289.383176,47.5417508 290.575,46.493 C291.822879,45.3796662 292.995458,44.1847045 294.085,42.916 C295.24985,41.5216938 296.465674,40.1707775 297.73,38.866 C298.09,38.506 298.518,38.326 299.013,38.326 C299.643,38.326 300.205,38.573 300.7,39.068 C301.195,39.563 301.443,40.125 301.443,40.755 C301.443,41.249 301.263,41.677 300.903,42.037 C299.463351,43.4330654 298.06767,44.8737682 296.718,46.357 C295.345623,47.8640094 293.880079,49.2834623 292.33,50.607 C290.847569,51.8803321 289.215549,52.968345 287.47,53.847 C285.76,54.702 283.893,55.13 281.868,55.13 C280.933798,55.1323328 280.011031,54.9245394 279.168,54.522 C278.300586,54.1086816 277.503257,53.562058 276.805,52.902 C276.106372,52.245064 275.473384,51.5216493 274.915,50.742 C274.338284,49.9003695 273.819743,49.0203203 273.363,48.108 C273.059132,47.6847096 272.851609,47.2000322 272.755,46.688 C272.715882,46.1895698 272.64844,45.6937688 272.553,45.203 C272.508,44.753 272.373,44.371 272.148,44.056 C271.968,43.74 271.585,43.582 271,43.582 C269.605,43.582 268.413,43.985 267.423,44.795 C266.433,45.605 265.555,46.64 264.79,47.9 C263.988732,49.1816131 263.26736,50.5114765 262.63,51.882 C261.983116,53.2257008 261.262003,54.5323852 260.47,55.796 C259.705,57.056 258.828,58.091 257.838,58.901 C256.893,59.711 255.723,60.114 254.328,60.114 L253.788,60.114 C253.293,60.249 252.91,60.316 252.64,60.316 C251.74,60.316 251.29,59.616 251.29,58.222 C251.29,55.252 251.245,52.462 251.155,49.852 C251.02,47.242 250.885,44.722 250.75,42.292 L250.345,43.17 L250.345,43.19 Z M258.04,5.86 C257.59,6.58 257.23,7.322 256.96,8.087 C256.72752,8.83835498 256.547093,9.60483722 256.42,10.381 C256.276545,11.2098416 256.164133,12.0437575 256.083,12.881 C255.993,13.739 255.88,14.681 255.745,15.719 C255.205,18.869 254.823,21.794 254.598,24.494 C254.375959,27.1205128 254.263195,29.7551204 254.26,32.391 L254.26,34.821 L254.395,37.114 C256.42,33.74 258.108,30.344 259.458,26.924 C260.808,23.504 261.483,20.128 261.483,16.798 C261.483,14.863 261.213,12.995 260.673,11.195 C260.133,9.351 259.255,7.575 258.04,5.865 L258.04,5.86 Z" id="Shape"></path>
                <path d="M331.286,39.072 C331.556,38.982 331.759,38.937 331.894,38.937 C332.344,38.937 332.704,39.162 332.974,39.612 C333.289,40.017 333.446,40.467 333.446,40.962 C333.446,41.682 332.996,42.289 332.096,42.784 C331.196,43.234 330.184,43.617 329.059,43.932 C327.979,44.202 326.919,44.404 325.879,44.539 C324.889,44.669 324.283,44.739 324.059,44.739 C323.384,44.739 322.619,44.669 321.764,44.533 C321.669302,44.7253582 321.600697,44.9294931 321.56,45.14 C321.516,45.32 321.45,45.523 321.36,45.748 C320.19,48.808 318.705,51.038 316.905,52.431 C315.149,53.871 313.055,54.591 310.625,54.591 C309.545,54.591 308.375,54.434 307.115,54.119 C305.809142,53.8226072 304.524333,53.4401045 303.269,52.974 C300.929,52.074 299.264,50.724 298.274,48.924 C297.288829,47.0997701 296.777849,45.057228 296.788,42.984 C296.788,40.779 297.124,38.776 297.798,36.976 C298.428,35.176 299.284,33.668 300.364,32.453 C301.444,31.193 302.66,30.225 304.01,29.55 C305.405,28.877 306.823,28.54 308.263,28.54 C309.027,28.54 309.883,28.63 310.827,28.81 C311.771,28.945 312.671,29.17 313.527,29.485 C314.381,29.8 315.101,30.16 315.687,30.565 C316.317,30.97 316.677,31.42 316.767,31.915 C318.567,32.815 319.871,34.097 320.681,35.762 C321.535,37.429 322.007,39.162 322.097,40.962 C322.417,41.007 322.687,41.029 322.907,41.029 L323.654,41.029 C324.197042,41.0315899 324.73922,40.9854044 325.274,40.891 C325.794166,40.7957981 326.311104,40.6837391 326.824,40.555 C327.41,40.375 328.04,40.172 328.714,39.947 C329.561884,39.6323791 330.417484,39.3389545 331.28,39.067 L331.286,39.072 Z M301.451,38.532 C300.871,40.017 300.581,41.457 300.581,42.852 C300.581,44.427 300.941,45.709 301.661,46.699 C302.425,47.689 303.325,48.499 304.361,49.129 C305.441,49.709 306.541,50.119 307.667,50.339 C308.837,50.563 309.827,50.679 310.637,50.679 C312.167,50.679 313.473,50.204 314.553,49.259 C315.633,48.314 316.623,46.694 317.523,44.399 C317.613,44.129 317.658,43.882 317.658,43.659 C316.848,43.434 315.814,43.141 314.554,42.781 C313.294,42.421 312.057,41.971 310.842,41.431 C309.628,40.846 308.57,40.149 307.67,39.339 C306.816,38.529 306.39,37.586 306.39,36.506 C306.39,35.921 306.5,35.426 306.726,35.021 C306.964472,34.5961622 307.23527,34.1902983 307.536,33.807 C306.996,34.077 306.456,34.257 305.916,34.347 C305.384021,34.4478207 304.864384,34.6053878 304.366,34.817 C303.87,35.041 303.376,35.424 302.88,35.964 C302.384,36.504 301.91,37.359 301.46,38.529 L301.451,38.532 Z M314.481,34.819 C313.923634,34.5986888 313.330312,34.4834149 312.731,34.479 C312.011,34.479 311.425,34.633 310.975,34.949 C310.57,35.219 310.3,35.533 310.165,35.893 L310.165,36.095 C310.165,36.499 310.502,36.925 311.175,37.375 C311.931582,37.8204583 312.722411,38.2050053 313.54,38.525 C314.44,38.885 315.34,39.199 316.24,39.469 C317.184,39.695 317.926,39.875 318.466,40.009 C318.239281,38.9235617 317.804621,37.8922638 317.186,36.972 C316.556,35.982 315.656,35.262 314.486,34.812 L314.481,34.819 Z" id="Shape"></path>
                <path d="M360.944,41.434 C359.215996,44.1064597 356.966009,46.4023646 354.329,48.184 C351.719,49.984 348.789,50.884 345.549,50.884 C343.659,50.884 341.745,50.547 339.809,49.872 C337.785,49.377 335.963,48.567 334.343,47.442 C333.667,46.992 332.969,46.452 332.249,45.822 C331.559011,45.1269417 330.948581,44.3571968 330.429,43.527 C329.889,42.627 329.439,41.637 329.079,40.557 C328.674,39.432 328.449,38.194 328.404,36.844 C328.584,35.584 328.764,34.257 328.944,32.862 C329.078,31.422 329.324,30.027 329.684,28.677 C329.994411,27.2967625 330.471232,25.9593123 331.104,24.694 C331.684613,23.440205 332.510925,22.3156718 333.534,21.387 C334.568,20.397 335.85,19.632 337.38,19.092 C338.957,18.507 340.89,18.214 343.187,18.214 C344.375375,18.2082411 345.5507,18.4618029 346.631,18.957 C347.71128,19.4509296 348.677569,20.1632188 349.469,21.049 C350.279,21.949 350.929,23.029 351.425,24.289 C351.92,25.549 352.168,26.939 352.168,28.469 C352.168,29.053 352.144,29.729 352.098,30.493 C352.059041,31.2276493 351.923199,31.9539325 351.694,32.653 C351.486929,33.2997303 351.114663,33.881224 350.614,34.34 C350.12,34.79 349.424,35.016 348.524,35.016 C348.218499,35.0200748 347.925065,34.8969053 347.714,34.676 C347.534,34.406 347.354,34.116 347.174,33.8 C346.974528,33.3891649 346.815771,32.9597823 346.7,32.518 C346.7,32.383 346.77,32.158 346.903,31.843 C347.039,31.483 347.173,31.1 347.309,30.695 C347.489,30.289 347.644,29.885 347.779,29.479 C347.914,29.073 347.982,28.735 347.982,28.465 C347.982,27.565 347.847,26.755 347.577,26.035 C347.307,25.27 346.947,24.618 346.497,24.078 C346.076851,23.5614029 345.545696,23.1461179 344.943,22.863 C344.36,22.547 343.773,22.389 343.19,22.389 C342.74,22.389 341.977,22.592 340.897,22.997 C339.817,23.401 338.692,24.121 337.522,25.157 C336.4,26.191 335.388,27.587 334.488,29.341 C333.634,31.096 333.206,33.346 333.206,36.091 C333.206,39.331 334.176,41.671 336.11,43.111 C338.045,44.506 340.79,45.406 344.345,45.811 C347.315,45.811 349.835,45.248 351.905,44.123 C353.990157,43.0223668 355.809336,41.4789656 357.235,39.601 C357.775,38.926 358.428,38.588 359.195,38.588 C359.735,38.588 360.205,38.768 360.61,39.128 C361.06,39.442 361.285,39.848 361.285,40.342 C361.285,40.746 361.175,41.106 360.949,41.422 L360.944,41.434 Z" id="Shape"></path>
                <path d="M391.667,39.072 C391.937,38.982 392.139,38.937 392.274,38.937 C392.724,38.937 393.084,39.162 393.354,39.612 C393.669,40.017 393.827,40.467 393.827,40.962 C393.827,41.682 393.377,42.289 392.477,42.784 C391.577,43.234 390.564,43.617 389.439,43.932 C388.392233,44.1953322 387.331133,44.3980029 386.261,44.539 C385.271,44.669 384.663,44.739 384.438,44.739 C383.763,44.739 382.998,44.669 382.143,44.533 C382.048647,44.7254081 381.980378,44.9295412 381.94,45.14 C381.885985,45.346972 381.818166,45.5500933 381.737,45.748 C380.567,48.808 379.082,51.038 377.282,52.431 C375.526,53.871 373.434,54.591 371.004,54.591 C369.924,54.591 368.754,54.434 367.494,54.119 C366.186788,53.8227776 364.900638,53.4402733 363.644,52.974 C361.304,52.074 359.64,50.724 358.65,48.924 C357.664829,47.0997701 357.153849,45.057228 357.164,42.984 C357.164,40.779 357.502,38.776 358.177,36.976 C358.807,35.176 359.665,33.668 360.745,32.453 C361.825,31.193 363.04,30.225 364.39,29.55 C365.786,28.877 367.203,28.54 368.643,28.54 C369.407,28.54 370.263,28.63 371.207,28.81 C372.15,28.945 373.05,29.17 373.907,29.485 C374.76,29.8 375.48,30.16 376.067,30.565 C376.697,30.97 377.057,31.42 377.147,31.915 C378.947,32.815 380.25,34.097 381.06,35.762 C381.915,37.429 382.388,39.162 382.478,40.962 C382.798,41.007 383.068,41.029 383.288,41.029 L384.034,41.029 C384.577042,41.0315899 385.11922,40.9854044 385.654,40.891 C386.175172,40.7958617 386.693112,40.6838025 387.207,40.555 C387.839321,40.3596217 388.469363,40.1569415 389.097,39.947 C389.944344,39.6327483 390.799267,39.3393268 391.661,39.067 L391.667,39.072 Z M361.832,38.532 C361.247,40.017 360.954,41.457 360.954,42.852 C360.954,44.427 361.314,45.709 362.034,46.699 C362.799,47.689 363.699,48.499 364.734,49.129 C365.814,49.709 366.917,50.119 368.042,50.339 C369.212,50.563 370.202,50.679 371.012,50.679 C372.542,50.679 373.847,50.204 374.927,49.259 C376.007,48.314 376.997,46.694 377.897,44.399 C377.987,44.129 378.032,43.882 378.032,43.659 C377.222,43.434 376.187,43.141 374.927,42.781 C373.667,42.421 372.429,41.971 371.214,41.431 C369.999,40.846 368.942,40.149 368.042,39.339 C367.187,38.529 366.759,37.586 366.759,36.506 C366.759,35.921 366.869,35.426 367.091,35.021 C367.329472,34.5961622 367.60027,34.1902983 367.901,33.807 C367.361,34.077 366.821,34.257 366.281,34.347 C365.747999,34.4476129 365.227346,34.6051833 364.728,34.817 C364.233,35.041 363.738,35.424 363.243,35.964 C362.747,36.504 362.275,37.359 361.825,38.529 L361.832,38.532 Z M374.859,34.819 C374.298503,34.5974745 373.701678,34.4821788 373.099,34.479 C372.379,34.479 371.793,34.633 371.343,34.949 C370.937,35.219 370.667,35.533 370.533,35.893 L370.533,36.095 C370.533,36.499 370.87,36.925 371.545,37.375 C372.299974,37.8202204 373.089123,38.2047632 373.905,38.525 C374.805,38.885 375.705,39.199 376.605,39.469 C377.551,39.695 378.295,39.875 378.835,40.009 C378.607058,38.9232729 378.171033,37.8919567 377.551,36.972 C376.921,35.982 376.021,35.262 374.851,34.812 L374.859,34.819 Z" id="Shape"></path>
                <path d="M481.737,42.042 C480.873636,42.3746975 479.995367,42.6673426 479.105,42.919 C478.227994,43.1773067 477.319227,43.3119388 476.405,43.319 C474.65,43.319 472.782,42.849 470.802,41.901 C468.822,40.956 466.91,39.426 465.065,37.311 L457.302,28.941 C455.502,26.781 453.995,25.251 452.78,24.351 C451.61,23.451 450.71,23.001 450.08,23.001 C448.685,24.306 447.447,26.016 446.367,28.131 C445.293988,30.2929096 444.369514,32.5254123 443.6,34.813 C442.786858,37.2083511 442.088398,39.6411138 441.507,42.103 C440.967,44.533 440.45,46.737 439.955,48.717 C439.505,50.697 439.077,52.297 438.672,53.51 C438.267,54.77 437.862,55.4 437.457,55.4 C437.187,55.4 436.782,54.77 436.242,53.51 C435.624159,51.9702418 435.039028,50.4175597 434.487,48.853 C433.744088,46.7297438 432.979046,44.6142953 432.192,42.507 C431.404076,40.2231523 430.526056,37.9713895 429.56,35.757 C428.66,33.552 427.692,31.572 426.657,29.817 C425.667,28.017 424.677,26.737 423.687,25.97 C423.507,26.285 423.012,27.14 422.202,28.535 L419.3,33.53 C418.131914,35.5693772 416.93916,37.5945258 415.722,39.605 C414.4964,41.5982654 413.213533,43.5557468 411.875,45.475 C410.66,47.275 409.557,48.785 408.567,49.999 C407.577,51.169 406.835,51.753 406.34,51.753 C405.44,51.753 404.9,51.483 404.72,50.943 C404.585,50.357 404.517,49.637 404.517,48.783 C405.057,46.037 405.552,43.473 406.002,41.087 C406.182,40.097 406.362,39.084 406.542,38.049 C406.722,36.969 406.88,35.979 407.015,35.079 C407.195,34.133 407.33,33.279 407.42,32.513 C407.51,31.748 407.555,31.141 407.555,30.691 C407.555,29.656 407.51,28.801 407.42,28.126 C407.33,27.406 407.15,26.796 406.88,26.302 C406.655,25.807 406.34,25.402 405.935,25.087 C405.575,24.772 405.102,24.457 404.517,24.142 L396.755,36.156 C396.575,36.426 396.35,36.896 396.08,37.572 C395.81,38.202 395.54,38.855 395.27,39.53 C395.013669,40.1328071 394.720447,40.7192511 394.392,41.286 C394.122,41.779 393.875,42.026 393.65,42.026 C393.605,42.026 393.56,42.004 393.515,41.959 C392.84,42.633 392.232,42.971 391.692,42.971 C391.242,42.971 390.882,42.813 390.612,42.498 C390.308183,42.1549458 390.058019,41.767899 389.87,41.35 C389.679608,40.8200977 389.52165,40.2790973 389.397,39.73 C389.442,39.64 389.667,39.302 390.072,38.717 C390.432,38.087 390.837,37.411 391.287,36.691 C391.737,35.971 392.142,35.316 392.502,34.731 C392.907,34.146 393.132,33.831 393.177,33.786 L402.155,20.621 C402.155,20.261 402.38,20.061 402.83,20.014 C403.28,19.968 403.662,19.944 403.977,19.944 C406.992,20.574 409.13,21.857 410.39,23.792 C411.695,25.682 412.347,27.978 412.347,30.678 C412.347,31.578 412.235,32.77 412.01,34.255 C411.786627,35.6851028 411.493612,37.1034557 411.132,38.505 C413.022,35.535 414.575,32.925 415.79,30.675 C416.836584,28.8016007 417.893935,26.9342364 418.962,25.073 C419.862,23.586 420.605,22.483 421.19,21.763 C421.82,20.999 422.472,20.616 423.147,20.616 C424.497,20.616 425.847,21.292 427.197,22.642 C428.592,23.947 429.897,25.635 431.112,27.705 C432.372,29.729 433.497,31.979 434.487,34.455 C435.477,36.885 436.287,39.225 436.917,41.475 L439.28,34.319 C440.315,31.169 441.192,28.649 441.912,26.759 C442.677,24.823 443.397,23.315 444.072,22.235 C444.792,21.155 445.512,20.39 446.232,19.94 C446.997,19.443 447.897,19.06 448.932,18.79 C450.327,19.105 451.475,19.44 452.375,19.8 C453.32,20.16 454.175,20.61 454.94,21.15 C455.755729,21.6880285 456.503478,22.3226252 457.167,23.04 C458.02567,23.9624497 458.858655,24.9084783 459.665,25.877 C460.800391,27.1696381 461.947774,28.4516935 463.107,29.723 C464.457,31.208 466.122,32.94 468.102,34.92 C469.587,36.09 470.96,37.08 472.22,37.89 C473.525,38.7 474.92,39.106 476.405,39.106 C477.62,39.106 478.835,38.679 480.05,37.824 C480.725,38.004 481.31,38.184 481.805,38.364 C482.255,38.544 482.66,38.769 483.02,39.039 C483.38,39.309 483.56,39.624 483.56,39.984 C483.56,40.299 483.425,40.614 483.155,40.929 C482.885,41.244 482.412,41.604 481.737,42.009 L481.737,42.042 Z" id="Shape"></path>
                <path d="M517.81,42.312 C517.81,42.717 517.562,43.324 517.067,44.134 C516.532945,44.9964388 515.923207,45.8096456 515.245,46.564 C514.525,47.374 513.782,48.072 513.017,48.657 C512.252,49.242 511.6,49.534 511.06,49.534 C509.665,49.534 508.427,49.129 507.347,48.319 C506.234502,47.4279724 505.25701,46.3804183 504.445,45.209 C503.61869,43.9184447 502.89641,42.5641686 502.285,41.159 C501.712729,39.8130232 501.150048,38.462989 500.597,37.109 C500.229874,36.0592476 499.824605,35.0232264 499.382,34.003 C499.067,33.147 498.752,32.72 498.437,32.72 L499.045,37.513 C499.045,41.473 498.415,44.487 497.155,46.557 C495.94,48.627 493.982,49.82 491.282,50.137 C489.752,50.137 488.11,49.572 486.355,48.447 C484.6,47.322 482.845,45.68 481.09,43.52 C480.235,42.71 479.537,41.9 478.997,41.09 C478.457,40.28 478.03,39.426 477.715,38.526 C477.391595,37.5869171 477.187332,36.6109567 477.107,35.621 C476.965817,34.4798653 476.898344,33.330816 476.905,32.181 C476.905,30.245 477.332,28.491 478.187,26.915 C478.997,25.34 479.987,23.99 481.157,22.865 C482.372,21.74 483.632,20.862 484.937,20.232 C486.242,19.557 487.345,19.152 488.245,19.017 L488.717,19.017 C489.077,19.017 489.595,19.084 490.27,19.219 C490.99,19.309 491.8,19.579 492.7,20.029 C493.645,20.479 494.68,21.154 495.805,22.054 C496.93,22.954 498.077,24.17 499.247,25.7 C500.417,27.23 501.61,29.165 502.825,31.505 C504.04,33.801 505.187,36.591 506.267,39.875 C506.897,41.721 507.527,43.093 508.157,43.993 C508.787,44.893 509.53,45.343 510.385,45.343 C510.7,45.343 511.082,45.073 511.532,44.533 C512.050898,43.9154476 512.524784,43.2614325 512.95,42.576 C513.42144,41.8923981 513.871655,41.1943987 514.3,40.483 C514.705,39.763 515.02,39.267 515.245,38.997 C515.695,38.593 516.19,38.391 516.73,38.391 C517.315,38.391 517.765,38.616 518.08,39.066 C518.651861,39.7688212 518.781998,40.7326879 518.417,41.562 C518.327,41.832 518.125,42.077 517.81,42.302 L517.81,42.312 Z M493.712,44.134 C494.072,42.919 494.342,41.839 494.522,40.894 C494.747,39.949 494.86,38.824 494.86,37.519 C494.86,35.759 494.77,34.029 494.59,32.319 C494.421344,30.5980011 493.867674,28.9369928 492.97,27.459 C492.654958,26.8741249 492.269417,26.3300686 491.822,25.839 C491.431979,25.409837 490.97631,25.0453016 490.472,24.759 C489.9297,24.3972964 489.300765,24.1867307 488.65,24.149 C487.593932,24.2915506 486.58096,24.6599042 485.68,25.229 C484.783704,25.7654076 483.984738,26.4497529 483.317,27.253 C482.642,28.063 482.102,28.963 481.697,29.953 C481.292,30.897 481.09,31.82 481.09,32.72 C481.09,34.7 481.54,36.5 482.44,38.12 C483.34,39.74 484.352,41.136 485.477,42.306 C486.647,43.43 487.795,44.33 488.92,45.006 C490.045,45.636 490.832,45.95 491.282,45.95 C491.867,45.95 492.317,45.816 492.632,45.546 C492.992,45.23 493.352,44.756 493.712,44.126 L493.712,44.134 Z" id="Shape"></path>
                <path d="M546.042,41.434 C544.313996,44.1064597 542.064009,46.4023646 539.427,48.184 C536.817,49.984 533.892,50.884 530.652,50.884 C528.762,50.884 526.849,50.547 524.914,49.872 C522.889,49.377 521.067,48.567 519.447,47.442 C518.772,46.992 518.074,46.452 517.354,45.822 C516.663311,45.1270469 516.052208,44.3572979 515.532,43.527 C514.992,42.627 514.542,41.637 514.182,40.557 C513.777,39.432 513.552,38.194 513.507,36.844 C513.687,35.584 513.867,34.257 514.047,32.862 C514.182,31.422 514.429,30.027 514.789,28.677 C515.096859,27.2971165 515.57099,25.9596788 516.201,24.694 C516.781613,23.440205 517.607925,22.3156718 518.631,21.387 C519.666,20.397 520.948,19.632 522.478,19.092 C524.053,18.507 525.988,18.214 528.283,18.214 C529.497,18.214 530.645,18.462 531.725,18.957 C532.803845,19.4514022 533.768734,20.1636635 534.559,21.049 C535.369,21.949 536.022,23.029 536.517,24.289 C537.011,25.549 537.259,26.939 537.259,28.469 C537.259,29.053 537.236,29.729 537.191,30.493 C537.151393,31.2277394 537.014879,31.9540247 536.785,32.653 C536.577929,33.2997303 536.205663,33.881224 535.705,34.34 C535.21,34.79 534.515,35.016 533.615,35.016 C533.309499,35.0200748 533.016065,34.8969053 532.805,34.676 C532.625,34.406 532.445,34.116 532.265,33.8 C532.065185,33.389202 531.906092,32.9598184 531.79,32.518 C531.79,32.383 531.858,32.158 531.993,31.843 C532.128,31.483 532.263,31.1 532.398,30.695 C532.578,30.289 532.735,29.885 532.87,29.479 C533.004,29.073 533.072,28.735 533.072,28.465 C533.072,27.565 532.937,26.755 532.667,26.035 C532.397,25.27 532.037,24.618 531.587,24.078 C531.167137,23.5615216 530.636335,23.146245 530.034,22.863 C529.447,22.547 528.864,22.389 528.277,22.389 C527.827,22.389 527.062,22.592 525.982,22.997 C524.902,23.401 523.777,24.121 522.607,25.157 C521.481,26.191 520.469,27.587 519.569,29.341 C518.713,31.096 518.285,33.346 518.285,36.091 C518.285,39.331 519.251,41.671 521.185,43.111 C523.121,44.506 525.865,45.406 529.421,45.811 C532.391,45.811 534.911,45.248 536.981,44.123 C539.066157,43.0223668 540.885336,41.4789656 542.311,39.601 C542.851,38.926 543.504,38.588 544.269,38.588 C544.809,38.588 545.281,38.768 545.686,39.128 C546.136,39.442 546.362,39.848 546.362,40.342 C546.362,40.746 546.249,41.106 546.024,41.422 L546.042,41.434 Z" id="Shape"></path>
                <path d="M546.255,16.46 C545.94,16.46 545.625,16.437 545.31,16.392 C544.975748,16.2905389 544.673332,16.1045429 544.432,15.852 C544.162,15.537 543.96,15.087 543.825,14.502 C543.645,13.917 543.555,13.084 543.555,12.004 C543.87,10.564 544.545,9.417 545.58,8.562 C546.615,7.707 547.762,7.279 549.022,7.279 C549.517,7.319 549.9,7.499 550.17,7.819 C550.485,8.089 550.732,8.449 550.912,8.899 C551.092,9.349 551.205,9.819 551.25,10.311 C551.295,10.761 551.317,11.166 551.317,11.526 C551.317,12.156 551.227,12.763 551.047,13.348 C550.915231,13.9264821 550.636211,14.4610976 550.237,14.9 C549.877,15.35 549.36,15.732 548.685,16.047 C548.055,16.317 547.245,16.451 546.255,16.451 L546.255,16.46 Z M542.407,34.01 C542.227,33.2 542.092,32.48 542.002,31.85 C541.876006,31.2959137 541.808304,30.73017 541.8,30.162 C541.8,29.307 542.047,28.699 542.542,28.339 C543.037,27.929 543.982,27.729 545.377,27.729 C546.097,27.729 546.66,28.243 547.065,29.279 C547.47,30.269 547.83,31.529 548.145,33.059 C548.46,34.589 548.775,36.231 549.09,37.989 C549.383196,39.6501586 549.766089,41.2942301 550.237,42.914 C550.732,44.444 551.34,45.726 552.06,46.761 C552.78,47.751 553.747,48.246 554.962,48.246 C556.042,48.246 556.942,48.02 557.662,47.57 C558.40106,47.1432785 559.044402,46.5690361 559.552,45.883 C560.092,45.207 560.542,44.465 560.902,43.655 C561.262,42.845 561.6,42.1 561.915,41.425 C562.275,40.75 562.657,40.188 563.062,39.738 C563.467,39.288 563.985,39.063 564.615,39.063 C565.2,39.647 565.537,40.143 565.627,40.547 C565.717,40.951 565.762,41.447 565.762,42.031 C565.492,43.381 565.042,44.686 564.412,45.946 C563.844234,47.1361408 563.092707,48.2295158 562.185,49.186 C561.285,50.086 560.227,50.828 559.012,51.413 C557.797,51.953 556.447,52.223 554.962,52.223 C553.747,52.223 552.555,52.067 551.385,51.753 C550.26,51.393 549.247,50.763 548.347,49.863 C547.447,48.783 546.637,47.363 545.917,45.609 C545.263385,43.8703593 544.65584,42.1147463 544.095,40.344 C543.447169,38.2529167 542.884044,36.1365259 542.407,34 L542.407,34.01 Z" id="Shape"></path>
                <path d="M624.49,38.06 C625.076,37.564 625.504,37.317 625.774,37.317 C626.134,37.317 626.359,37.542 626.449,37.992 C626.579,38.397 626.649,38.914 626.649,39.544 C626.649,41.749 626.309,43.639 625.639,45.214 C624.959,46.789 624.169,48.072 623.269,49.062 C622.415,50.052 621.515,50.772 620.569,51.222 C619.669,51.672 618.995,51.897 618.545,51.897 C616.52,51.897 614.835,51.492 613.485,50.682 C612.183312,49.8309837 611.021216,48.7835801 610.04,47.577 C609.044889,46.3077183 608.164749,44.9523689 607.41,43.527 C606.693682,42.1229563 605.881771,40.7697718 604.98,39.477 C604.17,38.217 603.225,37.182 602.145,36.372 C601.065,35.517 599.715,35.089 598.095,35.089 C596.878,35.089 595.935,35.489 595.258,36.299 C594.582,37.063 593.998,38.031 593.502,39.201 C593.016805,40.4338981 592.610649,41.6964552 592.286,42.981 C591.97,44.331 591.566,45.591 591.07,46.761 C590.62,47.886 590.01,48.853 589.246,49.663 C588.482,50.427 587.446,50.81 586.142,50.81 C585.512,50.81 584.952,50.563 584.456,50.068 C584.006,49.528 583.781,48.943 583.781,48.313 L584.388,40.55 C584.388,36.95 583.962,34.362 583.108,32.787 C582.253,31.167 581.083,30.357 579.598,30.357 C579.193,30.357 578.45,30.83 577.37,31.777 C576.29,32.72 575.052,33.847 573.657,35.15 C572.22859,36.4876233 570.81187,37.8376746 569.407,39.2 C568.012,40.55 566.777,41.63 565.697,42.44 C565.56,42.53 565.402,42.62 565.222,42.71 C564.862,42.89 564.502,42.98 564.142,42.98 C563.782,42.98 563.332,42.777 562.792,42.372 C562.252,41.966 561.982,41.382 561.982,40.616 C561.982,40.166 562.117,39.76 562.387,39.4 C562.521,39.2206554 562.679939,39.0613789 562.859,38.927 C563.443,38.523 564.209,37.915 565.153,37.105 C566.143,36.295 567.199,35.415 568.323,34.47 C569.449,33.525 570.597,32.557 571.767,31.567 C572.937,30.577 574.042,29.677 575.077,28.867 C576.112,28.057 577.037,27.404 577.847,26.909 C578.657,26.369 579.24,26.099 579.6,26.099 C581.4,26.099 582.84,26.413 583.92,27.043 C585,27.673 585.834,28.505 586.42,29.54 C587.006,30.53 587.39,31.68 587.57,32.984 C587.796943,34.2772489 587.909378,35.5879942 587.906,36.901 C589.751,34.787 591.551,33.257 593.306,32.311 C595.106,31.367 596.906,30.894 598.706,30.894 C601.136,30.894 603.251,31.434 605.051,32.514 C606.899,33.547 608.609,35.437 610.181,38.184 L613.691,44.73 C614.639,45.674 615.311,46.416 615.719,46.956 C616.169,47.496 616.753,47.766 617.473,47.766 C617.653,47.766 618.038,47.426 618.623,46.752 C619.290207,45.9716372 619.920884,45.160767 620.513,44.322 C621.264249,43.2862873 621.984567,42.2284875 622.673,41.15 C623.323894,40.1415665 623.931121,39.1056096 624.493,38.045 L624.49,38.06 Z" id="Shape"></path>
                <path d="M654.41,41.434 C652.682288,44.1063622 650.432648,46.4022602 647.796,48.184 C645.186,49.984 642.261,50.884 639.021,50.884 C637.131,50.884 635.221,50.547 633.289,49.872 C631.264,49.377 629.442,48.567 627.822,47.442 C627.147,46.992 626.449,46.452 625.729,45.822 C625.038311,45.1270469 624.427208,44.3572979 623.907,43.527 C623.367,42.627 622.917,41.637 622.557,40.557 C622.153,39.432 621.927,38.194 621.883,36.844 C622.063,35.584 622.243,34.257 622.423,32.862 C622.558,31.422 622.803,30.027 623.163,28.677 C623.473411,27.2967625 623.950232,25.9593123 624.583,24.694 C625.163613,23.440205 625.989925,22.3156718 627.013,21.387 C628.048,20.397 629.33,19.632 630.86,19.092 C632.435,18.507 634.37,18.214 636.665,18.214 C637.854049,18.2079499 639.030088,18.4615183 640.111,18.957 C641.190563,19.451166 642.156152,20.1634412 642.947,21.049 C643.757,21.949 644.407,23.029 644.904,24.289 C645.399,25.549 645.647,26.939 645.647,28.469 C645.647,29.053 645.622,29.729 645.577,30.493 C645.537717,31.2276944 645.401539,31.9539786 645.172,32.653 C644.964929,33.2997303 644.592663,33.881224 644.092,34.34 C643.597,34.79 642.9,35.016 642,35.016 C641.686,35.016 641.416,34.902 641.19,34.676 C641.01,34.406 640.83,34.116 640.65,33.8 C640.451214,33.3890907 640.293127,32.9597102 640.178,32.518 C640.178,32.383 640.248,32.158 640.383,31.843 C640.518,31.483 640.653,31.1 640.788,30.695 C640.968,30.289 641.128,29.885 641.262,29.479 C641.396,29.073 641.464,28.735 641.464,28.465 C641.464,27.565 641.331,26.755 641.061,26.035 C640.791,25.27 640.431,24.618 639.981,24.078 C639.560851,23.5614029 639.029696,23.1461179 638.427,22.863 C637.84,22.547 637.257,22.389 636.67,22.389 C636.22,22.389 635.454,22.592 634.374,22.997 C633.294,23.401 632.168,24.121 630.998,25.157 C629.873,26.191 628.861,27.587 627.961,29.341 C627.107,31.096 626.679,33.346 626.679,36.091 C626.679,39.331 627.647,41.671 629.582,43.111 C631.519,44.506 634.262,45.406 637.819,45.811 C640.789,45.811 643.309,45.248 645.379,44.123 C647.46488,43.0226076 649.284761,41.4791902 650.711,39.601 C651.251,38.926 651.903,38.588 652.668,38.588 C653.208,38.588 653.68,38.768 654.085,39.128 C654.535,39.442 654.759,39.848 654.759,40.342 C654.759,40.746 654.647,41.106 654.422,41.422 L654.41,41.434 Z" id="Shape"></path>
                <path d="M685.134,39.072 C685.404,38.982 685.606,38.937 685.741,38.937 C686.191,38.937 686.551,39.162 686.821,39.612 C687.141,40.017 687.301,40.467 687.301,40.962 C687.301,41.682 686.851,42.289 685.951,42.784 C685.051,43.234 684.037,43.617 682.911,43.932 C681.866206,44.195106 680.807117,44.3977754 679.739,44.539 C678.749,44.669 678.141,44.739 677.916,44.739 C677.242,44.739 676.476,44.669 675.622,44.533 C675.527992,44.7254579 675.46006,44.9295892 675.42,45.14 C675.365985,45.346972 675.298166,45.5500933 675.217,45.748 C674.047,48.808 672.563,51.038 670.763,52.431 C669.008,53.871 666.916,54.591 664.486,54.591 C663.406,54.591 662.236,54.434 660.976,54.119 C659.668788,53.8227776 658.382638,53.4402733 657.126,52.974 C654.786,52.074 653.122,50.724 652.132,48.924 C651.146829,47.0997701 650.635849,45.057228 650.646,42.984 C650.646,40.779 650.986,38.776 651.66,36.976 C652.29,35.176 653.145,33.668 654.225,32.453 C655.305,31.193 656.519,30.225 657.869,29.55 C659.264,28.877 660.681,28.54 662.121,28.54 C662.885,28.54 663.741,28.63 664.685,28.81 C665.631,28.945 666.531,29.17 667.385,29.485 C668.241,29.8 668.961,30.16 669.545,30.565 C670.175,30.97 670.535,31.42 670.625,31.915 C672.425,32.815 673.731,34.097 674.541,35.762 C675.391,37.429 675.865,39.162 675.955,40.962 C676.27,41.007 676.54,41.029 676.765,41.029 L677.507,41.029 C678.050042,41.0315899 678.59222,40.9854044 679.127,40.891 C679.647836,40.7958405 680.165443,40.6837814 680.679,40.555 C681.262,40.375 681.892,40.172 682.569,39.947 C683.289,39.677 684.142,39.382 685.132,39.067 L685.134,39.072 Z M655.299,38.532 C654.709,40.017 654.419,41.457 654.419,42.852 C654.419,44.427 654.779,45.709 655.499,46.699 C656.240398,47.6695399 657.155996,48.4935779 658.199,49.129 C659.279,49.709 660.379,50.119 661.509,50.339 C662.679,50.563 663.669,50.679 664.479,50.679 C666.009,50.679 667.309,50.204 668.389,49.259 C669.469,48.314 670.459,46.694 671.359,44.399 C671.449,44.129 671.493,43.882 671.493,43.659 C670.456637,43.3699867 669.421298,43.0773182 668.387,42.781 C667.127,42.421 665.889,41.971 664.674,41.431 C663.459,40.846 662.404,40.149 661.504,39.339 C660.647,38.529 660.219,37.586 660.219,36.506 C660.219,35.921 660.332,35.426 660.557,35.021 C660.795472,34.5961622 661.06627,34.1902983 661.367,33.807 C660.827,34.077 660.287,34.257 659.747,34.347 C659.215021,34.4478207 658.695384,34.6053878 658.197,34.817 C657.702,35.041 657.207,35.424 656.712,35.964 C656.217,36.504 655.745,37.359 655.295,38.529 L655.299,38.532 Z M668.319,34.819 C667.760381,34.5982039 667.165659,34.4829213 666.565,34.479 C665.845,34.479 665.26,34.633 664.81,34.949 C664.406,35.219 664.136,35.533 664,35.893 L664,36.095 C664,36.499 664.34,36.925 665.014,37.375 C665.768974,37.8202204 666.558123,38.2047632 667.374,38.525 C668.274,38.885 669.174,39.199 670.074,39.469 C671.019,39.695 671.764,39.875 672.304,40.009 C672.075753,38.9232006 671.639385,37.8918799 671.019,36.972 C670.389,35.982 669.489,35.262 668.319,34.812 L668.319,34.819 Z" id="Shape"></path>
            </g>
        </g>
    </g>
</svg>