<?xml version="1.0" encoding="UTF-8" standalone="no"?>
<svg width="806px" height="342px" viewBox="0 0 806 342" version="1.1" xmlns="http://www.w3.org/2000/svg" xmlns:xlink="http://www.w3.org/1999/xlink" xmlns:sketch="http://www.bohemiancoding.com/sketch/ns">
    <!-- Generator: Sketch 3.5.2 (25235) - http://www.bohemiancoding.com/sketch -->
    <title>#050505ff</title>
    <desc>Created with Sketch.</desc>
    <defs></defs>
    <g id="Page-1" stroke="none" stroke-width="1" fill="none" fill-rule="evenodd" sketch:type="MSPage">
        <g id="logo_shoe" sketch:type="MSLayerGroup" transform="translate(-43.000000, -134.000000)">
            <g id="#050505ff" transform="translate(445.972125, 305.201170) rotate(72.300206) translate(-445.972125, -305.201170) translate(255.972125, -101.298830)" sketch:type="MSShapeGroup">
                <g id="g4212" transform="translate(0.032902, 0.849823)">
                    <g id="g4323" transform="translate(122.562100, 100.348008)" stroke="#000000" stroke-width="7.89120052">
                        <path d="M130.38626,633.606803 L26.8436149,600.562543" id="path4140-1"></path>
                        <path d="M135.77717,614.32647 L89.1264277,599.438503" id="path4140-1-8"></path>
                        <path d="M141.47721,593.703548 L39.4262839,561.135329" id="path4140-1-1"></path>
                        <path d="M143.00705,571.783384 L102.116788,558.733801" id="path4140-1-8-3"></path>
                        <path d="M144.4286,549.828677 L52.4069029,520.461182" id="path4140-1-80"></path>
                        <path d="M146.53398,529.499803 L114.689869,519.33719" id="path4140-1-8-1"></path>
                        <path d="M151.48001,508.63625 L64.9895745,481.03398" id="path4140-1-1-4"></path>
                        <path d="M154.14729,487.079097 L127.680189,478.632476" id="path4140-1-8-3-2"></path>
                        <path d="M157.99285,466.134009 L77.9018664,440.574009" id="path4140-1-9"></path>
                        <path d="M162.66436,446.624039 L140.18476,439.449979" id="path4140-1-8-6"></path>
                        <path d="M169.18743,426.263779 L90.4845177,401.146799" id="path4140-1-1-1"></path>
                        <path d="M177.763959,406.592479 L153.17504,398.745259" id="path4140-1-8-3-5"></path>
                        <path d="M183.351229,385.967229 L103.465228,360.472669" id="path4140-1-80-9"></path>
                        <path d="M192.553389,367.903189 L165.74812,359.348649" id="path4140-1-8-1-2"></path>
                        <path d="M200.379029,347.958619 L116.047839,321.045449" id="path4140-1-1-4-8"></path>
                        <path d="M207.829199,327.927859 L178.738329,318.643899" id="path4140-1-8-3-2-8"></path>
                        <path d="M218.531319,308.934919 L129.02841,280.371269" id="path4140-1-85"></path>
                        <path d="M226.082559,290.344029 L191.311259,279.247229" id="path4140-1-8-0"></path>
                        <path d="M234.045359,270.443229 L141.61108,240.944069" id="path4140-1-1-8"></path>
                        <path d="M238.609649,249.491489 L204.301629,238.542539" id="path4140-1-8-3-55"></path>
                        <path d="M243.631339,228.685729 L154.59172,200.269909" id="path4140-1-80-5"></path>
                        <path d="M244.656599,208.012139 L216.874639,199.145899" id="path4140-1-8-1-3"></path>
                        <path d="M247.699479,186.541229 L167.17441,160.84271" id="path4140-1-1-4-6"></path>
                        <path d="M249.852109,164.81983 L229.865189,158.44126" id="path4140-1-8-3-2-9"></path>
                        <path d="M251.503499,142.93846 L180.155029,120.16854" id="path4140-1-85-9"></path>
                        <path d="M250.877499,121.73791 L242.438219,119.04462" id="path4140-1-8-0-8"></path>
                        <path d="M249.017959,98.7024497 L192.737699,80.7413398" id="path4140-1-1-8-8"></path>
                        <path d="M241.633159,51.5289299 L205.718479,40.0672299" id="path4140-1-80-5-7"></path>
                        <path d="M228.318399,3.83690999 L218.301369,0.640089998" id="path4140-1-1-4-6-9"></path>
                        <path d="M112.470369,672.551711 L13.807648,641.064896" id="path4140-1-3"></path>
                        <path d="M123.800949,653.810592 L76.5833263,638.741716" id="path4140-1-8-7"></path>
                        <path d="M67.9839847,701.907118 L0.650246998,680.418438" id="path4140-1-3-0"></path>
                        <path d="M94.0144577,689.536998 L62.9395738,679.619878" id="path4140-1-8-7-8"></path>
                    </g>
                    <path d="M223.851519,0.15373 C235.102369,0.858479998 246.280719,1.79038999 256.979199,4.22595999 C272.063069,8.91913997 309.026599,23.2790499 327.138689,50.6309199 C362.644789,100.32333 373.220619,162.41639 377.968129,221.978189 C380.522599,255.157949 375.868389,303.079329 372.935609,320.337069 C366.315659,383.092889 336.049229,439.398509 310.893979,496.182949 C283.065319,557.834337 277.211359,626.126454 269.016229,692.413398 C268.404779,722.909246 261.297609,755.121278 239.618659,777.783728 C222.524809,798.872678 194.865439,807.314318 168.88157,811.028728 C157.24595,812.287108 151.795227,812.119208 142.710743,811.447468 C83.3343628,803.363488 28.4822799,751.994638 41.1194599,684.897638 C41.1194599,684.897638 42.9791099,710.221613 46.1459099,722.449803 C48.1592499,730.224042 52.3148999,741.085108 57.3135809,750.179358 C63.1462113,760.790838 71.8507619,770.471428 71.8507619,770.471428 C88.6994817,785.764908 109.672261,798.243468 132.258192,802.337678 C160.983505,807.544798 192.002799,800.879128 217.028169,787.608368 C227.271679,781.109578 231.712149,775.556098 231.712149,775.556098 C231.712149,775.556098 235.993229,770.844478 238.421359,767.666158 C248.399679,751.967838 255.750219,734.311928 258.085009,715.843209 C263.751819,660.102619 269.561869,604.12344 282.776189,549.626088 C292.366069,513.787989 307.784069,479.812869 324.205409,446.649369 C352.464859,387.861459 370.780959,328.586969 368.610959,262.964939 C371.075659,201.639559 362.177379,132.96727 333.834559,77.8364698 C327.872709,66.6983998 321.284589,54.7952598 311.659769,45.5510599 C290.394479,25.1267099 262.555369,9.42551997 232.680289,8.97713997 C154.151165,6.28004998 131.227365,36.4705099 114.614233,86.5373898 C124.893327,22.8888399 158.241856,5.80113998 205.910759,1.31217 C211.661119,0.783829998 217.035419,0.0229199999 223.851519,0.15373 L223.851519,0.15373 Z" id="path6" fill="#000000"></path>
                    <g id="text4166" transform="translate(134.943146, 358.409688) rotate(-72.300206) translate(-134.943146, -358.409688) translate(-209.056854, 326.909688)" fill="#000000">
                        <path d="M0.915077996,39.4896078 C0.915077996,39.4446078 1.14007799,39.0846078 1.59007799,38.4096078 C1.99507799,37.6896078 2.53507799,36.9246078 3.21007798,36.1146078 C3.88507798,35.2596078 4.65007797,34.4946078 5.50507797,33.8196078 C6.36007796,33.0996078 7.21507796,32.7396078 8.07007795,32.7396078 C8.83507795,32.7396078 9.53257795,32.9871078 10.1625779,33.4821078 C10.8375779,33.9771078 11.4225779,34.6071078 11.9175779,35.3721078 C12.4125779,36.1371078 12.8175779,36.9921078 13.1325779,37.9371078 C13.4925779,38.8371078 13.7175779,39.7371078 13.8075779,40.6371078 C13.8075779,41.9421077 13.6950779,42.9771077 13.4700779,43.7421077 C13.2900779,44.4621077 13.0650779,45.1371077 12.7950779,45.7671077 C12.5700779,46.3521077 12.3450779,46.9596079 12.1200779,47.5896082 C11.9400779,48.2196082 11.8500779,49.0971082 11.8500779,50.2221082 C11.8500779,51.0321082 11.8950779,51.8871082 11.9850779,52.7871082 C12.0750779,53.6871082 12.2775779,54.5196082 12.5925779,55.2846082 C12.9525779,56.0496081 13.4475779,56.6796081 14.0775779,57.1746081 C14.7525779,57.6696081 15.6300779,57.9171081 16.7100779,57.9171081 C18.2850779,57.9171081 19.5225779,57.5121081 20.4225779,56.7021081 C21.3225779,55.8921082 22.0200779,54.9021082 22.5150779,53.7321082 C23.0550779,52.5621082 23.4600779,51.3246082 23.7300779,50.0196082 C24.0450779,48.7146082 24.3600779,47.5446081 24.6750779,46.5096077 C23.4600779,45.5646077 22.5600779,44.3271077 21.9750779,42.7971077 C21.4350779,41.2221078 21.1650779,39.5796078 21.1650779,37.8696078 C21.1650779,37.0596078 21.2100779,36.2271078 21.3000779,35.3721078 C21.3900779,34.4721078 21.5250779,33.6621078 21.7050779,32.9421078 C21.9300779,32.1771078 22.1775779,31.5471078 22.4475779,31.0521078 C22.7625779,30.5571078 23.1225779,30.3096078 23.5275779,30.3096078 C23.6625779,30.3096078 23.7975779,30.3321078 23.9325779,30.3771078 C24.1125779,30.4221078 24.2925779,30.4671078 24.4725779,30.5121078 C26.5875778,31.4121078 28.0050778,32.6946078 28.7250778,34.3596078 C29.4900778,36.0246078 29.8725778,37.8921078 29.8725778,39.9621078 C29.8725778,40.5471078 29.8500778,40.9971078 29.8050778,41.3121078 L29.8050778,42.0546077 L29.8050778,42.5271077 C29.9850778,42.5271077 30.6375778,42.4371077 31.7625778,42.2571077 C32.9325778,42.0321077 34.2150778,41.7621078 35.6100778,41.4471078 C37.0500778,41.0871078 38.4000778,40.7271078 39.6600778,40.3671078 C40.9650778,40.0071078 41.8425778,39.6471078 42.2925778,39.2871078 C42.5175778,39.1971078 42.7875778,39.1296078 43.1025778,39.0846078 C43.4625778,39.0396078 43.8450778,39.0171078 44.2500777,39.0171078 C44.8800777,39.0171078 45.4650777,39.1071078 46.0050777,39.2871078 C46.5450777,39.4221078 46.8150777,39.7146078 46.8150777,40.1646078 C46.8150777,40.5246078 46.5450777,40.9971078 46.0050777,41.5821078 C45.5100777,42.1221077 44.6100777,42.8196077 43.3050778,43.6746077 L42.2925778,44.0121077 C41.1225778,44.3721077 39.9975778,44.7096077 38.9175778,45.0246077 C37.8825778,45.2946077 36.8475778,45.5646077 35.8125778,45.8346077 C34.7775778,46.1046077 33.7200778,46.3296077 32.6400778,46.5096077 C31.5600778,46.6896077 30.3900778,46.8246077 29.1300778,46.9146077 L28.3875778,50.3571082 C27.9825778,51.7071082 27.6675778,52.7646082 27.4425778,53.5296082 C27.2175778,54.3396082 26.9700778,55.0371082 26.7000778,55.6221082 C26.4300778,56.2521081 26.0475779,56.8596081 25.5525779,57.4446081 C25.1025779,58.0746081 24.4275779,58.8846082 23.5275779,59.8746081 C22.7625779,60.6846081 21.8625779,61.2696081 20.8275779,61.6296081 C19.8375779,61.9896081 18.7350779,62.1696081 17.5200779,62.1696081 C14.3250779,62.1696081 11.8275779,61.2021081 10.0275779,59.2671082 C8.27257795,57.3321081 7.39507796,54.7446081 7.39507796,51.5046082 C7.39507796,50.3346082 7.50757796,49.3896082 7.73257796,48.6696082 C7.95757796,47.9496082 8.20507795,47.2521081 8.47507795,46.5771077 C8.74507795,45.9021077 8.99257795,45.1371077 9.21757795,44.2821077 C9.44257795,43.3821077 9.55507795,42.1671077 9.55507795,40.6371078 L9.35257795,37.7346078 C9.35257795,37.3746078 9.33007795,37.0596078 9.28507795,36.7896078 C9.24007795,36.5196078 9.08257795,36.3846078 8.81257795,36.3846078 C8.76757795,36.3846078 8.70007795,36.4296078 8.61007795,36.5196078 C8.52007795,36.5646078 8.29507795,36.7896078 7.93507796,37.1946078 C7.62007796,37.5996078 7.12507796,38.2296078 6.45007796,39.0846078 C5.82007797,39.9396078 4.89757797,41.1771078 3.68257798,42.7971077 C3.09757798,43.1121077 2.55757799,43.2696077 2.06257799,43.2696077 C1.47757799,43.2696077 1.027578,43.1121077 0.712577997,42.7971077 C0.352577999,42.4371077 0.172578,41.9871077 0.172578,41.4471078 C0.172578,40.8621078 0.420077999,40.2096078 0.915077996,39.4896078 L0.915077996,39.4896078 Z M25.1475779,34.4946078 C25.1475779,34.8996078 25.0575779,35.3946078 24.8775779,35.9796078 C24.6975779,36.5196078 24.6525779,37.2171078 24.7425779,38.0721078 L24.8100779,38.9496078 C24.8550779,39.4896078 24.9675779,39.9846078 25.1475779,40.4346078 C25.3725779,40.8846078 25.5975779,41.2896078 25.8225779,41.6496078 C25.9575779,41.2446078 26.0925779,40.7271078 26.2275779,40.0971078 C26.4075778,39.4671078 26.4975778,38.7921078 26.4975778,38.0721078 C26.4975778,37.4421078 26.4075778,36.8346078 26.2275779,36.2496078 C26.0475779,35.6196078 25.6875779,35.0346078 25.1475779,34.4946078 L25.1475779,34.4946078 Z" id="path4188"></path>
                        <path d="M50.0065627,23.0196079 C48.9715627,23.0196079 48.0940627,23.4696079 47.3740627,24.3696079 C46.6990627,25.2246078 46.1365627,26.2371078 45.6865627,27.4071078 C45.2815627,28.5321078 44.9890627,29.6571078 44.8090627,30.7821078 C44.6290627,31.8621078 44.5390627,32.6271078 44.5390627,33.0771078 C44.5390627,34.6521078 44.6965627,35.9346078 45.0115627,36.9246078 C45.3265627,37.8696078 45.7765627,38.7921078 46.3615627,39.6921078 C47.1265627,38.9721078 47.8240627,38.0721078 48.4540627,36.9921078 C49.1290627,35.9121078 49.7140627,34.7871078 50.2090627,33.6171078 C50.7040627,32.4471078 51.0865627,31.2996078 51.3565627,30.1746078 C51.6715627,29.0046078 51.8290627,27.9696078 51.8290627,27.0696078 L51.8290627,25.9221078 C51.1090627,23.9871079 50.5015627,23.0196079 50.0065627,23.0196079 L50.0065627,23.0196079 Z M67.0165623,42.3921077 C65.9365623,43.7421077 64.4740623,45.0021077 62.6290623,46.1721077 C60.7840624,47.3421081 58.7590624,48.1746082 56.5540624,48.6696082 L54.1915624,48.6696082 C53.3815626,48.6696082 52.5040627,48.6021082 51.5590627,48.4671082 C50.6140627,48.2871082 49.6915627,48.0171082 48.7915627,47.6571082 C47.3515627,46.6671079 46.3390627,45.9696077 45.7540627,45.5646077 C45.1690627,45.1146077 44.7640627,44.8221077 44.5390627,44.6871077 C44.3590627,44.5071077 44.2240627,44.3496077 44.1340627,44.2146077 C44.0890627,44.0796077 43.8415628,43.7871077 43.3915628,43.3371077 C42.2215628,42.1671077 41.4340628,40.8171078 41.0290628,39.2871078 C40.5790628,37.7571078 40.3540628,36.1146078 40.3540628,34.3596078 C40.3540628,32.6946078 40.5790628,30.9621078 41.0290628,29.1621078 C41.4790628,27.3171078 42.1315628,25.6296078 42.9865628,24.0996079 C43.7965628,22.5696079 44.7865627,21.3096079 45.9565627,20.3196079 C47.1715627,19.2846079 48.5215627,18.7671079 50.0065627,18.7671079 C50.4565627,18.7671079 51.0415627,18.9696079 51.7615627,19.3746079 C52.5265627,19.7346079 53.2465627,20.2971079 53.9215627,21.0621079 C54.6415625,21.7821079 55.2490624,22.7046079 55.7440624,23.8296079 C56.2840624,24.9546078 56.5540624,26.2596078 56.5540624,27.7446078 C56.2840624,30.1746078 55.5415624,32.6946078 54.3265624,35.3046078 C53.1115626,37.9146078 51.4690627,40.5921078 49.3990627,43.3371077 C49.9840627,43.6071077 50.7040627,43.8771077 51.5590627,44.1471077 C52.4140627,44.3721077 53.2915626,44.4846077 54.1915624,44.4846077 L56.5540624,44.4846077 C57.9040624,44.0796077 58.8940624,43.7421077 59.5240624,43.4721077 C60.1990624,43.1571077 60.7390624,42.8196077 61.1440624,42.4596077 C61.5940623,42.0996077 61.9990623,41.6721078 62.3590623,41.1771078 C62.7640623,40.6821078 63.3715623,40.0071078 64.1815623,39.1521078 C64.5865623,38.6121078 65.1265623,38.3421078 65.8015623,38.3421078 C66.3415623,38.3421078 66.8365623,38.5221078 67.2865623,38.8821078 C67.7365623,39.1971078 67.9615623,39.6696078 67.9615623,40.2996078 C67.9615623,40.9296078 67.6465623,41.6271078 67.0165623,42.3921077 L67.0165623,42.3921077 Z" id="path4190"></path>
                        <path d="M67.7063279,16.5396079 C67.3913279,16.5396079 67.0763279,16.5171079 66.7613279,16.4721079 C66.4463279,16.3821079 66.1538279,16.2021079 65.8838279,15.9321079 C65.6138279,15.6171079 65.4113279,15.1671079 65.2763279,14.5821079 C65.0963279,13.9971079 65.0063279,13.1646079 65.0063279,12.0846079 C65.3213279,10.6446079 65.9963279,9.49710794 67.0313279,8.64210794 C68.0663279,7.78710795 69.2138279,7.35960795 70.4738279,7.35960795 C70.9688279,7.40460795 71.3513279,7.58460795 71.6213279,7.89960794 C71.9363279,8.16960794 72.1838279,8.52960794 72.3638279,8.97960794 C72.5438279,9.42960794 72.6563279,9.90210793 72.7013279,10.3971079 C72.7463279,10.8471079 72.7688279,11.2521079 72.7688279,11.6121079 C72.7688279,12.2421079 72.6788279,12.8496079 72.4988279,13.4346079 C72.3638279,14.0196079 72.0938279,14.5371079 71.6888279,14.9871079 C71.3288279,15.4371079 70.8113279,15.8196079 70.1363279,16.1346079 C69.5063279,16.4046079 68.6963279,16.5396079 67.7063279,16.5396079 L67.7063279,16.5396079 Z M63.8588279,34.0896078 C63.6788279,33.2796078 63.5438279,32.5596078 63.4538279,31.9296078 C63.3188279,31.2996078 63.2513279,30.7371078 63.2513279,30.2421078 C63.2513279,29.3871078 63.4988279,28.7796078 63.9938279,28.4196078 C64.4888279,28.0146078 65.4338279,27.8121078 66.8288279,27.8121078 C67.5488279,27.8121078 68.1113279,28.3296078 68.5163279,29.3646078 C68.9213279,30.3546078 69.2813279,31.6146078 69.5963279,33.1446078 C69.9113279,34.6746078 70.2263279,36.3171078 70.5413279,38.0721078 C70.8563279,39.8271078 71.2388279,41.4696078 71.6888279,42.9996077 C72.1838279,44.5296077 72.7913279,45.8121077 73.5113279,46.8471077 C74.2313277,47.837108 75.1988276,48.3321082 76.4138276,48.3321082 C77.4938276,48.3321082 78.3938276,48.1071082 79.1138275,47.6571082 C79.8788275,47.2071079 80.5088275,46.6446077 81.0038275,45.9696077 C81.5438275,45.2946077 81.9938275,44.5521077 82.3538275,43.7421077 C82.7138275,42.9321077 83.0513275,42.1896077 83.3663275,41.5146078 C83.7263275,40.8396078 84.1088275,40.2771078 84.5138275,39.8271078 C84.9188275,39.3771078 85.4363275,39.1521078 86.0663275,39.1521078 C86.6513275,39.7371078 86.9888275,40.2321078 87.0788275,40.6371078 C87.1688275,41.0421078 87.2138275,41.5371078 87.2138275,42.1221077 C86.9438275,43.4721077 86.4938275,44.7771077 85.8638275,46.0371077 C85.2788275,47.2521081 84.5363275,48.3321082 83.6363275,49.2771082 C82.7363275,50.1771082 81.6788275,50.9196082 80.4638275,51.5046082 C79.2488275,52.0446082 77.8988276,52.3146082 76.4138276,52.3146082 C75.1988276,52.3146082 74.0063277,52.1571082 72.8363279,51.8421082 C71.7113279,51.4821082 70.6988279,50.8521082 69.7988279,49.9521082 C68.8988279,48.8721082 68.0888279,47.4546081 67.3688279,45.6996077 C66.6938279,43.8996077 66.0863279,42.1446077 65.5463279,40.4346078 C64.9163279,38.4096078 64.3538279,36.2946078 63.8588279,34.0896078 L63.8588279,34.0896078 Z" id="path4192"></path>
                        <path d="M145.943046,38.1396078 C146.528046,37.6446078 146.955546,37.3971078 147.225546,37.3971078 C147.585546,37.3971078 147.810546,37.6221078 147.900546,38.0721078 C148.035546,38.4771078 148.103046,38.9946078 148.103046,39.6246078 C148.103046,41.8296078 147.765546,43.7196077 147.090546,45.2946077 C146.415546,46.8696081 145.628046,48.1521082 144.728046,49.1421082 C143.873046,50.1321082 142.973046,50.8521082 142.028046,51.3021082 C141.128046,51.7521082 140.453046,51.9771082 140.003046,51.9771082 C137.978046,51.9771082 136.290546,51.5721082 134.940546,50.7621082 C133.635546,49.9071082 132.488046,48.8721082 131.498046,47.6571082 C130.508046,46.3971079 129.630546,45.0471077 128.865546,43.6071077 C128.100546,42.1221077 127.290546,40.7721078 126.435546,39.5571078 C125.625546,38.2971078 124.680546,37.2621078 123.600546,36.4521078 C122.520546,35.5971078 121.170546,35.1696078 119.550546,35.1696078 C118.335546,35.1696078 117.390546,35.5746078 116.715546,36.3846078 C116.040546,37.1496078 115.455546,38.1171078 114.960546,39.2871078 C114.510546,40.4121078 114.105546,41.6721078 113.745546,43.0671077 C113.430546,44.4171077 113.025546,45.6771077 112.530546,46.8471077 C112.080546,47.972108 111.473046,48.9396082 110.708046,49.7496082 C109.943046,50.5146082 108.908046,50.8971082 107.603046,50.8971082 C106.973046,50.8971082 106.410546,50.6496082 105.915546,50.1546082 C105.465546,49.6146082 105.240546,49.0296082 105.240546,48.3996082 L105.848046,40.6371078 C105.848046,37.0371078 105.420546,34.4496078 104.565546,32.8746078 C103.710546,31.2546078 102.540546,30.4446078 101.055546,30.4446078 C100.650546,30.4446078 99.9080464,30.9171078 98.8280464,31.8621078 C97.7480464,32.8071078 96.5105464,33.9321078 95.1155465,35.2371078 C93.7205465,36.5421078 92.3030465,37.8921078 90.8630465,39.2871078 C89.4680465,40.6371078 88.2305465,41.7171078 87.1505465,42.5271077 C87.0155465,42.6171077 86.8580465,42.7071077 86.6780465,42.7971077 C86.3180465,42.9771077 85.9580465,43.0671077 85.5980465,43.0671077 C85.2380465,43.0671077 84.7880465,42.8646077 84.2480465,42.4596077 C83.7080465,42.0546077 83.4380465,41.4696078 83.4380465,40.7046078 C83.4380465,40.2546078 83.5730465,39.8496078 83.8430465,39.4896078 C83.9780465,39.3096078 84.1355465,39.1521078 84.3155465,39.0171078 C84.9005465,38.6121078 85.6655465,38.0046078 86.6105465,37.1946078 C87.6005465,36.3846078 88.6580465,35.5071078 89.7830465,34.5621078 C90.9080465,33.6171078 92.0555465,32.6496078 93.2255465,31.6596078 C94.3955465,30.6696078 95.4980465,29.7696078 96.5330464,28.9596078 C97.5680464,28.1496078 98.4905464,27.4971078 99.3005464,27.0021078 C100.110546,26.4621078 100.695546,26.1921078 101.055546,26.1921078 C102.855546,26.1921078 104.295546,26.5071078 105.375546,27.1371078 C106.455546,27.7671078 107.288046,28.5996078 107.873046,29.6346078 C108.458046,30.6246078 108.840546,31.7721078 109.020546,33.0771078 C109.245546,34.3371078 109.358046,35.6421078 109.358046,36.9921078 C111.203046,34.8771078 113.003046,33.3471078 114.758046,32.4021078 C116.558046,31.4571078 118.358046,30.9846078 120.158046,30.9846078 C122.588046,30.9846078 124.703046,31.5246078 126.503046,32.6046078 C128.348046,33.6396078 130.058046,35.5296078 131.633046,38.2746078 L135.143046,44.8221077 C136.088046,45.7671077 136.763046,46.5096079 137.168046,47.0496082 C137.618046,47.5896082 138.203046,47.8596082 138.923046,47.8596082 C139.103046,47.8596082 139.485546,47.5221081 140.070546,46.8471077 C140.655546,46.1721077 141.285546,45.3621077 141.960546,44.4171077 C142.680546,43.4271077 143.400546,42.3696077 144.120546,41.2446078 C144.840546,40.1196078 145.448046,39.0846078 145.943046,38.1396078 L145.943046,38.1396078 Z" id="path4194"></path>
                        <path d="M157.502421,19.7121079 L146.162421,19.7121079 C146.252421,21.9171079 146.409921,24.1446079 146.634921,26.3946078 C146.859921,28.6446078 147.174921,30.8271078 147.579921,32.9421078 C147.984921,35.0121078 148.502421,36.9696078 149.132421,38.8146078 C149.807421,40.6596078 150.617421,42.2796077 151.562421,43.6746077 C152.552421,45.0696077 153.722421,46.1721077 155.072421,46.9821077 C156.422421,47.747108 157.997421,48.1296082 159.797421,48.1296082 C161.957421,48.1296082 163.64492,47.6796081 164.859919,46.7796077 C166.119919,45.8346077 167.132419,44.8221077 167.897419,43.7421077 C168.707419,42.6171077 169.337419,41.6046078 169.787419,40.7046078 C170.282419,39.7596078 170.822419,39.2871078 171.407419,39.2871078 C171.992419,39.2871078 172.442419,39.6246078 172.757419,40.2996078 C173.117419,40.9296078 173.297419,41.4471078 173.297419,41.8521078 C173.027419,43.2021077 172.554919,44.4846077 171.879919,45.6996077 C171.204919,46.9146081 170.349919,47.9946082 169.314919,48.9396082 C168.324919,49.8846082 167.177419,50.6271082 165.872419,51.1671082 C164.61242,51.7071082 163.239921,51.9771082 161.754921,51.9771082 C160.539921,51.9771082 159.144921,51.8646082 157.569921,51.6396082 C155.994921,51.3696082 154.419921,50.9196082 152.844921,50.2896082 C151.269921,49.6596082 149.919921,48.6696082 148.794921,47.3196082 C147.669921,45.9246079 146.702421,44.0346077 145.892421,41.6496078 C145.082421,39.2196078 144.407421,36.2271078 143.867421,32.6721078 C143.282421,29.0721078 142.742421,24.7296078 142.247421,19.6446079 C141.482421,19.6446079 140.739921,19.6221079 140.019921,19.5771079 C139.299921,19.4871079 138.669921,19.3746079 138.129921,19.2396079 C137.589921,19.0596079 137.162421,18.8121079 136.847421,18.4971079 C136.487421,18.1821079 136.307421,17.7771079 136.307421,17.2821079 C136.667421,16.3821079 137.094921,15.8646079 137.589921,15.7296079 C138.039921,15.5496079 138.422421,15.4596079 138.737421,15.4596079 C138.782421,15.5046079 138.962421,15.5271079 139.277421,15.5271079 C139.772421,15.5271079 140.222421,15.4821079 140.627421,15.3921079 C141.032421,15.3021079 141.437421,15.2571079 141.842421,15.2571079 L141.167421,7.76460795 C140.987421,6.95460795 140.852421,6.23460795 140.762421,5.60460796 C140.627421,4.97460796 140.559921,4.41210796 140.559921,3.91710797 C140.559921,3.06210797 140.807421,2.45460798 141.302421,2.09460798 C141.797421,1.68960798 142.742421,1.48710798 144.137421,1.48710798 C144.497421,1.48710798 144.789921,1.80210798 145.014921,2.43210798 C145.194921,3.01710797 145.352421,3.84960797 145.487421,4.92960796 C145.622421,6.00960796 145.712421,7.29210795 145.757421,8.77710794 C145.802421,10.2621079 145.869921,11.8596079 145.959921,13.5696079 L146.027421,15.4596079 L162.362421,15.4596079 C162.632421,15.7296079 162.857421,15.9996079 163.037421,16.2696079 C163.217421,16.4946079 163.374921,16.7646079 163.509921,17.0796079 C163.644921,17.3496079 163.712421,17.6421079 163.712421,17.9571079 C163.712421,18.4521079 163.419921,18.9021079 162.834921,19.3071079 C162.294921,19.6671079 161.237421,19.8471079 159.662421,19.8471079 L158.717421,19.8471079 C158.402421,19.8021079 157.997421,19.7571079 157.502421,19.7121079 L157.502421,19.7121079 Z" id="path4196"></path>
                        <path d="M173.175079,16.5396079 C172.860079,16.5396079 172.545079,16.5171079 172.230079,16.4721079 C171.915079,16.3821079 171.622579,16.2021079 171.352579,15.9321079 C171.082579,15.6171079 170.880079,15.1671079 170.745079,14.5821079 C170.565079,13.9971079 170.475079,13.1646079 170.475079,12.0846079 C170.790079,10.6446079 171.465079,9.49710794 172.500079,8.64210794 C173.535079,7.78710795 174.682579,7.35960795 175.942579,7.35960795 C176.437579,7.40460795 176.820079,7.58460795 177.090079,7.89960794 C177.405079,8.16960794 177.652579,8.52960794 177.832579,8.97960794 C178.012579,9.42960794 178.125079,9.90210793 178.170079,10.3971079 C178.215079,10.8471079 178.237579,11.2521079 178.237579,11.6121079 C178.237579,12.2421079 178.147579,12.8496079 177.967579,13.4346079 C177.832579,14.0196079 177.562579,14.5371079 177.157579,14.9871079 C176.797579,15.4371079 176.280079,15.8196079 175.605079,16.1346079 C174.975079,16.4046079 174.165079,16.5396079 173.175079,16.5396079 L173.175079,16.5396079 Z M169.327579,34.0896078 C169.147579,33.2796078 169.012579,32.5596078 168.922579,31.9296078 C168.787579,31.2996078 168.720079,30.7371078 168.720079,30.2421078 C168.720079,29.3871078 168.967579,28.7796078 169.462579,28.4196078 C169.957579,28.0146078 170.902579,27.8121078 172.297579,27.8121078 C173.017579,27.8121078 173.580079,28.3296078 173.985079,29.3646078 C174.390079,30.3546078 174.750079,31.6146078 175.065079,33.1446078 C175.380079,34.6746078 175.695079,36.3171078 176.010079,38.0721078 C176.325079,39.8271078 176.707579,41.4696078 177.157579,42.9996077 C177.652579,44.5296077 178.260079,45.8121077 178.980079,46.8471077 C179.700079,47.837108 180.667579,48.3321082 181.882579,48.3321082 C182.962579,48.3321082 183.862579,48.1071082 184.582579,47.6571082 C185.347579,47.2071079 185.977579,46.6446077 186.472579,45.9696077 C187.012579,45.2946077 187.462579,44.5521077 187.822579,43.7421077 C188.182579,42.9321077 188.520079,42.1896077 188.835079,41.5146078 C189.195079,40.8396078 189.577579,40.2771078 189.982579,39.8271078 C190.387579,39.3771078 190.905079,39.1521078 191.535079,39.1521078 C192.120079,39.7371078 192.457579,40.2321078 192.547579,40.6371078 C192.637579,41.0421078 192.682579,41.5371078 192.682579,42.1221077 C192.412579,43.4721077 191.962579,44.7771077 191.332579,46.0371077 C190.747579,47.2521081 190.005079,48.3321082 189.105079,49.2771082 C188.205079,50.1771082 187.147579,50.9196082 185.932579,51.5046082 C184.717579,52.0446082 183.367579,52.3146082 181.882579,52.3146082 C180.667579,52.3146082 179.475079,52.1571082 178.305079,51.8421082 C177.180079,51.4821082 176.167579,50.8521082 175.267579,49.9521082 C174.367579,48.8721082 173.557579,47.4546081 172.837579,45.6996077 C172.162579,43.8996077 171.555079,42.1446077 171.015079,40.4346078 C170.385079,38.4096078 169.822579,36.2946078 169.327579,34.0896078 L169.327579,34.0896078 Z" id="path4198"></path>
                        <path d="M223.196799,39.1521078 C223.466799,39.0621078 223.669299,39.0171078 223.804299,39.0171078 C224.254299,39.0171078 224.614299,39.2421078 224.884299,39.6921078 C225.199299,40.0971078 225.356799,40.5471078 225.356799,41.0421078 C225.356799,41.7621078 224.906799,42.3696077 224.006799,42.8646077 C223.106799,43.3146077 222.094299,43.6971077 220.969299,44.0121077 C219.889299,44.2821077 218.831799,44.4846077 217.796799,44.6196077 C216.806799,44.7546077 216.199299,44.8221077 215.974299,44.8221077 C215.299299,44.8221077 214.534299,44.7546077 213.679299,44.6196077 C213.589299,44.7996077 213.521799,45.0021077 213.476799,45.2271077 C213.431799,45.4071077 213.364299,45.6096077 213.274299,45.8346077 C212.104299,48.894608 210.619299,51.1221082 208.819299,52.5171082 C207.064299,53.9571082 204.971799,54.6771082 202.541799,54.6771082 C201.461799,54.6771082 200.291799,54.5196082 199.031799,54.2046082 C197.816799,53.9346082 196.534299,53.5521082 195.184299,53.0571082 C192.844299,52.1571082 191.179299,50.8071082 190.189299,49.0071082 C189.199299,47.1621079 188.704299,45.1821077 188.704299,43.0671077 C188.704299,40.8621078 189.041799,38.8596078 189.716799,37.0596078 C190.346799,35.2596078 191.201799,33.7521078 192.281799,32.5371078 C193.361799,31.2771078 194.576799,30.3096078 195.926799,29.6346078 C197.321799,28.9596078 198.739299,28.6221078 200.179299,28.6221078 C200.944299,28.6221078 201.799299,28.7121078 202.744299,28.8921078 C203.689299,29.0271078 204.589299,29.2521078 205.444299,29.5671078 C206.299299,29.8821078 207.019299,30.2421078 207.604299,30.6471078 C208.234299,31.0521078 208.594299,31.5021078 208.684299,31.9971078 C210.484299,32.8971078 211.789299,34.1796078 212.599299,35.8446078 C213.454299,37.5096078 213.926799,39.2421078 214.016799,41.0421078 C214.331799,41.0871078 214.601799,41.1096078 214.826799,41.1096078 L215.569299,41.1096078 C216.154299,41.1096078 216.694299,41.0646078 217.189299,40.9746078 C217.684299,40.8846078 218.201799,40.7721078 218.741799,40.6371078 C219.326799,40.4571078 219.956799,40.2546078 220.631799,40.0296078 C221.351799,39.7596078 222.206799,39.4671078 223.196799,39.1521078 L223.196799,39.1521078 Z M193.361799,38.6121078 C192.776799,40.0971078 192.484299,41.5371078 192.484299,42.9321077 C192.484299,44.5071077 192.844299,45.7896077 193.564299,46.7796077 C194.329299,47.769608 195.229299,48.5796082 196.264299,49.2096082 C197.344299,49.7946082 198.446799,50.1996082 199.571799,50.4246082 C200.741799,50.6496082 201.731799,50.7621082 202.541799,50.7621082 C204.071799,50.7621082 205.376799,50.2896082 206.456799,49.3446082 C207.536799,48.3996082 208.526799,46.7796081 209.426799,44.4846077 C209.516799,44.2146077 209.561799,43.9671077 209.561799,43.7421077 C208.751799,43.5171077 207.716799,43.2246077 206.456799,42.8646077 C205.196799,42.5046077 203.959299,42.0546077 202.744299,41.5146078 C201.529299,40.9296078 200.471799,40.2321078 199.571799,39.4221078 C198.716799,38.6121078 198.289299,37.6671078 198.289299,36.5871078 C198.289299,36.0021078 198.401799,35.5071078 198.626799,35.1021078 C198.851799,34.6971078 199.121799,34.2921078 199.436799,33.8871078 C198.896799,34.1571078 198.356799,34.3371078 197.816799,34.4271078 C197.321799,34.5171078 196.804299,34.6746078 196.264299,34.8996078 C195.769299,35.1246078 195.274299,35.5071078 194.779299,36.0471078 C194.284299,36.5871078 193.811799,37.4421078 193.361799,38.6121078 L193.361799,38.6121078 Z M206.389299,34.8996078 C205.804299,34.6746078 205.219299,34.5621078 204.634299,34.5621078 C203.914299,34.5621078 203.329299,34.7196078 202.879299,35.0346078 C202.474299,35.3046078 202.204299,35.6196078 202.069299,35.9796078 L202.069299,36.1821078 C202.069299,36.5871078 202.406799,37.0146078 203.081799,37.4646078 C203.756799,37.8696078 204.544299,38.2521078 205.444299,38.6121078 C206.344299,38.9721078 207.244299,39.2871078 208.144299,39.5571078 C209.089299,39.7821078 209.831799,39.9621078 210.371799,40.0971078 C210.146799,39.0171078 209.719299,38.0046078 209.089299,37.0596078 C208.459299,36.0696078 207.559299,35.3496078 206.389299,34.8996078 L206.389299,34.8996078 Z" id="path4200"></path>
                        <path d="M252.854609,41.5146078 C251.099609,44.2146077 248.894609,46.4646079 246.239609,48.2646082 C243.629609,50.0646082 240.704609,50.9646082 237.464609,50.9646082 C235.574609,50.9646082 233.662109,50.6271082 231.727109,49.9521082 C229.702109,49.4571082 227.879609,48.6471082 226.259609,47.5221082 C225.584609,47.0721079 224.887109,46.5321077 224.167109,45.9021077 C223.492109,45.2271077 222.884609,44.4621077 222.344609,43.6071077 C221.804609,42.7071077 221.354609,41.7171078 220.994609,40.6371078 C220.589609,39.5121078 220.364609,38.2746078 220.319609,36.9246078 C220.499609,35.6646078 220.679609,34.3371078 220.859609,32.9421078 C220.994609,31.5021078 221.242109,30.1071078 221.602109,28.7571078 C221.917109,27.3621078 222.389609,26.0346078 223.019609,24.7746078 C223.604609,23.5146079 224.414609,22.4121079 225.449609,21.4671079 C226.484609,20.4771079 227.767109,19.7121079 229.297109,19.1721079 C230.872109,18.5871079 232.807109,18.2946079 235.102109,18.2946079 C236.317109,18.2946079 237.464609,18.5421079 238.544609,19.0371079 C239.624609,19.5321079 240.569609,20.2296079 241.379609,21.1296079 C242.189609,22.0296079 242.842109,23.1096079 243.337109,24.3696079 C243.832109,25.6296078 244.079609,27.0246078 244.079609,28.5546078 C244.079609,29.1396078 244.057109,29.8146078 244.012109,30.5796078 C243.967109,31.3446078 243.832109,32.0646078 243.607109,32.7396078 C243.382109,33.4146078 243.022109,33.9771078 242.527109,34.4271078 C242.032109,34.8771078 241.334609,35.1021078 240.434609,35.1021078 C240.119609,35.1021078 239.849609,34.9896078 239.624609,34.7646078 C239.444609,34.4946078 239.264609,34.2021078 239.084609,33.8871078 C238.904609,33.5271078 238.747109,33.0996078 238.612109,32.6046078 C238.612109,32.4696078 238.679609,32.2446078 238.814609,31.9296078 C238.949609,31.5696078 239.084609,31.1871078 239.219609,30.7821078 C239.399609,30.3771078 239.557109,29.9721078 239.692109,29.5671078 C239.827109,29.1621078 239.894609,28.8246078 239.894609,28.5546078 C239.894609,27.6546078 239.759609,26.8446078 239.489609,26.1246078 C239.219609,25.3596078 238.859609,24.7071078 238.409609,24.1671079 C237.959609,23.6271079 237.442109,23.2221079 236.857109,22.9521079 C236.272109,22.6371079 235.687109,22.4796079 235.102109,22.4796079 C234.652109,22.4796079 233.887109,22.6821079 232.807109,23.0871079 C231.727109,23.4921079 230.602109,24.2121079 229.432109,25.2471078 C228.307109,26.2821078 227.294609,27.6771078 226.394609,29.4321078 C225.539609,31.1871078 225.112109,33.4371078 225.112109,36.1821078 C225.112109,39.4221078 226.079609,41.7621078 228.014609,43.2021077 C229.949609,44.5971077 232.694609,45.4971077 236.249609,45.9021077 C239.219609,45.9021077 241.739609,45.3396077 243.809609,44.2146077 C245.924609,43.0896077 247.702109,41.5821078 249.142109,39.6921078 C249.682109,39.0171078 250.334609,38.6796078 251.099609,38.6796078 C251.639609,38.6796078 252.112109,38.8596078 252.517109,39.2196078 C252.967109,39.5346078 253.192109,39.9396078 253.192109,40.4346078 C253.192109,40.8396078 253.079609,41.1996078 252.854609,41.5146078 L252.854609,41.5146078 Z" id="path4202"></path>
                        <path d="M250.097659,43.2696077 C250.007659,41.7846078 249.940159,40.3221078 249.895159,38.8821078 C249.850159,37.3971078 249.827659,35.8896078 249.827659,34.3596078 C249.827659,31.3446078 249.962659,28.2396078 250.232659,25.0446078 C250.502659,21.8496079 250.997659,18.3621079 251.717659,14.5821079 C251.852659,13.3221079 251.987659,12.1071079 252.122659,10.9371079 C252.257659,9.72210793 252.460159,8.55210794 252.730159,7.42710795 C253.000159,6.25710795 253.382659,5.13210796 253.877659,4.05210797 C254.417659,2.92710797 255.160159,1.80210798 256.105159,0.677107986 C256.825159,0.362107988 257.432659,0.204607989 257.927659,0.204607989 C258.422659,0.204607989 258.872659,0.362107988 259.277659,0.677107986 C261.437659,3.10710797 262.990158,5.64960796 263.935158,8.30460794 C264.880158,10.9596079 265.352658,13.6821079 265.352658,16.4721079 C265.352658,18.8571079 265.060158,21.2196079 264.475158,23.5596079 C263.935158,25.8996078 263.170158,28.2396078 262.180159,30.5796078 C261.190159,32.8746078 260.042659,35.1696078 258.737659,37.4646078 C257.432659,39.7146078 256.037659,41.9646077 254.552659,44.2146077 C254.642659,45.5196077 254.732659,46.5096079 254.822659,47.1846082 C254.912659,47.8596082 254.980159,48.4896082 255.025159,49.0746082 C255.115159,49.6596082 255.182659,50.3571082 255.227659,51.1671082 C255.317659,51.9321082 255.385159,53.1246082 255.430159,54.7446082 C256.510159,54.0696082 257.387659,53.1471082 258.062659,51.9771082 C258.782659,50.7621082 259.457659,49.5021082 260.087659,48.1971082 C260.762659,46.8471079 261.505159,45.5646077 262.315158,44.3496077 C263.125158,43.0896077 264.205158,42.0546077 265.555158,41.2446078 C266.500158,40.7496078 267.445158,40.2546078 268.390158,39.7596078 C269.380158,39.2196078 270.370158,38.9496078 271.360158,38.9496078 C272.395158,38.9496078 273.205158,39.2196078 273.790158,39.7596078 C274.375158,40.2546078 274.825158,40.8846078 275.140158,41.6496078 C275.500158,42.3696077 275.792658,43.1571077 276.017658,44.0121077 C276.242658,44.8671077 276.535158,45.6321077 276.895158,46.3071077 C277.210158,46.7121077 277.502658,47.1621079 277.772658,47.6571082 C278.087658,48.1071082 278.402658,48.5121082 278.717658,48.8721082 C279.077658,49.2321082 279.460158,49.5471082 279.865158,49.8171082 C280.270158,50.0421082 280.720158,50.1546082 281.215158,50.1546082 C283.195158,50.1546082 284.905158,49.8171082 286.345158,49.1421082 C287.830158,48.4671082 289.157658,47.6121081 290.327658,46.5771077 C291.542658,45.4971077 292.712658,44.3046077 293.837658,42.9996077 C294.962658,41.6496078 296.177658,40.2996078 297.482658,38.9496078 C297.842658,38.5896078 298.270158,38.4096078 298.765158,38.4096078 C299.395158,38.4096078 299.957658,38.6571078 300.452658,39.1521078 C300.947658,39.6471078 301.195158,40.2096078 301.195158,40.8396078 C301.195158,41.3346078 301.015158,41.7621078 300.655158,42.1221077 C299.260158,43.4721077 297.865158,44.9121077 296.470158,46.4421077 C295.075158,47.972108 293.612658,49.3896082 292.082658,50.6946082 C290.552658,51.9996082 288.932658,53.0796082 287.222658,53.9346082 C285.512658,54.7896082 283.645158,55.2171082 281.620158,55.2171082 C280.675158,55.2171082 279.775158,55.0146082 278.920158,54.6096082 C278.065158,54.2046082 277.277658,53.6646082 276.557658,52.9896082 C275.882658,52.3596082 275.252658,51.6396082 274.667658,50.8296082 C274.082658,49.9746082 273.565158,49.0971082 273.115158,48.1971082 C272.800158,47.7471082 272.597658,47.2746081 272.507658,46.7796077 C272.462658,46.2396077 272.395158,45.7446077 272.305158,45.2946077 C272.260158,44.8446077 272.125158,44.4621077 271.900158,44.1471077 C271.720158,43.8321077 271.337658,43.6746077 270.752658,43.6746077 C269.357658,43.6746077 268.165158,44.0796077 267.175158,44.8896077 C266.185158,45.6996077 265.307658,46.7346079 264.542658,47.9946082 C263.777658,49.2096082 263.057658,50.5371082 262.382658,51.9771082 C261.707659,53.3721082 260.987659,54.6771082 260.222659,55.8921082 C259.457659,57.1521081 258.580159,58.1871081 257.590159,58.9971082 C256.645159,59.8071081 255.475159,60.2121081 254.080159,60.2121081 L253.540159,60.2121081 C253.045159,60.3471081 252.662659,60.4146081 252.392659,60.4146081 C251.492659,60.4146081 251.042659,59.7171081 251.042659,58.3221082 C251.042659,55.3521082 250.997659,52.5621082 250.907659,49.9521082 C250.772659,47.3421079 250.637659,44.8221077 250.502659,42.3921077 L250.097659,43.2696077 L250.097659,43.2696077 Z M257.792659,5.94210796 C257.342659,6.66210795 256.982659,7.40460795 256.712659,8.16960794 C256.487659,8.88960794 256.307659,9.65460793 256.172659,10.4646079 C256.037659,11.2296079 255.925159,12.0621079 255.835159,12.9621079 C255.745159,13.8171079 255.632659,14.7621079 255.497659,15.7971079 C254.957659,18.9471079 254.575159,21.8721079 254.350159,24.5721078 C254.125159,27.2721078 254.012659,29.9046078 254.012659,32.4696078 L254.012659,34.8996078 C254.057659,35.6646078 254.102659,36.4296078 254.147659,37.1946078 C256.172659,33.8196078 257.860159,30.4221078 259.210159,27.0021078 C260.560159,23.5821079 261.235159,20.2071079 261.235159,16.8771079 C261.235159,14.9421079 260.965159,13.0746079 260.425159,11.2746079 C259.885159,9.42960794 259.007659,7.65210795 257.792659,5.94210796 L257.792659,5.94210796 Z" id="path4204"></path>
                        <path d="M331.038588,39.1521078 C331.308588,39.0621078 331.511088,39.0171078 331.646088,39.0171078 C332.096088,39.0171078 332.456088,39.2421078 332.726088,39.6921078 C333.041088,40.0971078 333.198588,40.5471078 333.198588,41.0421078 C333.198588,41.7621078 332.748588,42.3696077 331.848588,42.8646077 C330.948588,43.3146077 329.936088,43.6971077 328.811088,44.0121077 C327.731088,44.2821077 326.673588,44.4846077 325.638588,44.6196077 C324.648588,44.7546077 324.041088,44.8221077 323.816088,44.8221077 C323.141088,44.8221077 322.376088,44.7546077 321.521088,44.6196077 C321.431088,44.7996077 321.363588,45.0021077 321.318588,45.2271077 C321.273588,45.4071077 321.206088,45.6096077 321.116088,45.8346077 C319.946088,48.894608 318.461088,51.1221082 316.661088,52.5171082 C314.906088,53.9571082 312.813588,54.6771082 310.383588,54.6771082 C309.303588,54.6771082 308.133588,54.5196082 306.873588,54.2046082 C305.658588,53.9346082 304.376088,53.5521082 303.026088,53.0571082 C300.686088,52.1571082 299.021088,50.8071082 298.031088,49.0071082 C297.041088,47.1621079 296.546088,45.1821077 296.546088,43.0671077 C296.546088,40.8621078 296.883588,38.8596078 297.558588,37.0596078 C298.188588,35.2596078 299.043588,33.7521078 300.123588,32.5371078 C301.203588,31.2771078 302.418588,30.3096078 303.768588,29.6346078 C305.163588,28.9596078 306.581088,28.6221078 308.021088,28.6221078 C308.786088,28.6221078 309.641088,28.7121078 310.586088,28.8921078 C311.531088,29.0271078 312.431088,29.2521078 313.286088,29.5671078 C314.141088,29.8821078 314.861088,30.2421078 315.446088,30.6471078 C316.076088,31.0521078 316.436088,31.5021078 316.526088,31.9971078 C318.326088,32.8971078 319.631088,34.1796078 320.441088,35.8446078 C321.296088,37.5096078 321.768588,39.2421078 321.858588,41.0421078 C322.173588,41.0871078 322.443588,41.1096078 322.668588,41.1096078 L323.411088,41.1096078 C323.996088,41.1096078 324.536088,41.0646078 325.031088,40.9746078 C325.526088,40.8846078 326.043588,40.7721078 326.583588,40.6371078 C327.168588,40.4571078 327.798588,40.2546078 328.473588,40.0296078 C329.193588,39.7596078 330.048588,39.4671078 331.038588,39.1521078 L331.038588,39.1521078 Z M301.203588,38.6121078 C300.618588,40.0971078 300.326088,41.5371078 300.326088,42.9321077 C300.326088,44.5071077 300.686088,45.7896077 301.406088,46.7796077 C302.171088,47.769608 303.071088,48.5796082 304.106088,49.2096082 C305.186088,49.7946082 306.288588,50.1996082 307.413588,50.4246082 C308.583588,50.6496082 309.573588,50.7621082 310.383588,50.7621082 C311.913588,50.7621082 313.218588,50.2896082 314.298588,49.3446082 C315.378588,48.3996082 316.368588,46.7796081 317.268588,44.4846077 C317.358588,44.2146077 317.403588,43.9671077 317.403588,43.7421077 C316.593588,43.5171077 315.558588,43.2246077 314.298588,42.8646077 C313.038588,42.5046077 311.801088,42.0546077 310.586088,41.5146078 C309.371088,40.9296078 308.313588,40.2321078 307.413588,39.4221078 C306.558588,38.6121078 306.131088,37.6671078 306.131088,36.5871078 C306.131088,36.0021078 306.243588,35.5071078 306.468588,35.1021078 C306.693588,34.6971078 306.963588,34.2921078 307.278588,33.8871078 C306.738588,34.1571078 306.198588,34.3371078 305.658588,34.4271078 C305.163588,34.5171078 304.646088,34.6746078 304.106088,34.8996078 C303.611088,35.1246078 303.116088,35.5071078 302.621088,36.0471078 C302.126088,36.5871078 301.653588,37.4421078 301.203588,38.6121078 L301.203588,38.6121078 Z M314.231088,34.8996078 C313.646088,34.6746078 313.061088,34.5621078 312.476088,34.5621078 C311.756088,34.5621078 311.171088,34.7196078 310.721088,35.0346078 C310.316088,35.3046078 310.046088,35.6196078 309.911088,35.9796078 L309.911088,36.1821078 C309.911088,36.5871078 310.248588,37.0146078 310.923588,37.4646078 C311.598588,37.8696078 312.386088,38.2521078 313.286088,38.6121078 C314.186088,38.9721078 315.086088,39.2871078 315.986088,39.5571078 C316.931088,39.7821078 317.673588,39.9621078 318.213588,40.0971078 C317.988588,39.0171078 317.561088,38.0046078 316.931088,37.0596078 C316.301088,36.0696078 315.401088,35.3496078 314.231088,34.8996078 L314.231088,34.8996078 Z" id="path4206"></path>
                        <path d="M360.696408,41.5146078 C358.941408,44.2146077 356.736408,46.4646079 354.081408,48.2646082 C351.471408,50.0646082 348.546408,50.9646082 345.306408,50.9646082 C343.416408,50.9646082 341.503908,50.6271082 339.568908,49.9521082 C337.543908,49.4571082 335.721408,48.6471082 334.101408,47.5221082 C333.426408,47.0721079 332.728908,46.5321077 332.008908,45.9021077 C331.333908,45.2271077 330.726408,44.4621077 330.186408,43.6071077 C329.646408,42.7071077 329.196408,41.7171078 328.836408,40.6371078 C328.431408,39.5121078 328.206408,38.2746078 328.161408,36.9246078 C328.341408,35.6646078 328.521408,34.3371078 328.701408,32.9421078 C328.836408,31.5021078 329.083908,30.1071078 329.443908,28.7571078 C329.758908,27.3621078 330.231408,26.0346078 330.861408,24.7746078 C331.446408,23.5146079 332.256408,22.4121079 333.291408,21.4671079 C334.326408,20.4771079 335.608908,19.7121079 337.138908,19.1721079 C338.713908,18.5871079 340.648908,18.2946079 342.943908,18.2946079 C344.158908,18.2946079 345.306408,18.5421079 346.386408,19.0371079 C347.466408,19.5321079 348.411408,20.2296079 349.221408,21.1296079 C350.031408,22.0296079 350.683908,23.1096079 351.178908,24.3696079 C351.673908,25.6296078 351.921408,27.0246078 351.921408,28.5546078 C351.921408,29.1396078 351.898908,29.8146078 351.853908,30.5796078 C351.808908,31.3446078 351.673908,32.0646078 351.448908,32.7396078 C351.223908,33.4146078 350.863908,33.9771078 350.368908,34.4271078 C349.873908,34.8771078 349.176408,35.1021078 348.276408,35.1021078 C347.961408,35.1021078 347.691408,34.9896078 347.466408,34.7646078 C347.286408,34.4946078 347.106408,34.2021078 346.926408,33.8871078 C346.746408,33.5271078 346.588908,33.0996078 346.453908,32.6046078 C346.453908,32.4696078 346.521408,32.2446078 346.656408,31.9296078 C346.791408,31.5696078 346.926408,31.1871078 347.061408,30.7821078 C347.241408,30.3771078 347.398908,29.9721078 347.533908,29.5671078 C347.668908,29.1621078 347.736408,28.8246078 347.736408,28.5546078 C347.736408,27.6546078 347.601408,26.8446078 347.331408,26.1246078 C347.061408,25.3596078 346.701408,24.7071078 346.251408,24.1671079 C345.801408,23.6271079 345.283908,23.2221079 344.698908,22.9521079 C344.113908,22.6371079 343.528908,22.4796079 342.943908,22.4796079 C342.493908,22.4796079 341.728908,22.6821079 340.648908,23.0871079 C339.568908,23.4921079 338.443908,24.2121079 337.273908,25.2471078 C336.148908,26.2821078 335.136408,27.6771078 334.236408,29.4321078 C333.381408,31.1871078 332.953908,33.4371078 332.953908,36.1821078 C332.953908,39.4221078 333.921408,41.7621078 335.856408,43.2021077 C337.791408,44.5971077 340.536408,45.4971077 344.091408,45.9021077 C347.061408,45.9021077 349.581408,45.3396077 351.651408,44.2146077 C353.766408,43.0896077 355.543908,41.5821078 356.983908,39.6921078 C357.523908,39.0171078 358.176408,38.6796078 358.941408,38.6796078 C359.481408,38.6796078 359.953908,38.8596078 360.358908,39.2196078 C360.808908,39.5346078 361.033908,39.9396078 361.033908,40.4346078 C361.033908,40.8396078 360.921408,41.1996078 360.696408,41.5146078 L360.696408,41.5146078 Z" id="path4208"></path>
                        <path d="M391.419448,39.1521078 C391.689448,39.0621078 391.891948,39.0171078 392.026948,39.0171078 C392.476948,39.0171078 392.836948,39.2421078 393.106948,39.6921078 C393.421948,40.0971078 393.579448,40.5471078 393.579448,41.0421078 C393.579448,41.7621078 393.129448,42.3696077 392.229448,42.8646077 C391.329448,43.3146077 390.316948,43.6971077 389.191948,44.0121077 C388.111948,44.2821077 387.054448,44.4846077 386.019448,44.6196077 C385.029448,44.7546077 384.421948,44.8221077 384.196948,44.8221077 C383.521948,44.8221077 382.756948,44.7546077 381.901948,44.6196077 C381.811948,44.7996077 381.744448,45.0021077 381.699448,45.2271077 C381.654448,45.4071077 381.586948,45.6096077 381.496948,45.8346077 C380.326948,48.894608 378.841948,51.1221082 377.041948,52.5171082 C375.286948,53.9571082 373.194448,54.6771082 370.764448,54.6771082 C369.684448,54.6771082 368.514448,54.5196082 367.254448,54.2046082 C366.039448,53.9346082 364.756948,53.5521082 363.406948,53.0571082 C361.066948,52.1571082 359.401948,50.8071082 358.411948,49.0071082 C357.421948,47.1621079 356.926948,45.1821077 356.926948,43.0671077 C356.926948,40.8621078 357.264448,38.8596078 357.939448,37.0596078 C358.569448,35.2596078 359.424448,33.7521078 360.504448,32.5371078 C361.584448,31.2771078 362.799448,30.3096078 364.149448,29.6346078 C365.544448,28.9596078 366.961948,28.6221078 368.401948,28.6221078 C369.166948,28.6221078 370.021948,28.7121078 370.966948,28.8921078 C371.911948,29.0271078 372.811948,29.2521078 373.666948,29.5671078 C374.521948,29.8821078 375.241948,30.2421078 375.826948,30.6471078 C376.456948,31.0521078 376.816948,31.5021078 376.906948,31.9971078 C378.706948,32.8971078 380.011948,34.1796078 380.821948,35.8446078 C381.676948,37.5096078 382.149448,39.2421078 382.239448,41.0421078 C382.554448,41.0871078 382.824448,41.1096078 383.049448,41.1096078 L383.791948,41.1096078 C384.376948,41.1096078 384.916948,41.0646078 385.411948,40.9746078 C385.906948,40.8846078 386.424448,40.7721078 386.964448,40.6371078 C387.549448,40.4571078 388.179448,40.2546078 388.854448,40.0296078 C389.574448,39.7596078 390.429448,39.4671078 391.419448,39.1521078 L391.419448,39.1521078 Z M361.584448,38.6121078 C360.999448,40.0971078 360.706948,41.5371078 360.706948,42.9321077 C360.706948,44.5071077 361.066948,45.7896077 361.786948,46.7796077 C362.551948,47.769608 363.451948,48.5796082 364.486948,49.2096082 C365.566948,49.7946082 366.669448,50.1996082 367.794448,50.4246082 C368.964448,50.6496082 369.954448,50.7621082 370.764448,50.7621082 C372.294448,50.7621082 373.599448,50.2896082 374.679448,49.3446082 C375.759448,48.3996082 376.749448,46.7796081 377.649448,44.4846077 C377.739448,44.2146077 377.784448,43.9671077 377.784448,43.7421077 C376.974448,43.5171077 375.939448,43.2246077 374.679448,42.8646077 C373.419448,42.5046077 372.181948,42.0546077 370.966948,41.5146078 C369.751948,40.9296078 368.694448,40.2321078 367.794448,39.4221078 C366.939448,38.6121078 366.511948,37.6671078 366.511948,36.5871078 C366.511948,36.0021078 366.624448,35.5071078 366.849448,35.1021078 C367.074448,34.6971078 367.344448,34.2921078 367.659448,33.8871078 C367.119448,34.1571078 366.579448,34.3371078 366.039448,34.4271078 C365.544448,34.5171078 365.026948,34.6746078 364.486948,34.8996078 C363.991948,35.1246078 363.496948,35.5071078 363.001948,36.0471078 C362.506948,36.5871078 362.034448,37.4421078 361.584448,38.6121078 L361.584448,38.6121078 Z M374.611948,34.8996078 C374.026948,34.6746078 373.441948,34.5621078 372.856948,34.5621078 C372.136948,34.5621078 371.551948,34.7196078 371.101948,35.0346078 C370.696948,35.3046078 370.426948,35.6196078 370.291948,35.9796078 L370.291948,36.1821078 C370.291948,36.5871078 370.629448,37.0146078 371.304448,37.4646078 C371.979448,37.8696078 372.766948,38.2521078 373.666948,38.6121078 C374.566948,38.9721078 375.466948,39.2871078 376.366948,39.5571078 C377.311948,39.7821078 378.054448,39.9621078 378.594448,40.0971078 C378.369448,39.0171078 377.941948,38.0046078 377.311948,37.0596078 C376.681948,36.0696078 375.781948,35.3496078 374.611948,34.8996078 L374.611948,34.8996078 Z" id="path4210"></path>
                        <path d="M481.489767,42.1221077 C480.679767,42.4371077 479.802267,42.7296077 478.857267,42.9996077 C477.912267,43.2696077 477.012267,43.4046077 476.157267,43.4046077 C474.402267,43.4046077 472.534767,42.9321077 470.554767,41.9871077 C468.574767,41.0421078 466.662267,39.5121078 464.817267,37.3971078 L457.054767,29.0271078 C455.254767,26.8671078 453.747267,25.3371078 452.532267,24.4371078 C451.362267,23.5371079 450.462267,23.0871079 449.832267,23.0871079 C448.437267,24.3921079 447.199767,26.1021078 446.119767,28.2171078 C445.084767,30.2871078 444.162267,32.5146078 443.352267,34.8996078 C442.542267,37.2846078 441.844767,39.7146078 441.259767,42.1896077 C440.719767,44.6196077 440.202267,46.8246079 439.707267,48.8046082 C439.257267,50.7846082 438.829767,52.3821082 438.424767,53.5971082 C438.019767,54.8571082 437.614767,55.4871082 437.209767,55.4871082 C436.939768,55.4871082 436.534768,54.8571082 435.994768,53.5971082 C435.499768,52.3821082 434.914768,50.8296082 434.239768,48.9396082 C433.564768,47.0046079 432.799768,44.8896077 431.944768,42.5946077 C431.134768,40.2546078 430.257268,38.0046078 429.312268,35.8446078 C428.412268,33.6396078 427.444768,31.6596078 426.409768,29.9046078 C425.419768,28.1046078 424.429768,26.8221078 423.439768,26.0571078 C423.259768,26.3721078 422.764768,27.2271078 421.954768,28.6221078 C421.144768,30.0171078 420.177268,31.6821078 419.052268,33.6171078 C417.972268,35.5071078 416.779768,37.5321078 415.474768,39.6921078 C414.169768,41.8071078 412.887268,43.7646077 411.627268,45.5646077 C410.412268,47.3646081 409.309768,48.8721082 408.319768,50.0871082 C407.329768,51.2571082 406.587268,51.8421082 406.092268,51.8421082 C405.192268,51.8421082 404.652268,51.5721082 404.472268,51.0321082 C404.337268,50.4471082 404.269768,49.7271082 404.269768,48.8721082 C404.809768,46.1271079 405.304768,43.5621077 405.754768,41.1771078 C405.934768,40.1871078 406.114768,39.1746078 406.294768,38.1396078 C406.474768,37.0596078 406.632268,36.0696078 406.767268,35.1696078 C406.947268,34.2246078 407.082268,33.3696078 407.172268,32.6046078 C407.262268,31.8396078 407.307268,31.2321078 407.307268,30.7821078 C407.307268,29.7471078 407.262268,28.8921078 407.172268,28.2171078 C407.082268,27.4971078 406.902268,26.8896078 406.632268,26.3946078 C406.407268,25.8996078 406.092268,25.4946078 405.687268,25.1796078 C405.327268,24.8646078 404.854768,24.5496078 404.269768,24.2346079 L396.507268,36.2496078 C396.327268,36.5196078 396.102268,36.9921078 395.832268,37.6671078 C395.562268,38.2971078 395.292268,38.9496078 395.022268,39.6246078 C394.752268,40.2546078 394.459768,40.8396078 394.144768,41.3796078 C393.874768,41.8746078 393.627268,42.1221077 393.402268,42.1221077 C393.357268,42.1221077 393.312268,42.0996077 393.267268,42.0546077 C392.592268,42.7296077 391.984768,43.0671077 391.444768,43.0671077 C390.994768,43.0671077 390.634768,42.9096077 390.364768,42.5946077 C390.049768,42.2346077 389.802268,41.8521078 389.622268,41.4471078 C389.442268,40.9521078 389.284768,40.4121078 389.149768,39.8271078 C389.194768,39.7371078 389.419768,39.3996078 389.824768,38.8146078 C390.184768,38.1846078 390.589768,37.5096078 391.039768,36.7896078 C391.489768,36.0696078 391.894768,35.4171078 392.254768,34.8321078 C392.659768,34.2471078 392.884768,33.9321078 392.929768,33.8871078 L401.907268,20.7246079 C401.907268,20.3646079 402.132268,20.1621079 402.582268,20.1171079 C403.032268,20.0721079 403.414768,20.0496079 403.729768,20.0496079 C406.744768,20.6796079 408.882268,21.9621079 410.142268,23.8971079 C411.447268,25.7871078 412.099768,28.0821078 412.099768,30.7821078 C412.099768,31.6821078 411.987268,32.8746078 411.762268,34.3596078 C411.537268,35.7996078 411.244768,37.2171078 410.884768,38.6121078 C412.774768,35.6421078 414.327268,33.0321078 415.542268,30.7821078 C416.802268,28.5321078 417.859768,26.6646078 418.714768,25.1796078 C419.614768,23.6946079 420.357268,22.5921079 420.942268,21.8721079 C421.572268,21.1071079 422.224768,20.7246079 422.899768,20.7246079 C424.249768,20.7246079 425.599768,21.3996079 426.949768,22.7496079 C428.344768,24.0546079 429.649768,25.7421078 430.864768,27.8121078 C432.124768,29.8371078 433.249768,32.0871078 434.239768,34.5621078 C435.229768,36.9921078 436.039768,39.3321078 436.669768,41.5821078 L439.032267,34.4271078 C440.067267,31.2771078 440.944767,28.7571078 441.664767,26.8671078 C442.429767,24.9321078 443.149767,23.4246079 443.824767,22.3446079 C444.544767,21.2646079 445.264767,20.4996079 445.984767,20.0496079 C446.749767,19.5546079 447.649767,19.1721079 448.684767,18.9021079 C450.079767,19.2171079 451.227267,19.5546079 452.127267,19.9146079 C453.072267,20.2746079 453.927267,20.7246079 454.692267,21.2646079 C455.457267,21.7596079 456.199767,22.3896079 456.919767,23.1546079 C457.639767,23.9196079 458.472267,24.8646078 459.417267,25.9896078 C460.362267,27.0696078 461.509767,28.3521078 462.859767,29.8371078 C464.209767,31.3221078 465.874767,33.0546078 467.854767,35.0346078 C469.339767,36.2046078 470.712267,37.1946078 471.972267,38.0046078 C473.277267,38.8146078 474.672267,39.2196078 476.157267,39.2196078 C477.372267,39.2196078 478.587267,38.7921078 479.802267,37.9371078 C480.477267,38.1171078 481.062267,38.2971078 481.557267,38.4771078 C482.007267,38.6571078 482.412267,38.8821078 482.772267,39.1521078 C483.132267,39.4221078 483.312267,39.7371078 483.312267,40.0971078 C483.312267,40.4121078 483.177267,40.7271078 482.907267,41.0421078 C482.637267,41.3571078 482.164767,41.7171078 481.489767,42.1221077 L481.489767,42.1221077 Z" id="path4212"></path>
                        <path d="M517.562187,42.3921077 C517.562187,42.7971077 517.314687,43.4046077 516.819687,44.2146077 C516.324687,45.0246077 515.717187,45.8346077 514.997187,46.6446077 C514.277187,47.4546081 513.534687,48.1521082 512.769687,48.7371082 C512.004687,49.3221082 511.352187,49.6146082 510.812187,49.6146082 C509.417187,49.6146082 508.179687,49.2096082 507.099687,48.3996082 C506.019687,47.5446082 505.052187,46.5096081 504.197187,45.2946077 C503.387187,44.0346077 502.667187,42.6846077 502.037187,41.2446078 C501.407187,39.7596078 500.844687,38.4096078 500.349687,37.1946078 C499.899687,35.9346078 499.494687,34.8996078 499.134687,34.0896078 C498.819687,33.2346078 498.504687,32.8071078 498.189687,32.8071078 L498.797187,37.5996078 C498.797187,41.5596078 498.167187,44.5746077 496.907187,46.6446077 C495.692187,48.714608 493.734687,49.9071082 491.034687,50.2221082 C489.504687,50.2221082 487.862187,49.6596082 486.107187,48.5346082 C484.352187,47.4096079 482.597187,45.7671077 480.842187,43.6071077 C479.987187,42.7971077 479.289687,41.9871077 478.749687,41.1771078 C478.209687,40.3671078 477.782187,39.5121078 477.467187,38.6121078 C477.152187,37.7121078 476.949687,36.7446078 476.859687,35.7096078 C476.724687,34.6746078 476.657187,33.5271078 476.657187,32.2671078 C476.657187,30.3321078 477.084687,28.5771078 477.939687,27.0021078 C478.749687,25.4271078 479.739687,24.0771079 480.909687,22.9521079 C482.124687,21.8271079 483.384687,20.9496079 484.689687,20.3196079 C485.994687,19.6446079 487.097187,19.2396079 487.997187,19.1046079 L488.469687,19.1046079 C488.829687,19.1046079 489.347187,19.1721079 490.022187,19.3071079 C490.742187,19.3971079 491.552187,19.6671079 492.452187,20.1171079 C493.397187,20.5671079 494.432187,21.2421079 495.557187,22.1421079 C496.682187,23.0421079 497.829687,24.2571079 498.999687,25.7871078 C500.169687,27.3171078 501.362187,29.2521078 502.577187,31.5921078 C503.792187,33.8871078 504.939687,36.6771078 506.019687,39.9621078 C506.649687,41.8071078 507.279687,43.1796077 507.909687,44.0796077 C508.539687,44.9796077 509.282187,45.4296077 510.137187,45.4296077 C510.452187,45.4296077 510.834687,45.1596077 511.284687,44.6196077 C511.779687,44.0346077 512.252187,43.3821077 512.702187,42.6621077 C513.197187,41.9421077 513.647187,41.2446078 514.052187,40.5696078 C514.457187,39.8496078 514.772187,39.3546078 514.997187,39.0846078 C515.447187,38.6796078 515.942187,38.4771078 516.482187,38.4771078 C517.067187,38.4771078 517.517187,38.7021078 517.832187,39.1521078 C518.192187,39.6021078 518.372187,40.1196078 518.372187,40.7046078 C518.372187,41.0196078 518.304687,41.3346078 518.169687,41.6496078 C518.079687,41.9196077 517.877187,42.1671077 517.562187,42.3921077 L517.562187,42.3921077 Z M493.464687,44.2146077 C493.824687,42.9996077 494.094687,41.9196077 494.274687,40.9746078 C494.499687,40.0296078 494.612187,38.9046078 494.612187,37.5996078 C494.612187,35.8446078 494.522187,34.1121078 494.342187,32.4021078 C494.162187,30.6471078 493.622187,29.0271078 492.722187,27.5421078 C492.407187,26.9571078 492.024687,26.4171078 491.574687,25.9221078 C491.214687,25.5171078 490.764687,25.1571078 490.224687,24.8421078 C489.684687,24.4821078 489.077187,24.2796079 488.402187,24.2346079 C487.367187,24.3696079 486.377187,24.7296078 485.432187,25.3146078 C484.532187,25.8546078 483.744687,26.5296078 483.069687,27.3396078 C482.394687,28.1496078 481.854687,29.0496078 481.449687,30.0396078 C481.044687,30.9846078 480.842187,31.9071078 480.842187,32.8071078 C480.842187,34.7871078 481.292187,36.5871078 482.192187,38.2071078 C483.092187,39.8271078 484.104687,41.2221078 485.229687,42.3921077 C486.399687,43.5171077 487.547187,44.4171077 488.672187,45.0921077 C489.797187,45.7221077 490.584687,46.0371077 491.034687,46.0371077 C491.619687,46.0371077 492.069687,45.9021077 492.384687,45.6321077 C492.744687,45.3171077 493.104687,44.8446077 493.464687,44.2146077 L493.464687,44.2146077 Z" id="path4214"></path>
                        <path d="M545.794057,41.5146078 C544.039057,44.2146077 541.834057,46.4646079 539.179057,48.2646082 C536.569057,50.0646082 533.644057,50.9646082 530.404057,50.9646082 C528.514057,50.9646082 526.601557,50.6271082 524.666557,49.9521082 C522.641557,49.4571082 520.819057,48.6471082 519.199057,47.5221082 C518.524057,47.0721079 517.826557,46.5321077 517.106557,45.9021077 C516.431557,45.2271077 515.824057,44.4621077 515.284057,43.6071077 C514.744057,42.7071077 514.294057,41.7171078 513.934057,40.6371078 C513.529057,39.5121078 513.304057,38.2746078 513.259057,36.9246078 C513.439057,35.6646078 513.619057,34.3371078 513.799057,32.9421078 C513.934057,31.5021078 514.181557,30.1071078 514.541557,28.7571078 C514.856557,27.3621078 515.329057,26.0346078 515.959057,24.7746078 C516.544057,23.5146079 517.354057,22.4121079 518.389057,21.4671079 C519.424057,20.4771079 520.706557,19.7121079 522.236557,19.1721079 C523.811557,18.5871079 525.746557,18.2946079 528.041557,18.2946079 C529.256557,18.2946079 530.404057,18.5421079 531.484057,19.0371079 C532.564057,19.5321079 533.509057,20.2296079 534.319057,21.1296079 C535.129057,22.0296079 535.781557,23.1096079 536.276557,24.3696079 C536.771557,25.6296078 537.019057,27.0246078 537.019057,28.5546078 C537.019057,29.1396078 536.996557,29.8146078 536.951557,30.5796078 C536.906557,31.3446078 536.771557,32.0646078 536.546557,32.7396078 C536.321557,33.4146078 535.961557,33.9771078 535.466557,34.4271078 C534.971557,34.8771078 534.274057,35.1021078 533.374057,35.1021078 C533.059057,35.1021078 532.789057,34.9896078 532.564057,34.7646078 C532.384057,34.4946078 532.204057,34.2021078 532.024057,33.8871078 C531.844057,33.5271078 531.686557,33.0996078 531.551557,32.6046078 C531.551557,32.4696078 531.619057,32.2446078 531.754057,31.9296078 C531.889057,31.5696078 532.024057,31.1871078 532.159057,30.7821078 C532.339057,30.3771078 532.496557,29.9721078 532.631557,29.5671078 C532.766557,29.1621078 532.834057,28.8246078 532.834057,28.5546078 C532.834057,27.6546078 532.699057,26.8446078 532.429057,26.1246078 C532.159057,25.3596078 531.799057,24.7071078 531.349057,24.1671079 C530.899057,23.6271079 530.381557,23.2221079 529.796557,22.9521079 C529.211557,22.6371079 528.626557,22.4796079 528.041557,22.4796079 C527.591557,22.4796079 526.826557,22.6821079 525.746557,23.0871079 C524.666557,23.4921079 523.541557,24.2121079 522.371557,25.2471078 C521.246557,26.2821078 520.234057,27.6771078 519.334057,29.4321078 C518.479057,31.1871078 518.051557,33.4371078 518.051557,36.1821078 C518.051557,39.4221078 519.019057,41.7621078 520.954057,43.2021077 C522.889057,44.5971077 525.634057,45.4971077 529.189057,45.9021077 C532.159057,45.9021077 534.679057,45.3396077 536.749057,44.2146077 C538.864057,43.0896077 540.641557,41.5821078 542.081557,39.6921078 C542.621557,39.0171078 543.274057,38.6796078 544.039057,38.6796078 C544.579057,38.6796078 545.051557,38.8596078 545.456557,39.2196078 C545.906557,39.5346078 546.131557,39.9396078 546.131557,40.4346078 C546.131557,40.8396078 546.019057,41.1996078 545.794057,41.5146078 L545.794057,41.5146078 Z" id="path4216"></path>
                        <path d="M546.007107,16.5396079 C545.692107,16.5396079 545.377107,16.5171079 545.062107,16.4721079 C544.747107,16.3821079 544.454607,16.2021079 544.184607,15.9321079 C543.914607,15.6171079 543.712107,15.1671079 543.577107,14.5821079 C543.397107,13.9971079 543.307107,13.1646079 543.307107,12.0846079 C543.622107,10.6446079 544.297107,9.49710794 545.332107,8.64210794 C546.367107,7.78710795 547.514607,7.35960795 548.774607,7.35960795 C549.269607,7.40460795 549.652107,7.58460795 549.922107,7.89960794 C550.237107,8.16960794 550.484607,8.52960794 550.664607,8.97960794 C550.844607,9.42960794 550.957107,9.90210793 551.002107,10.3971079 C551.047107,10.8471079 551.069607,11.2521079 551.069607,11.6121079 C551.069607,12.2421079 550.979607,12.8496079 550.799607,13.4346079 C550.664607,14.0196079 550.394607,14.5371079 549.989607,14.9871079 C549.629607,15.4371079 549.112107,15.8196079 548.437107,16.1346079 C547.807107,16.4046079 546.997107,16.5396079 546.007107,16.5396079 L546.007107,16.5396079 Z M542.159607,34.0896078 C541.979607,33.2796078 541.844607,32.5596078 541.754607,31.9296078 C541.619607,31.2996078 541.552107,30.7371078 541.552107,30.2421078 C541.552107,29.3871078 541.799607,28.7796078 542.294607,28.4196078 C542.789607,28.0146078 543.734607,27.8121078 545.129607,27.8121078 C545.849607,27.8121078 546.412107,28.3296078 546.817107,29.3646078 C547.222107,30.3546078 547.582107,31.6146078 547.897107,33.1446078 C548.212107,34.6746078 548.527107,36.3171078 548.842107,38.0721078 C549.157107,39.8271078 549.539607,41.4696078 549.989607,42.9996077 C550.484607,44.5296077 551.092107,45.8121077 551.812107,46.8471077 C552.532107,47.837108 553.499607,48.3321082 554.714607,48.3321082 C555.794607,48.3321082 556.694607,48.1071082 557.414607,47.6571082 C558.179607,47.2071079 558.809607,46.6446077 559.304607,45.9696077 C559.844607,45.2946077 560.294607,44.5521077 560.654607,43.7421077 C561.014607,42.9321077 561.352107,42.1896077 561.667107,41.5146078 C562.027107,40.8396078 562.409607,40.2771078 562.814607,39.8271078 C563.219607,39.3771078 563.737107,39.1521078 564.367107,39.1521078 C564.952107,39.7371078 565.289607,40.2321078 565.379607,40.6371078 C565.469607,41.0421078 565.514607,41.5371078 565.514607,42.1221077 C565.244607,43.4721077 564.794607,44.7771077 564.164607,46.0371077 C563.579607,47.2521081 562.837107,48.3321082 561.937107,49.2771082 C561.037107,50.1771082 559.979607,50.9196082 558.764607,51.5046082 C557.549607,52.0446082 556.199607,52.3146082 554.714607,52.3146082 C553.499607,52.3146082 552.307107,52.1571082 551.137107,51.8421082 C550.012107,51.4821082 548.999607,50.8521082 548.099607,49.9521082 C547.199607,48.8721082 546.389607,47.4546081 545.669607,45.6996077 C544.994607,43.8996077 544.387107,42.1446077 543.847107,40.4346078 C543.217107,38.4096078 542.654607,36.2946078 542.159607,34.0896078 L542.159607,34.0896078 Z" id="path4218"></path>
                        <path d="M624.243826,38.1396078 C624.828826,37.6446078 625.256326,37.3971078 625.526326,37.3971078 C625.886326,37.3971078 626.111326,37.6221078 626.201326,38.0721078 C626.336326,38.4771078 626.403826,38.9946078 626.403826,39.6246078 C626.403826,41.8296078 626.066326,43.7196077 625.391326,45.2946077 C624.716326,46.8696081 623.928826,48.1521082 623.028826,49.1421082 C622.173826,50.1321082 621.273826,50.8521082 620.328826,51.3021082 C619.428826,51.7521082 618.753826,51.9771082 618.303826,51.9771082 C616.278826,51.9771082 614.591326,51.5721082 613.241326,50.7621082 C611.936326,49.9071082 610.788827,48.8721082 609.798827,47.6571082 C608.808827,46.3971079 607.931327,45.0471077 607.166327,43.6071077 C606.401327,42.1221077 605.591327,40.7721078 604.736327,39.5571078 C603.926327,38.2971078 602.981327,37.2621078 601.901327,36.4521078 C600.821327,35.5971078 599.471327,35.1696078 597.851327,35.1696078 C596.636327,35.1696078 595.691327,35.5746078 595.016327,36.3846078 C594.341327,37.1496078 593.756327,38.1171078 593.261327,39.2871078 C592.811327,40.4121078 592.406327,41.6721078 592.046327,43.0671077 C591.731327,44.4171077 591.326327,45.6771077 590.831327,46.8471077 C590.381327,47.972108 589.773827,48.9396082 589.008827,49.7496082 C588.243827,50.5146082 587.208827,50.8971082 585.903827,50.8971082 C585.273827,50.8971082 584.711327,50.6496082 584.216327,50.1546082 C583.766327,49.6146082 583.541327,49.0296082 583.541327,48.3996082 L584.148827,40.6371078 C584.148827,37.0371078 583.721327,34.4496078 582.866327,32.8746078 C582.011327,31.2546078 580.841327,30.4446078 579.356327,30.4446078 C578.951327,30.4446078 578.208827,30.9171078 577.128827,31.8621078 C576.048827,32.8071078 574.811327,33.9321078 573.416327,35.2371078 C572.021327,36.5421078 570.603827,37.8921078 569.163827,39.2871078 C567.768827,40.6371078 566.531327,41.7171078 565.451327,42.5271077 C565.316327,42.6171077 565.158827,42.7071077 564.978827,42.7971077 C564.618827,42.9771077 564.258827,43.0671077 563.898827,43.0671077 C563.538827,43.0671077 563.088827,42.8646077 562.548827,42.4596077 C562.008827,42.0546077 561.738827,41.4696078 561.738827,40.7046078 C561.738827,40.2546078 561.873827,39.8496078 562.143827,39.4896078 C562.278827,39.3096078 562.436327,39.1521078 562.616327,39.0171078 C563.201327,38.6121078 563.966327,38.0046078 564.911327,37.1946078 C565.901327,36.3846078 566.958827,35.5071078 568.083827,34.5621078 C569.208827,33.6171078 570.356327,32.6496078 571.526327,31.6596078 C572.696327,30.6696078 573.798827,29.7696078 574.833827,28.9596078 C575.868827,28.1496078 576.791327,27.4971078 577.601327,27.0021078 C578.411327,26.4621078 578.996327,26.1921078 579.356327,26.1921078 C581.156327,26.1921078 582.596327,26.5071078 583.676327,27.1371078 C584.756327,27.7671078 585.588827,28.5996078 586.173827,29.6346078 C586.758827,30.6246078 587.141327,31.7721078 587.321327,33.0771078 C587.546327,34.3371078 587.658827,35.6421078 587.658827,36.9921078 C589.503827,34.8771078 591.303827,33.3471078 593.058827,32.4021078 C594.858827,31.4571078 596.658827,30.9846078 598.458827,30.9846078 C600.888827,30.9846078 603.003827,31.5246078 604.803827,32.6046078 C606.648827,33.6396078 608.358827,35.5296078 609.933827,38.2746078 L613.443826,44.8221077 C614.388826,45.7671077 615.063826,46.5096079 615.468826,47.0496082 C615.918826,47.5896082 616.503826,47.8596082 617.223826,47.8596082 C617.403826,47.8596082 617.786326,47.5221081 618.371326,46.8471077 C618.956326,46.1721077 619.586326,45.3621077 620.261326,44.4171077 C620.981326,43.4271077 621.701326,42.3696077 622.421326,41.2446078 C623.141326,40.1196078 623.748826,39.0846078 624.243826,38.1396078 L624.243826,38.1396078 Z" id="path4220"></path>
                        <path d="M654.163196,41.5146078 C652.408196,44.2146077 650.203196,46.4646079 647.548196,48.2646082 C644.938196,50.0646082 642.013196,50.9646082 638.773196,50.9646082 C636.883196,50.9646082 634.970696,50.6271082 633.035696,49.9521082 C631.010696,49.4571082 629.188196,48.6471082 627.568196,47.5221082 C626.893196,47.0721079 626.195696,46.5321077 625.475696,45.9021077 C624.800696,45.2271077 624.193196,44.4621077 623.653196,43.6071077 C623.113196,42.7071077 622.663196,41.7171078 622.303196,40.6371078 C621.898196,39.5121078 621.673196,38.2746078 621.628196,36.9246078 C621.808196,35.6646078 621.988196,34.3371078 622.168196,32.9421078 C622.303196,31.5021078 622.550696,30.1071078 622.910696,28.7571078 C623.225696,27.3621078 623.698196,26.0346078 624.328196,24.7746078 C624.913196,23.5146079 625.723196,22.4121079 626.758196,21.4671079 C627.793196,20.4771079 629.075696,19.7121079 630.605696,19.1721079 C632.180696,18.5871079 634.115696,18.2946079 636.410696,18.2946079 C637.625696,18.2946079 638.773196,18.5421079 639.853196,19.0371079 C640.933196,19.5321079 641.878196,20.2296079 642.688196,21.1296079 C643.498196,22.0296079 644.150696,23.1096079 644.645696,24.3696079 C645.140696,25.6296078 645.388196,27.0246078 645.388196,28.5546078 C645.388196,29.1396078 645.365696,29.8146078 645.320696,30.5796078 C645.275696,31.3446078 645.140696,32.0646078 644.915696,32.7396078 C644.690696,33.4146078 644.330696,33.9771078 643.835696,34.4271078 C643.340696,34.8771078 642.643196,35.1021078 641.743196,35.1021078 C641.428196,35.1021078 641.158196,34.9896078 640.933196,34.7646078 C640.753196,34.4946078 640.573196,34.2021078 640.393196,33.8871078 C640.213196,33.5271078 640.055696,33.0996078 639.920696,32.6046078 C639.920696,32.4696078 639.988196,32.2446078 640.123196,31.9296078 C640.258196,31.5696078 640.393196,31.1871078 640.528196,30.7821078 C640.708196,30.3771078 640.865696,29.9721078 641.000696,29.5671078 C641.135696,29.1621078 641.203196,28.8246078 641.203196,28.5546078 C641.203196,27.6546078 641.068196,26.8446078 640.798196,26.1246078 C640.528196,25.3596078 640.168196,24.7071078 639.718196,24.1671079 C639.268196,23.6271079 638.750696,23.2221079 638.165696,22.9521079 C637.580696,22.6371079 636.995696,22.4796079 636.410696,22.4796079 C635.960696,22.4796079 635.195696,22.6821079 634.115696,23.0871079 C633.035696,23.4921079 631.910696,24.2121079 630.740696,25.2471078 C629.615696,26.2821078 628.603196,27.6771078 627.703196,29.4321078 C626.848196,31.1871078 626.420696,33.4371078 626.420696,36.1821078 C626.420696,39.4221078 627.388196,41.7621078 629.323196,43.2021077 C631.258196,44.5971077 634.003196,45.4971077 637.558196,45.9021077 C640.528196,45.9021077 643.048196,45.3396077 645.118196,44.2146077 C647.233196,43.0896077 649.010696,41.5821078 650.450696,39.6921078 C650.990696,39.0171078 651.643196,38.6796078 652.408196,38.6796078 C652.948196,38.6796078 653.420696,38.8596078 653.825696,39.2196078 C654.275696,39.5346078 654.500696,39.9396078 654.500696,40.4346078 C654.500696,40.8396078 654.388196,41.1996078 654.163196,41.5146078 L654.163196,41.5146078 Z" id="path4222"></path>
                        <path d="M684.886246,39.1521078 C685.156246,39.0621078 685.358746,39.0171078 685.493746,39.0171078 C685.943746,39.0171078 686.303746,39.2421078 686.573746,39.6921078 C686.888746,40.0971078 687.046246,40.5471078 687.046246,41.0421078 C687.046246,41.7621078 686.596246,42.3696077 685.696246,42.8646077 C684.796246,43.3146077 683.783746,43.6971077 682.658746,44.0121077 C681.578746,44.2821077 680.521246,44.4846077 679.486246,44.6196077 C678.496246,44.7546077 677.888746,44.8221077 677.663746,44.8221077 C676.988746,44.8221077 676.223746,44.7546077 675.368746,44.6196077 C675.278746,44.7996077 675.211246,45.0021077 675.166246,45.2271077 C675.121246,45.4071077 675.053746,45.6096077 674.963746,45.8346077 C673.793746,48.894608 672.308746,51.1221082 670.508746,52.5171082 C668.753746,53.9571082 666.661246,54.6771082 664.231246,54.6771082 C663.151246,54.6771082 661.981246,54.5196082 660.721246,54.2046082 C659.506246,53.9346082 658.223746,53.5521082 656.873746,53.0571082 C654.533746,52.1571082 652.868746,50.8071082 651.878746,49.0071082 C650.888746,47.1621079 650.393746,45.1821077 650.393746,43.0671077 C650.393746,40.8621078 650.731246,38.8596078 651.406246,37.0596078 C652.036246,35.2596078 652.891246,33.7521078 653.971246,32.5371078 C655.051246,31.2771078 656.266246,30.3096078 657.616246,29.6346078 C659.011246,28.9596078 660.428746,28.6221078 661.868746,28.6221078 C662.633746,28.6221078 663.488746,28.7121078 664.433746,28.8921078 C665.378746,29.0271078 666.278746,29.2521078 667.133746,29.5671078 C667.988746,29.8821078 668.708746,30.2421078 669.293746,30.6471078 C669.923746,31.0521078 670.283746,31.5021078 670.373746,31.9971078 C672.173746,32.8971078 673.478746,34.1796078 674.288746,35.8446078 C675.143746,37.5096078 675.616246,39.2421078 675.706246,41.0421078 C676.021246,41.0871078 676.291246,41.1096078 676.516246,41.1096078 L677.258746,41.1096078 C677.843746,41.1096078 678.383746,41.0646078 678.878746,40.9746078 C679.373746,40.8846078 679.891246,40.7721078 680.431246,40.6371078 C681.016246,40.4571078 681.646246,40.2546078 682.321246,40.0296078 C683.041246,39.7596078 683.896246,39.4671078 684.886246,39.1521078 L684.886246,39.1521078 Z M655.051246,38.6121078 C654.466246,40.0971078 654.173746,41.5371078 654.173746,42.9321077 C654.173746,44.5071077 654.533746,45.7896077 655.253746,46.7796077 C656.018746,47.769608 656.918746,48.5796082 657.953746,49.2096082 C659.033746,49.7946082 660.136246,50.1996082 661.261246,50.4246082 C662.431246,50.6496082 663.421246,50.7621082 664.231246,50.7621082 C665.761246,50.7621082 667.066246,50.2896082 668.146246,49.3446082 C669.226246,48.3996082 670.216246,46.7796081 671.116246,44.4846077 C671.206246,44.2146077 671.251246,43.9671077 671.251246,43.7421077 C670.441246,43.5171077 669.406246,43.2246077 668.146246,42.8646077 C666.886246,42.5046077 665.648746,42.0546077 664.433746,41.5146078 C663.218746,40.9296078 662.161246,40.2321078 661.261246,39.4221078 C660.406246,38.6121078 659.978746,37.6671078 659.978746,36.5871078 C659.978746,36.0021078 660.091246,35.5071078 660.316246,35.1021078 C660.541246,34.6971078 660.811246,34.2921078 661.126246,33.8871078 C660.586246,34.1571078 660.046246,34.3371078 659.506246,34.4271078 C659.011246,34.5171078 658.493746,34.6746078 657.953746,34.8996078 C657.458746,35.1246078 656.963746,35.5071078 656.468746,36.0471078 C655.973746,36.5871078 655.501246,37.4421078 655.051246,38.6121078 L655.051246,38.6121078 Z M668.078746,34.8996078 C667.493746,34.6746078 666.908746,34.5621078 666.323746,34.5621078 C665.603746,34.5621078 665.018746,34.7196078 664.568746,35.0346078 C664.163746,35.3046078 663.893746,35.6196078 663.758746,35.9796078 L663.758746,36.1821078 C663.758746,36.5871078 664.096246,37.0146078 664.771246,37.4646078 C665.446246,37.8696078 666.233746,38.2521078 667.133746,38.6121078 C668.033746,38.9721078 668.933746,39.2871078 669.833746,39.5571078 C670.778746,39.7821078 671.521246,39.9621078 672.061246,40.0971078 C671.836246,39.0171078 671.408746,38.0046078 670.778746,37.0596078 C670.148746,36.0696078 669.248746,35.3496078 668.078746,34.8996078 L668.078746,34.8996078 Z" id="path4224"></path>
                    </g>
                </g>
            </g>
        </g>
    </g>
</svg>