<svg xmlns="http://www.w3.org/2000/svg" width="1052.362" height="453" viewBox="0 0 841.88976 362.39986"><g style="line-height:125%;-inkscape-font-specification:'Libian SC'" font-weight="400" font-size="135" font-family="Arsenale White" letter-spacing="0" word-spacing="0" fill="#fff"><path style="-inkscape-font-specification:'Arsenale White'" d="M106.163 123.41q0-.068.675-1.08.607-1.08 1.62-2.296 1.012-1.282 2.295-2.295 1.282-1.08 2.565-1.08 1.147 0 2.092.74 1.013.74 1.755 1.89.743 1.144 1.215 2.562.54 1.35.675 2.7 0 1.957-.337 3.105-.27 1.08-.675 2.025-.338.877-.675 1.822-.27.944-.27 2.632 0 1.214.135 2.564t.607 2.498q.54 1.15 1.485 1.89 1.013.744 2.633.744 2.362 0 3.712-1.215t2.093-2.97q.81-1.756 1.215-3.714.472-1.958.945-3.51-1.823-1.418-2.7-3.713-.81-2.363-.81-4.928 0-1.216.135-2.498.135-1.35.405-2.43.337-1.148.742-1.89.473-.743 1.08-.743.203 0 .405.07l.54.135q3.173 1.35 4.253 3.847 1.147 2.498 1.147 5.603 0 .877-.067 1.35v1.22q.27 0 1.957-.27 1.755-.337 3.848-.81 2.16-.54 4.05-1.08 1.957-.54 2.632-1.08.338-.134.81-.202.54-.066 1.148-.066.945 0 1.755.27.81.202.81.877 0 .54-.81 1.42-.743.81-2.7 2.092l-1.013.338q-1.755.54-3.375 1.013l-3.105.81q-1.552.405-3.172.675t-3.51.402l-.743 3.443q-.607 2.025-.945 3.172-.337 1.213-.742 2.09-.405.945-1.148 1.82-.675.947-2.025 2.43-1.147 1.217-2.7 1.757-1.485.54-3.307.54-4.793 0-7.493-2.903-2.632-2.903-2.632-7.763 0-1.753.337-2.833.338-1.08.743-2.093.405-1.013.742-2.295.338-1.35.338-3.646l-.203-2.903q0-.54-.067-.944-.068-.406-.473-.406-.067 0-.202.133-.135.065-.675.672-.473.608-1.485 1.89-.945 1.283-2.768 3.713-.877.473-1.62.473-.877 0-1.35-.473-.54-.54-.54-1.35 0-.878.743-1.958zm24.232-4.996q0 .608-.27 1.485-.27.81-.135 2.09l.068.874q.067.81.337 1.484.338.675.675 1.215.203-.608.405-1.553.27-.945.27-2.025 0-.946-.27-1.824-.27-.945-1.08-1.755z"/><path style="-inkscape-font-specification:'Arsenale White'" d="M155.254 106.94q-1.552 0-2.632 1.35-1.013 1.282-1.688 3.037-.607 1.687-.877 3.375-.27 1.62-.27 2.295 0 2.362.472 3.847.47 1.418 1.35 2.768 1.142-1.08 2.09-2.7 1.01-1.62 1.752-3.375t1.147-3.443q.473-1.755.473-3.105v-1.15q-1.08-2.906-1.823-2.906zm17.01 19.372q-1.62 2.025-4.387 3.78-2.768 1.755-6.075 2.497h-2.363q-1.22 0-2.638-.208-1.418-.27-2.768-.81-2.16-1.485-3.038-2.093-.88-.675-1.216-.877-.27-.27-.404-.473-.07-.2-.744-.875-1.756-1.755-2.363-4.05-.677-2.295-.677-4.928 0-2.498.674-5.198.674-2.77 1.956-5.066 1.215-2.296 2.97-3.78 1.823-1.553 4.05-1.553.675 0 1.755.61 1.147.54 2.16 1.69 1.08 1.08 1.822 2.765.81 1.687.81 3.914-.405 3.644-2.228 7.56-1.823 3.914-4.928 8.032.877.406 2.16.81 1.282.338 2.632.338h2.36q2.026-.606 2.97-1.01 1.013-.474 1.62-1.014.676-.54 1.216-1.283.608-.743 1.823-2.025.606-.81 1.62-.81.81 0 1.483.54.675.472.675 1.417 0 .944-.946 2.092z"/><path style="-inkscape-font-specification:'Arsenale White'" d="M172.954 100.46q-.473 0-.945-.068-.48-.135-.88-.54-.41-.473-.61-1.35-.27-.878-.27-2.498.47-2.16 2.024-3.442 1.55-1.283 3.44-1.283.744.062 1.15.54.47.4.74 1.08.27.67.34 1.412.066.675.066 1.215 0 .945-.27 1.822-.2.877-.81 1.552-.54.675-1.55 1.147-.945.404-2.43.404zm-3.848 17.55q-.27-1.216-.405-2.16-.2-.946-.2-1.688 0-1.283.74-1.823.75-.61 2.84-.61 1.08 0 1.69 1.55.606 1.484 1.08 3.78.47 2.294.944 4.93.47 2.63 1.147 4.925.743 2.294 1.823 3.847 1.08 1.485 2.9 1.485 1.62 0 2.7-.676 1.15-.674 1.89-1.687.81-1.013 1.35-2.228.54-1.217 1.013-2.23.54-1.01 1.147-1.687.61-.675 1.554-.675.877.876 1.012 1.484.134.606.134 1.484-.402 2.025-1.35 3.915-.874 1.822-2.224 3.24-1.35 1.35-3.175 2.227-1.82.81-4.05.81-1.82 0-3.576-.47-1.69-.54-3.04-1.89-1.35-1.62-2.43-4.254-1.013-2.7-1.823-5.265-.946-3.037-1.69-6.345z"/><path style="-inkscape-font-specification:'Arsenale White'" d="M251.19 122.06q.878-.743 1.283-.743.54 0 .675.675.203.607.203 1.552 0 3.308-1.01 5.67-1.01 2.363-2.36 3.848-1.282 1.485-2.7 2.16-1.35.675-2.024.675-3.037 0-5.062-1.215-1.956-1.283-3.44-3.105-1.486-1.89-2.634-4.05-1.148-2.228-2.43-4.05-1.216-1.89-2.836-3.105-1.62-1.283-4.05-1.283-1.82 0-2.834 1.21-1.013 1.15-1.756 2.902-.674 1.687-1.214 3.78-.472 2.025-1.215 3.78-.674 1.687-1.82 2.902-1.15 1.147-3.106 1.147-.947 0-1.69-.742-.675-.81-.675-1.755l.61-7.763q0-5.4-1.284-7.763-1.28-2.43-3.51-2.43-.606 0-2.226 1.42-1.62 1.415-3.713 3.373-2.09 1.957-4.25 4.05-2.09 2.025-3.71 3.24-.204.135-.474.27-.54.27-1.08.27t-1.35-.608q-.81-.608-.81-1.756 0-.676.406-1.216.203-.27.473-.473.877-.607 2.294-1.822 1.484-1.218 3.172-2.635 1.688-1.418 3.443-2.903 1.754-1.486 3.307-2.7 1.553-1.216 2.768-1.958 1.217-.81 1.757-.81 2.7 0 4.32.944t2.498 2.497q.878 1.486 1.148 3.444.338 1.89.338 3.917 2.77-3.172 5.4-4.59 2.7-1.417 5.4-1.417 3.647 0 6.347 1.62 2.766 1.55 5.13 5.67l3.51 6.546q1.416 1.416 2.024 2.226.675.81 1.755.81.27 0 1.147-1.014.88-1.012 1.89-2.43 1.08-1.484 2.16-3.172 1.08-1.687 1.825-3.105z"/><path style="-inkscape-font-specification:'Arsenale White'" d="M262.75 103.632h-11.34q.135 3.307.472 6.682.338 3.375.945 6.548.608 3.105 1.553 5.872 1.012 2.768 2.43 4.86 1.485 2.093 3.51 3.308 2.025 1.147 4.725 1.147 3.24 0 5.062-1.35 1.89-1.42 3.038-3.04 1.215-1.69 1.89-3.04.742-1.418 1.62-1.418.877 0 1.35 1.012.54.944.54 1.552-.405 2.024-1.418 3.846-1.012 1.822-2.565 3.24-1.485 1.417-3.442 2.227-1.89.81-4.118.81-1.822 0-4.185-.338-2.362-.406-4.725-1.35-2.362-.946-4.05-2.97-1.687-2.093-2.902-5.67-1.215-3.646-2.025-8.978-.878-5.4-1.62-13.028-1.148 0-2.228-.068-1.08-.137-1.89-.34-.81-.27-1.282-.743-.54-.472-.54-1.214.54-1.35 1.282-1.552.675-.27 1.148-.27.067.068.54.068.742 0 1.35-.134.607-.135 1.215-.135l-.675-7.49q-.27-1.218-.405-2.16-.203-.948-.203-1.69 0-1.28.743-1.82.742-.61 2.835-.61.54 0 .877.947.27.876.473 2.496.202 1.62.27 3.847.067 2.228.202 4.793l.068 1.89h16.335q.405.404.675.81.27.337.472.81.203.404.203.877 0 .74-.878 1.35-.81.54-3.172.54h-.945q-.473-.07-1.215-.136z"/><path style="-inkscape-font-specification:'Arsenale White'" d="M278.423 100.46q-.473 0-.945-.068-.473-.135-.878-.54-.405-.473-.607-1.35-.27-.878-.27-2.498.472-2.16 2.025-3.442 1.552-1.283 3.442-1.283.743.062 1.148.54.472.4.742 1.08.27.67.338 1.412.067.675.067 1.215 0 .945-.27 1.822-.202.877-.81 1.552-.54.675-1.552 1.147-.945.404-2.43.404zm-3.848 17.55q-.27-1.216-.405-2.16-.202-.946-.202-1.688 0-1.283.742-1.823.743-.61 2.835-.61 1.08 0 1.688 1.55.607 1.484 1.08 3.78.472 2.294.945 4.93.472 2.63 1.147 4.925.743 2.294 1.823 3.847 1.08 1.485 2.902 1.485 1.62 0 2.7-.676 1.148-.674 1.89-1.687.81-1.013 1.35-2.228.54-1.217 1.013-2.23.54-1.01 1.147-1.687.608-.675 1.553-.675.877.876 1.012 1.484.135.606.135 1.484-.405 2.025-1.35 3.915-.877 1.822-2.227 3.24-1.35 1.35-3.173 2.227-1.822.81-4.05.81-1.822 0-3.577-.47-1.688-.54-3.038-1.89-1.35-1.62-2.43-4.254-1.012-2.7-1.822-5.265-.945-3.037-1.688-6.345z"/><path style="-inkscape-font-specification:'Arsenale White'" d="M328.444 123.072q.405-.135.608-.135.675 0 1.08.675.472.607.472 1.35 0 1.08-1.35 1.822-1.35.675-3.037 1.148-1.62.405-3.173.607-1.485.2-1.822.2-1.013 0-2.295-.206-.135.27-.203.607-.067.27-.202.608-1.755 4.59-4.455 6.683-2.633 2.16-6.278 2.16-1.62 0-3.51-.472-1.828-.403-3.85-1.145-3.51-1.35-4.998-4.05-1.485-2.768-1.485-5.94 0-3.308 1.012-6.008.944-2.7 2.564-4.523 1.62-1.89 3.644-2.903 2.093-1.01 4.253-1.01 1.148 0 2.566.27 1.416.2 2.7.675 1.28.472 2.16 1.08.944.607 1.08 1.35 2.7 1.35 3.914 3.847 1.282 2.5 1.417 5.2.473.067.81.067h.743q.877 0 1.62-.138.742-.134 1.552-.336.877-.27 1.89-.608 1.08-.408 2.564-.88zm-29.835-.54q-.88 2.227-.88 4.32 0 2.362 1.08 3.847 1.144 1.48 2.7 2.43 1.62.872 3.304 1.21 1.754.34 2.97.34 2.294 0 3.914-1.42t2.97-4.86q.135-.405.135-.74-1.216-.338-3.106-.878t-3.71-1.35q-1.825-.877-3.175-2.092-1.283-1.213-1.283-2.833 0-.878.336-1.485.337-.607.81-1.214-.81.403-1.62.54-.743.133-1.553.47-.743.337-1.485 1.147-.743.81-1.418 2.565zm13.022-3.713q-.878-.34-1.755-.34-1.08 0-1.755.47-.608.404-.81.944v.202q0 .606 1.012 1.28 1.012.61 2.362 1.15 1.35.54 2.7.944 1.416.338 2.226.54-.338-1.62-1.283-3.037-.946-1.486-2.7-2.16z"/><path style="-inkscape-font-specification:'Arsenale White'" d="M358.102 125.434q-2.632 4.05-6.615 6.75-3.915 2.7-8.775 2.7-2.835 0-5.737-1.012-3.038-.743-5.468-2.43-1.012-.675-2.092-1.62-1.013-1.013-1.823-2.295-.81-1.35-1.35-2.97-.607-1.688-.675-3.713.27-1.89.54-3.982.203-2.16.743-4.185.472-2.093 1.417-3.983.878-1.89 2.43-3.307 1.553-1.485 3.848-2.295 2.362-.878 5.805-.878 1.822 0 3.442.743 1.62.742 2.835 2.092 1.215 1.35 1.958 3.24.742 1.89.742 4.18 0 .88-.067 2.024-.068 1.147-.405 2.16-.338 1.012-1.08 1.687-.743.676-2.093.676-.472 0-.81-.34-.27-.404-.54-.876-.27-.54-.472-1.282 0-.2.202-.675.203-.54.405-1.148.27-.61.473-1.216.202-.61.202-1.014 0-1.35-.405-2.43-.405-1.147-1.08-1.957t-1.552-1.215q-.878-.474-1.755-.474-.675 0-2.295.608-1.62.606-3.375 2.16-1.688 1.55-3.038 4.184-1.282 2.632-1.282 6.75 0 4.86 2.902 7.02 2.903 2.092 8.235 2.7 4.455 0 7.56-1.688 3.173-1.687 5.333-4.522.81-1.013 1.957-1.013.81 0 1.418.54.675.472.675 1.214 0 .607-.338 1.08z"/><path style="-inkscape-font-specification:'Arsenale White'" d="M355.345 127.19q-.135-2.228-.202-4.388-.068-2.228-.068-4.523 0-4.528.405-9.32.405-4.79 1.485-10.46.203-1.89.405-3.647.203-1.823.608-3.51.405-1.755 1.147-3.375.81-1.687 2.228-3.374 1.08-.473 1.822-.473.743 0 1.35.474 3.24 3.645 4.658 7.627 1.417 3.984 1.417 8.17 0 3.58-.877 7.09-.81 3.51-2.295 7.02-1.485 3.44-3.443 6.882-1.957 3.375-4.185 6.75.135 1.958.27 2.97.135 1.013.203 1.89.135.878.202 2.093.135 1.147.203 3.577 1.62-1.012 2.632-2.767 1.08-1.823 2.025-3.78 1.013-2.025 2.228-3.848 1.215-1.89 3.24-3.108l2.835-1.485q1.485-.81 2.97-.81 1.552 0 2.43.81.877.74 1.35 1.89.54 1.08.877 2.36.338 1.283.878 2.296.472.608.877 1.35.473.676.945 1.216.54.54 1.148.945.607.338 1.35.338 2.97 0 5.13-1.013 2.227-1.012 3.982-2.564 1.823-1.62 3.51-3.577 1.688-2.026 3.645-4.05.54-.54 1.283-.54.945 0 1.687.742.743.742.743 1.687 0 .742-.54 1.282-2.093 2.023-4.185 4.32-2.093 2.293-4.388 4.25-2.295 1.96-4.86 3.24-2.565 1.283-5.602 1.283-1.418 0-2.7-.608-1.283-.61-2.363-1.62-1.012-.947-1.89-2.16-.877-1.284-1.552-2.634-.473-.676-.608-1.42-.067-.81-.202-1.485-.068-.675-.405-1.147-.27-.474-1.148-.474-2.092 0-3.577 1.213-1.485 1.215-2.633 3.105-1.147 1.822-2.16 3.982-1.012 2.09-2.16 3.914-1.147 1.89-2.632 3.105-1.418 1.213-3.51 1.213h-.54q-.743.202-1.148.202-1.35 0-1.35-2.094 0-4.454-.135-8.37-.202-3.914-.405-7.56l-.405.878zm7.695-37.328q-.675 1.08-1.08 2.227-.337 1.08-.54 2.29-.202 1.15-.337 2.5-.135 1.28-.338 2.833-.81 4.725-1.147 8.775-.338 4.05-.338 7.9v2.43l.135 2.292q3.038-5.062 5.063-10.192t2.025-10.123q0-2.903-.81-5.603-.81-2.767-2.633-5.332z"/><path style="-inkscape-font-specification:'Arsenale White'" d="M436.286 123.072q.405-.135.608-.135.675 0 1.08.675.472.607.472 1.35 0 1.08-1.35 1.822-1.35.675-3.037 1.148-1.62.405-3.18.607-1.484.2-1.82.2-1.013 0-2.295-.206-.136.27-.204.607-.066.27-.2.608-1.755 4.59-4.455 6.683-2.634 2.16-6.28 2.16-1.62 0-3.51-.472-1.82-.403-3.846-1.145-3.51-1.35-4.995-4.05-1.486-2.768-1.486-5.94 0-3.308 1.01-6.008.946-2.7 2.566-4.523 1.62-1.89 3.646-2.903 2.093-1.01 4.253-1.01 1.146 0 2.564.27 1.416.2 2.7.675 1.28.472 2.16 1.08.944.607 1.08 1.35 2.7 1.35 3.914 3.847 1.28 2.5 1.416 5.2.477.067.81.067h.747q.876 0 1.62-.138.74-.134 1.55-.336.88-.27 1.89-.608 1.08-.408 2.566-.88zm-29.835-.54q-.87 2.227-.87 4.32 0 2.362 1.08 3.847 1.146 1.48 2.7 2.43 1.62.872 3.306 1.21 1.756.34 2.97.34 2.296 0 3.916-1.42t2.97-4.86q.135-.405.135-.74-1.214-.338-3.104-.878-1.89-.54-3.712-1.35-1.822-.877-3.172-2.092-1.28-1.213-1.28-2.833 0-.878.336-1.485.34-.607.81-1.214-.81.403-1.62.54-.74.133-1.55.47-.744.337-1.486 1.147-.744.81-1.42 2.565zm13.03-3.713q-.88-.34-1.75-.34-1.08 0-1.756.47-.61.404-.81.944v.202q0 .606 1.01 1.28 1.015.61 2.365 1.15 1.35.54 2.7.944 1.416.338 2.226.54-.335-1.62-1.28-3.037-.945-1.486-2.7-2.16z"/><path style="-inkscape-font-specification:'Arsenale White'" d="M465.944 125.434q-2.633 4.05-6.615 6.75-3.92 2.7-8.78 2.7-2.836 0-5.74-1.012-3.036-.743-5.466-2.43-1.014-.675-2.094-1.62-1.01-1.013-1.82-2.295-.81-1.35-1.35-2.97-.608-1.688-.675-3.713.27-1.89.54-3.982.2-2.16.74-4.185.474-2.093 1.42-3.983.876-1.89 2.43-3.307 1.55-1.485 3.846-2.295 2.365-.878 5.807-.878 1.824 0 3.444.743 1.62.742 2.838 2.092 1.214 1.35 1.956 3.24.743 1.89.743 4.18 0 .88-.07 2.024-.066 1.147-.404 2.16-.336 1.012-1.08 1.687-.74.676-2.09.676-.474 0-.81-.34-.27-.404-.54-.876-.27-.54-.474-1.282 0-.2.203-.675.203-.54.406-1.148.27-.61.47-1.216.203-.61.203-1.014 0-1.35-.405-2.43-.406-1.147-1.08-1.957-.676-.81-1.554-1.215-.875-.474-1.753-.474-.673 0-2.293.608t-3.375 2.16q-1.684 1.55-3.034 4.184-1.282 2.632-1.282 6.75 0 4.86 2.904 7.02 2.902 2.092 8.235 2.7 4.453 0 7.56-1.688 3.17-1.687 5.33-4.522.81-1.013 1.96-1.013.81 0 1.415.54.675.472.675 1.214 0 .607-.336 1.08z"/><path style="-inkscape-font-specification:'Arsenale White'" d="M496.667 123.072q.405-.135.607-.135.675 0 1.08.675.473.607.473 1.35 0 1.08-1.35 1.822-1.35.675-3.038 1.148-1.62.405-3.178.607-1.485.2-1.823.2-1.01 0-2.295-.206-.136.27-.203.607-.068.27-.203.608-1.755 4.59-4.455 6.683-2.633 2.16-6.278 2.16-1.62 0-3.51-.472-1.824-.403-3.85-1.145-3.51-1.35-4.994-4.05-1.486-2.768-1.486-5.94 0-3.308 1.013-6.008.948-2.7 2.568-4.523 1.62-1.89 3.645-2.903 2.093-1.01 4.253-1.01 1.147 0 2.564.27 1.416.2 2.7.675 1.28.472 2.16 1.08.943.607 1.08 1.35 2.7 1.35 3.913 3.847 1.283 2.5 1.418 5.2.476.067.81.067h.746q.878 0 1.62-.138.743-.134 1.553-.336.876-.27 1.89-.608 1.08-.408 2.564-.88zm-29.835-.54q-.878 2.227-.878 4.32 0 2.362 1.08 3.847 1.148 1.48 2.7 2.43 1.62.872 3.308 1.21 1.755.34 2.97.34 2.295 0 3.915-1.42t2.97-4.86q.135-.405.135-.74-1.215-.338-3.105-.878t-3.713-1.35q-1.822-.877-3.172-2.092-1.283-1.213-1.283-2.833 0-.878.332-1.485.337-.607.81-1.214-.81.403-1.62.54-.743.133-1.553.47-.74.337-1.485 1.147-.743.81-1.418 2.565zm13.027-3.713q-.88-.34-1.76-.34-1.08 0-1.756.47-.608.404-.81.944v.202q0 .606 1.012 1.28 1.01.61 2.36 1.15 1.35.54 2.7.944 1.42.338 2.23.54-.34-1.62-1.284-3.037-.946-1.486-2.7-2.16z"/><path style="-inkscape-font-specification:'Arsenale White'" d="M586.737 126.042q-1.215.472-2.632.877-1.418.4-2.7.4-2.633 0-5.603-1.418-2.97-1.418-5.737-4.59l-7.763-8.37q-2.7-3.24-4.522-4.59-1.755-1.35-2.7-1.35-2.093 1.957-3.713 5.13-1.552 3.105-2.767 6.682-1.215 3.577-2.093 7.29-.81 3.644-1.552 6.614-.675 2.97-1.283 4.793-.607 1.89-1.215 1.89-.405 0-1.215-1.89-.742-1.822-1.755-4.657-1.012-2.903-2.295-6.346-1.215-3.51-2.632-6.75-1.35-3.307-2.903-5.94-1.485-2.7-2.97-3.847-.27.472-1.485 2.565l-2.902 4.992q-1.62 2.835-3.578 6.075-1.957 3.17-3.847 5.87-1.823 2.7-3.308 4.524-1.485 1.755-2.227 1.755-1.35 0-1.62-.81-.203-.88-.203-2.16.81-4.12 1.485-7.695.27-1.485.54-3.038.27-1.62.473-2.97.27-1.418.405-2.566.135-1.146.135-1.82 0-1.554-.135-2.566-.135-1.08-.54-1.824-.338-.742-.945-1.215-.54-.472-1.418-.945l-7.762 12.014q-.27.403-.675 1.416-.405.946-.81 1.958-.405.945-.878 1.755-.405.74-.742.74-.068 0-.135-.067-1.013 1.013-1.823 1.013-.675 0-1.08-.474-.472-.54-.742-1.147-.27-.744-.473-1.62.068-.136.675-1.014.54-.945 1.215-2.025t1.215-1.96q.608-.877.675-.944l8.978-13.164q0-.54.675-.607.675-.07 1.147-.07 4.523.945 6.413 3.848 1.957 2.836 1.957 6.886 0 1.35-.337 3.576-.338 2.16-.878 4.252 2.835-4.455 4.658-7.83 1.89-3.375 3.172-5.603 1.35-2.23 2.228-3.31.945-1.147 1.957-1.147 2.025 0 4.05 2.025 2.093 1.958 3.915 5.063 1.89 3.037 3.375 6.75 1.485 3.645 2.43 7.02l2.363-7.155q1.552-4.725 2.632-7.56 1.148-2.903 2.16-4.523 1.08-1.62 2.16-2.295 1.148-.744 2.7-1.15 2.093.47 3.443 1.01 1.417.54 2.565 1.35 1.147.745 2.227 1.89 1.08 1.15 2.498 2.837 1.417 1.62 3.442 3.845 2.025 2.227 4.995 5.197 2.228 1.756 4.118 2.97 1.957 1.216 4.185 1.216 1.822 0 3.645-1.283 1.012.27 1.755.54.675.27 1.215.675t.54.945q0 .472-.405.945-.405.472-1.418 1.08z"/><path style="-inkscape-font-specification:'Arsenale White'" d="M622.81 126.312q0 .607-.743 1.822-.742 1.215-1.822 2.43t-2.228 2.093q-1.147.877-1.957.877-2.093 0-3.713-1.215-1.62-1.288-2.902-3.11-1.215-1.89-2.16-4.05-.945-2.228-1.688-4.05-.675-1.89-1.215-3.106-.472-1.283-.945-1.283l.608 4.793q0 5.94-1.89 9.044-1.823 3.105-5.873 3.58-2.295 0-4.927-1.69-2.633-1.687-5.265-4.927-1.283-1.214-2.093-2.43t-1.282-2.564q-.473-1.35-.608-2.905-.202-1.55-.202-3.44 0-2.904 1.282-5.266 1.215-2.363 2.97-4.05 1.823-1.688 3.78-2.633 1.958-1.012 3.308-1.215h.472q.54 0 1.553.202 1.08.135 2.43.81 1.417.675 3.105 2.025 1.687 1.35 3.442 3.646 1.755 2.295 3.578 5.805 1.822 3.443 3.442 8.37.945 2.768 1.89 4.118t2.228 1.35q.472 0 1.147-.81.743-.877 1.418-1.957.742-1.08 1.35-2.093.607-1.08.945-1.486.675-.606 1.485-.606.877 0 1.35.675.54.674.54 1.55 0 .474-.203.946-.135.402-.607.74zm-24.098 1.822q.54-1.822.81-3.24.338-1.417.338-3.375 0-2.638-.27-5.2-.27-2.636-1.62-4.86-.473-.88-1.148-1.62-.54-.61-1.35-1.08-.81-.54-1.822-.61-1.553.202-2.97 1.08-1.35.81-2.363 2.024-1.012 1.214-1.62 2.7-.607 1.417-.607 2.767 0 2.97 1.35 5.4t3.037 4.186q1.755 1.686 3.443 2.7 1.687.944 2.362.944.878 0 1.35-.404.54-.474 1.08-1.42z"/><path style="-inkscape-font-specification:'Arsenale White'" d="M651.042 125.434q-2.633 4.05-6.615 6.75-3.915 2.7-8.775 2.7-2.835 0-5.738-1.012-3.037-.743-5.467-2.43-1.013-.675-2.093-1.62-1.012-1.013-1.822-2.295-.81-1.35-1.35-2.97-.608-1.688-.675-3.713.27-1.89.54-3.982.202-2.16.742-4.185.47-2.093 1.412-3.983.877-1.89 2.43-3.307 1.552-1.485 3.847-2.295 2.363-.878 5.805-.878 1.822 0 3.442.743 1.62.742 2.834 2.092 1.216 1.35 1.958 3.24.742 1.89.742 4.18 0 .88-.068 2.024-.068 1.147-.406 2.16-.337 1.012-1.08 1.687-.74.676-2.09.676-.475 0-.81-.34-.27-.404-.54-.876-.27-.54-.475-1.282 0-.2.203-.675.202-.54.405-1.148.27-.61.472-1.216.202-.61.202-1.014 0-1.35-.405-2.43-.405-1.147-1.08-1.957t-1.553-1.215q-.88-.474-1.757-.474-.675 0-2.295.608-1.62.606-3.375 2.16-1.688 1.55-3.038 4.184-1.284 2.632-1.284 6.75 0 4.86 2.9 7.02 2.903 2.092 8.236 2.7 4.454 0 7.56-1.688 3.17-1.687 5.33-4.522.81-1.013 1.958-1.013.81 0 1.417.54.676.472.676 1.214 0 .607-.338 1.08z"/><path style="-inkscape-font-specification:'Arsenale White'" d="M651.255 100.46q-.473 0-.945-.068-.473-.135-.878-.54-.405-.473-.607-1.35-.27-.878-.27-2.498.472-2.16 2.025-3.442 1.552-1.283 3.442-1.283.743.062 1.148.54.472.4.742 1.08.27.67.338 1.412.067.675.067 1.215 0 .945-.27 1.822-.202.877-.81 1.552-.54.675-1.552 1.147-.945.404-2.43.404zm-3.848 17.55q-.27-1.216-.405-2.16-.202-.946-.202-1.688 0-1.283.742-1.823.743-.61 2.835-.61 1.08 0 1.688 1.55.607 1.484 1.08 3.78.472 2.294.945 4.93.472 2.63 1.147 4.925.743 2.294 1.823 3.847 1.08 1.485 2.902 1.485 1.62 0 2.7-.676 1.148-.674 1.89-1.687.81-1.013 1.35-2.228.54-1.217 1.013-2.23.54-1.01 1.147-1.687.608-.675 1.553-.675.877.876 1.012 1.484.135.606.135 1.484-.405 2.025-1.35 3.915-.877 1.822-2.227 3.24-1.35 1.35-3.173 2.227-1.822.81-4.05.81-1.822 0-3.577-.47-1.688-.54-3.038-1.89-1.35-1.62-2.43-4.254-1.012-2.7-1.822-5.265-.945-3.037-1.688-6.345z"/><path style="-inkscape-font-specification:'Arsenale White'" d="M729.49 122.06q.88-.743 1.284-.743.54 0 .675.675.2.607.2 1.552 0 3.308-1.01 5.67-1.02 2.363-2.37 3.848-1.28 1.485-2.7 2.16-1.35.675-2.024.675-3.037 0-5.06-1.215-1.96-1.283-3.445-3.105-1.484-1.89-2.63-4.05-1.148-2.228-2.43-4.05-1.215-1.89-2.835-3.105-1.62-1.283-4.05-1.283-1.825 0-2.837 1.21-1.014 1.15-1.756 2.902-.676 1.687-1.216 3.78-.474 2.025-1.216 3.78-.676 1.687-1.824 2.902-1.146 1.147-3.104 1.147-.944 0-1.686-.742-.675-.81-.675-1.755l.607-7.763q0-5.4-1.28-7.763-1.283-2.43-3.51-2.43-.608 0-2.228 1.42-1.62 1.415-3.713 3.373-2.09 1.957-4.25 4.05-2.09 2.025-3.71 3.24-.205.135-.475.27-.54.27-1.08.27t-1.35-.608q-.81-.608-.81-1.756 0-.676.405-1.216.202-.27.472-.473.876-.607 2.294-1.822 1.484-1.218 3.17-2.635 1.69-1.418 3.444-2.903 1.758-1.486 3.31-2.7 1.553-1.216 2.77-1.958 1.213-.81 1.753-.81 2.7 0 4.32.944t2.5 2.497q.88 1.486 1.15 3.444.336 1.89.336 3.917 2.768-3.172 5.4-4.59 2.7-1.417 5.4-1.417 3.645 0 6.345 1.62 2.77 1.55 5.13 5.67l3.51 6.546q1.42 1.416 2.028 2.226.674.81 1.754.81.27 0 1.15-1.014.877-1.012 1.89-2.43 1.08-1.484 2.16-3.172 1.08-1.687 1.82-3.105z"/><path style="-inkscape-font-specification:'Arsenale White'" d="M759.41 125.434q-2.632 4.05-6.614 6.75-3.915 2.7-8.775 2.7-2.83 0-5.732-1.012-3.037-.743-5.467-2.43-1.013-.675-2.093-1.62-1.012-1.013-1.822-2.295-.81-1.35-1.35-2.97-.607-1.688-.674-3.713.27-1.89.54-3.982.2-2.16.74-4.185.475-2.093 1.42-3.983.877-1.89 2.43-3.307 1.55-1.485 3.847-2.295 2.363-.878 5.805-.878 1.826 0 3.446.743 1.62.742 2.836 2.092 1.215 1.35 1.957 3.24.743 1.89.743 4.18 0 .88-.07 2.024-.067 1.147-.405 2.16-.337 1.012-1.08 1.687-.742.676-2.092.676-.472 0-.81-.34-.27-.404-.54-.876-.27-.54-.472-1.282 0-.2.205-.675.202-.54.405-1.148.27-.61.474-1.216.202-.61.202-1.014 0-1.35-.403-2.43-.406-1.147-1.08-1.957t-1.554-1.215q-.88-.474-1.757-.474-.676 0-2.296.608-1.62.606-3.376 2.16-1.687 1.55-3.037 4.184-1.282 2.632-1.282 6.75 0 4.86 2.903 7.02 2.904 2.092 8.237 2.7 4.455 0 7.56-1.688 3.172-1.687 5.332-4.522.81-1.013 1.957-1.013.81 0 1.417.54.674.472.674 1.214 0 .607-.337 1.08z"/><path style="-inkscape-font-specification:'Arsenale White'" d="M790.134 123.072q.405-.135.607-.135.68 0 1.08.675.48.607.48 1.35 0 1.08-1.35 1.822-1.35.675-3.04 1.148-1.62.405-3.172.607-1.485.2-1.823.2-1.01 0-2.294-.206-.135.27-.202.607-.068.27-.203.608-1.754 4.59-4.454 6.683-2.632 2.16-6.277 2.16-1.62 0-3.51-.472-1.824-.403-3.85-1.145-3.51-1.35-4.994-4.05-1.486-2.768-1.486-5.94 0-3.308 1.014-6.008.945-2.7 2.565-4.523 1.62-1.89 3.644-2.903 2.092-1.01 4.252-1.01 1.147 0 2.564.27 1.42.2 2.7.675 1.284.472 2.16 1.08.946.607 1.08 1.35 2.7 1.35 3.916 3.847 1.28 2.5 1.414 5.2.472.067.81.067h.742q.877 0 1.62-.138.742-.134 1.552-.336.875-.27 1.89-.608 1.08-.408 2.563-.88zm-29.835-.54q-.88 2.227-.88 4.32 0 2.362 1.08 3.847 1.15 1.48 2.7 2.43 1.62.872 3.31 1.21 1.75.34 2.97.34 2.29 0 3.91-1.42t2.97-4.86q.134-.405.134-.74-1.216-.338-3.106-.878t-3.713-1.35q-1.82-.877-3.17-2.092-1.285-1.213-1.285-2.833 0-.878.338-1.485.34-.607.81-1.214-.81.403-1.62.54-.74.133-1.55.47-.74.337-1.485 1.147-.742.81-1.417 2.565zm13.02-3.713q-.876-.34-1.754-.34-1.08 0-1.755.47-.606.404-.81.944v.202q0 .606 1.014 1.28 1.01.61 2.36 1.15 1.35.54 2.7.944 1.42.338 2.23.54-.34-1.62-1.285-3.037-.945-1.486-2.7-2.16z"/></g></svg>