<?xml version="1.0" encoding="UTF-8" standalone="no"?>
<svg
   xmlns:dc="http://purl.org/dc/elements/1.1/"
   xmlns:cc="http://creativecommons.org/ns#"
   xmlns:rdf="http://www.w3.org/1999/02/22-rdf-syntax-ns#"
   xmlns:svg="http://www.w3.org/2000/svg"
   xmlns="http://www.w3.org/2000/svg"
   xmlns:sodipodi="http://sodipodi.sourceforge.net/DTD/sodipodi-0.dtd"
   xmlns:inkscape="http://www.inkscape.org/namespaces/inkscape"
   width="1052.3622"
   height="453"
   viewBox="0 0 841.88976 362.39986"
   version="1.1"
   id="svg2"
   inkscape:version="0.91 r13725"
   sodipodi:docname="veintiochocomacinco logo (color blanco).svg"
   inkscape:export-filename="/Users/dreboso/Desktop/veintiochocomacinco logo"
   inkscape:export-xdpi="175.14999"
   inkscape:export-ydpi="175.14999">
  <metadata
     id="metadata12">
    <rdf:RDF>
      <cc:Work
         rdf:about="">
        <dc:format>image/svg+xml</dc:format>
        <dc:type
           rdf:resource="http://purl.org/dc/dcmitype/StillImage" />
        <dc:title></dc:title>
      </cc:Work>
    </rdf:RDF>
  </metadata>
  <defs
     id="defs10" />
  <sodipodi:namedview
     pagecolor="#ffffff"
     bordercolor="#666666"
     borderopacity="1"
     objecttolerance="10"
     gridtolerance="10"
     guidetolerance="10"
     inkscape:pageopacity="0"
     inkscape:pageshadow="2"
     inkscape:window-width="1920"
     inkscape:window-height="1028"
     id="namedview8"
     showgrid="false"
     units="px"
     inkscape:zoom="1.1187065"
     inkscape:cx="451.95522"
     inkscape:cy="280.86865"
     inkscape:window-x="0"
     inkscape:window-y="1"
     inkscape:window-maximized="0"
     inkscape:current-layer="g4212" />
  <g
     id="#ffffffff"
     transform="translate(0,192.39967)" />
  <g
     id="#050505ff"
     transform="matrix(0.30402964,0.95266257,-0.95266257,0.30402964,167.64745,132.91941)">
    <g
       id="g4212">
      <g
         transform="translate(129.5621,41.348008)"
         id="g4323"
         style="stroke:#ffffff;stroke-opacity:1">
        <path
           style="fill:none;fill-rule:evenodd;stroke:#ffffff;stroke-width:7.89120054;stroke-linecap:round;stroke-linejoin:miter;stroke-miterlimit:4;stroke-dasharray:none;stroke-opacity:1"
           d="M 57.38626,60.606805 -46.156385,27.562545"
           id="path4140-1"
           inkscape:connector-curvature="0" />
        <path
           style="fill:none;fill-rule:evenodd;stroke:#ffffff;stroke-width:7.89120054;stroke-linecap:round;stroke-linejoin:miter;stroke-miterlimit:4;stroke-dasharray:none;stroke-opacity:1"
           d="M 62.77717,41.326472 16.126428,26.438505"
           id="path4140-1-8"
           inkscape:connector-curvature="0" />
        <path
           style="fill:none;fill-rule:evenodd;stroke:#ffffff;stroke-width:7.89120054;stroke-linecap:round;stroke-linejoin:miter;stroke-miterlimit:4;stroke-dasharray:none;stroke-opacity:1"
           d="M 68.47721,20.70355 -33.573716,-11.864669"
           id="path4140-1-1"
           inkscape:connector-curvature="0" />
        <path
           style="fill:none;fill-rule:evenodd;stroke:#ffffff;stroke-width:7.89120054;stroke-linecap:round;stroke-linejoin:miter;stroke-miterlimit:4;stroke-dasharray:none;stroke-opacity:1"
           d="M 70.00705,-1.2166148 29.116788,-14.266197"
           id="path4140-1-8-3"
           inkscape:connector-curvature="0" />
        <path
           style="fill:none;fill-rule:evenodd;stroke:#ffffff;stroke-width:7.89120054;stroke-linecap:round;stroke-linejoin:miter;stroke-miterlimit:4;stroke-dasharray:none;stroke-opacity:1"
           d="M 71.4286,-23.171321 -20.593097,-52.538817"
           id="path4140-1-80"
           inkscape:connector-curvature="0" />
        <path
           style="fill:none;fill-rule:evenodd;stroke:#ffffff;stroke-width:7.89120054;stroke-linecap:round;stroke-linejoin:miter;stroke-miterlimit:4;stroke-dasharray:none;stroke-opacity:1"
           d="M 73.53398,-43.500195 41.689869,-53.662809"
           id="path4140-1-8-1"
           inkscape:connector-curvature="0" />
        <path
           style="fill:none;fill-rule:evenodd;stroke:#ffffff;stroke-width:7.89120054;stroke-linecap:round;stroke-linejoin:miter;stroke-miterlimit:4;stroke-dasharray:none;stroke-opacity:1"
           d="M 78.48001,-64.363749 -8.0104253,-91.966019"
           id="path4140-1-1-4"
           inkscape:connector-curvature="0" />
        <path
           style="fill:none;fill-rule:evenodd;stroke:#ffffff;stroke-width:7.89120054;stroke-linecap:round;stroke-linejoin:miter;stroke-miterlimit:4;stroke-dasharray:none;stroke-opacity:1"
           d="M 81.14729,-85.920902 54.680189,-94.367523"
           id="path4140-1-8-3-2"
           inkscape:connector-curvature="0" />
        <path
           style="fill:none;fill-rule:evenodd;stroke:#ffffff;stroke-width:7.89120054;stroke-linecap:round;stroke-linejoin:miter;stroke-miterlimit:4;stroke-dasharray:none;stroke-opacity:1"
           d="m 84.99285,-106.86599 -80.0909834,-25.56"
           id="path4140-1-9"
           inkscape:connector-curvature="0" />
        <path
           style="fill:none;fill-rule:evenodd;stroke:#ffffff;stroke-width:7.89120054;stroke-linecap:round;stroke-linejoin:miter;stroke-miterlimit:4;stroke-dasharray:none;stroke-opacity:1"
           d="m 89.66436,-126.37596 -22.4796,-7.17406"
           id="path4140-1-8-6"
           inkscape:connector-curvature="0" />
        <path
           style="fill:none;fill-rule:evenodd;stroke:#ffffff;stroke-width:7.89120054;stroke-linecap:round;stroke-linejoin:miter;stroke-miterlimit:4;stroke-dasharray:none;stroke-opacity:1"
           d="M 96.18743,-146.73622 17.484518,-171.8532"
           id="path4140-1-1-1"
           inkscape:connector-curvature="0" />
        <path
           style="fill:none;fill-rule:evenodd;stroke:#ffffff;stroke-width:7.89120054;stroke-linecap:round;stroke-linejoin:miter;stroke-miterlimit:4;stroke-dasharray:none;stroke-opacity:1"
           d="m 104.76396,-166.40752 -24.58892,-7.84722"
           id="path4140-1-8-3-5"
           inkscape:connector-curvature="0" />
        <path
           style="fill:none;fill-rule:evenodd;stroke:#ffffff;stroke-width:7.89120054;stroke-linecap:round;stroke-linejoin:miter;stroke-miterlimit:4;stroke-dasharray:none;stroke-opacity:1"
           d="M 110.35123,-187.03277 30.465228,-212.52733"
           id="path4140-1-80-9"
           inkscape:connector-curvature="0" />
        <path
           style="fill:none;fill-rule:evenodd;stroke:#ffffff;stroke-width:7.89120054;stroke-linecap:round;stroke-linejoin:miter;stroke-miterlimit:4;stroke-dasharray:none;stroke-opacity:1"
           d="m 119.55339,-205.09681 -26.80527,-8.55454"
           id="path4140-1-8-1-2"
           inkscape:connector-curvature="0" />
        <path
           style="fill:none;fill-rule:evenodd;stroke:#ffffff;stroke-width:7.89120054;stroke-linecap:round;stroke-linejoin:miter;stroke-miterlimit:4;stroke-dasharray:none;stroke-opacity:1"
           d="M 127.37903,-225.04138 43.047839,-251.95455"
           id="path4140-1-1-4-8"
           inkscape:connector-curvature="0" />
        <path
           style="fill:none;fill-rule:evenodd;stroke:#ffffff;stroke-width:7.89120054;stroke-linecap:round;stroke-linejoin:miter;stroke-miterlimit:4;stroke-dasharray:none;stroke-opacity:1"
           d="m 134.8292,-245.07214 -29.09087,-9.28396"
           id="path4140-1-8-3-2-8"
           inkscape:connector-curvature="0" />
        <path
           style="fill:none;fill-rule:evenodd;stroke:#ffffff;stroke-width:7.89120054;stroke-linecap:round;stroke-linejoin:miter;stroke-miterlimit:4;stroke-dasharray:none;stroke-opacity:1"
           d="M 145.53132,-264.06508 56.02841,-292.62873"
           id="path4140-1-85"
           inkscape:connector-curvature="0" />
        <path
           style="fill:none;fill-rule:evenodd;stroke:#ffffff;stroke-width:7.89120054;stroke-linecap:round;stroke-linejoin:miter;stroke-miterlimit:4;stroke-dasharray:none;stroke-opacity:1"
           d="m 153.08256,-282.65597 -34.7713,-11.0968"
           id="path4140-1-8-0"
           inkscape:connector-curvature="0" />
        <path
           style="fill:none;fill-rule:evenodd;stroke:#ffffff;stroke-width:7.89120054;stroke-linecap:round;stroke-linejoin:miter;stroke-miterlimit:4;stroke-dasharray:none;stroke-opacity:1"
           d="M 161.04536,-302.55677 68.61108,-332.05593"
           id="path4140-1-1-8"
           inkscape:connector-curvature="0" />
        <path
           style="fill:none;fill-rule:evenodd;stroke:#ffffff;stroke-width:7.89120054;stroke-linecap:round;stroke-linejoin:miter;stroke-miterlimit:4;stroke-dasharray:none;stroke-opacity:1"
           d="m 165.60965,-323.50851 -34.30802,-10.94895"
           id="path4140-1-8-3-55"
           inkscape:connector-curvature="0" />
        <path
           style="fill:none;fill-rule:evenodd;stroke:#ffffff;stroke-width:7.89120054;stroke-linecap:round;stroke-linejoin:miter;stroke-miterlimit:4;stroke-dasharray:none;stroke-opacity:1"
           d="M 170.63134,-344.31427 81.59172,-372.73009"
           id="path4140-1-80-5"
           inkscape:connector-curvature="0" />
        <path
           style="fill:none;fill-rule:evenodd;stroke:#ffffff;stroke-width:7.89120054;stroke-linecap:round;stroke-linejoin:miter;stroke-miterlimit:4;stroke-dasharray:none;stroke-opacity:1"
           d="m 171.6566,-364.98786 -27.78196,-8.86624"
           id="path4140-1-8-1-3"
           inkscape:connector-curvature="0" />
        <path
           style="fill:none;fill-rule:evenodd;stroke:#ffffff;stroke-width:7.89120054;stroke-linecap:round;stroke-linejoin:miter;stroke-miterlimit:4;stroke-dasharray:none;stroke-opacity:1"
           d="M 174.69948,-386.45877 94.17441,-412.15729"
           id="path4140-1-1-4-6"
           inkscape:connector-curvature="0" />
        <path
           style="fill:none;fill-rule:evenodd;stroke:#ffffff;stroke-width:7.89120054;stroke-linecap:round;stroke-linejoin:miter;stroke-miterlimit:4;stroke-dasharray:none;stroke-opacity:1"
           d="m 176.85211,-408.18017 -19.98692,-6.37857"
           id="path4140-1-8-3-2-9"
           inkscape:connector-curvature="0" />
        <path
           style="fill:none;fill-rule:evenodd;stroke:#ffffff;stroke-width:7.89120054;stroke-linecap:round;stroke-linejoin:miter;stroke-miterlimit:4;stroke-dasharray:none;stroke-opacity:1"
           d="m 178.5035,-430.06154 -71.34847,-22.76992"
           id="path4140-1-85-9"
           inkscape:connector-curvature="0" />
        <path
           style="fill:none;fill-rule:evenodd;stroke:#ffffff;stroke-width:7.89120054;stroke-linecap:round;stroke-linejoin:miter;stroke-miterlimit:4;stroke-dasharray:none;stroke-opacity:1"
           d="m 177.8775,-451.26209 -8.43928,-2.69329"
           id="path4140-1-8-0-8"
           inkscape:connector-curvature="0" />
        <path
           style="fill:none;fill-rule:evenodd;stroke:#ffffff;stroke-width:7.89120054;stroke-linecap:round;stroke-linejoin:miter;stroke-miterlimit:4;stroke-dasharray:none;stroke-opacity:1"
           d="M 176.01796,-474.29755 119.7377,-492.25866"
           id="path4140-1-1-8-8"
           inkscape:connector-curvature="0" />
        <path
           style="fill:none;fill-rule:evenodd;stroke:#ffffff;stroke-width:7.89120054;stroke-linecap:round;stroke-linejoin:miter;stroke-miterlimit:4;stroke-dasharray:none;stroke-opacity:1"
           d="m 168.63316,-521.47107 -35.91468,-11.4617"
           id="path4140-1-80-5-7"
           inkscape:connector-curvature="0" />
        <path
           style="fill:none;fill-rule:evenodd;stroke:#ffffff;stroke-width:7.89120054;stroke-linecap:round;stroke-linejoin:miter;stroke-miterlimit:4;stroke-dasharray:none;stroke-opacity:1"
           d="m 155.3184,-569.16309 -10.01703,-3.19682"
           id="path4140-1-1-4-6-9"
           inkscape:connector-curvature="0" />
        <path
           style="fill:none;fill-rule:evenodd;stroke:#ffffff;stroke-width:7.89120054;stroke-linecap:round;stroke-linejoin:miter;stroke-miterlimit:4;stroke-dasharray:none;stroke-opacity:1"
           d="M 39.470369,99.551713 -59.192352,68.064898"
           id="path4140-1-3"
           inkscape:connector-curvature="0" />
        <path
           style="fill:none;fill-rule:evenodd;stroke:#ffffff;stroke-width:7.89120054;stroke-linecap:round;stroke-linejoin:miter;stroke-miterlimit:4;stroke-dasharray:none;stroke-opacity:1"
           d="M 50.800949,80.810594 3.5833265,65.741718"
           id="path4140-1-8-7"
           inkscape:connector-curvature="0" />
        <path
           style="fill:none;fill-rule:evenodd;stroke:#ffffff;stroke-width:7.89120054;stroke-linecap:round;stroke-linejoin:miter;stroke-miterlimit:4;stroke-dasharray:none;stroke-opacity:1"
           d="M -5.0160151,128.90712 -72.349753,107.41844"
           id="path4140-1-3-0"
           inkscape:connector-curvature="0" />
        <path
           style="fill:none;fill-rule:evenodd;stroke:#ffffff;stroke-width:7.89120054;stroke-linecap:round;stroke-linejoin:miter;stroke-miterlimit:4;stroke-dasharray:none;stroke-opacity:1"
           d="m 21.014458,116.537 -31.074884,-9.91712"
           id="path4140-1-8-7-8"
           inkscape:connector-curvature="0" />
      </g>
      <path
         sodipodi:nodetypes="cccccccccccsscsccccccccscccc"
         style="opacity:1;fill:#ffffff;fill-opacity:1"
         inkscape:connector-curvature="0"
         id="path6"
         d="m 157.85152,-631.84627 c 11.25085,0.70475 22.4292,1.63666 33.12768,4.07223 15.08387,4.69318 52.0474,19.05309 70.15949,46.40496 35.5061,49.69241 46.08193,111.78547 50.82944,171.34727 2.55447,33.17976 -2.09974,81.10114 -5.03252,98.35888 -6.61995,62.75582 -36.88638,119.06144 -62.04163,175.84588 -27.82866,61.651389 -33.68262,129.9435057 -41.87775,196.23045 -0.61145,30.495848 -7.71862,62.70788 -29.39757,85.37033 -17.09385,21.08895 -44.75322,29.53059 -70.73709,33.245 -11.63562,1.25838 -17.086343,1.09048 -26.170827,0.41874 C 17.334363,171.36349 -37.51772,119.99464 -24.88054,52.89764 c 0,0 1.85965,25.323975 5.02645,37.552165 2.01334,7.774239 6.16899,18.635305 11.1676711,27.729555 5.8326304,10.61148 14.537181,20.29207 14.537181,20.29207 16.8487199,15.29348 37.8214989,27.77204 60.4074299,31.86625 28.725313,5.20712 59.744608,-1.45855 84.769978,-14.72931 10.24351,-6.49879 14.68398,-12.05227 14.68398,-12.05227 0,0 4.28108,-4.71162 6.70921,-7.88994 9.97832,-15.69832 17.32886,-33.35423 19.66365,-51.822949 5.66681,-55.74059 11.47686,-111.719769 24.69118,-166.217121 9.58988,-35.8381 25.00788,-69.81322 41.42922,-102.97672 28.25945,-58.78791 46.57555,-118.0624 44.40555,-183.68443 2.4647,-61.32538 -6.43358,-129.99767 -34.7764,-185.12847 -5.96185,-11.13807 -12.54997,-23.04121 -22.17479,-32.28541 -21.26529,-20.42435 -49.1044,-36.12554 -78.97948,-36.57392 -78.529125,-2.69709 -101.452925,27.49337 -118.066057,77.56025 10.279094,-63.64855 43.627623,-80.73625 91.296527,-85.22522 5.75036,-0.52834 11.12466,-1.28925 17.94076,-1.15844 z" />
      <g
         id="text4166"
         style="font-style:normal;font-variant:normal;font-weight:normal;font-stretch:normal;font-size:111.44055176px;line-height:125%;font-family:'Libian SC';-inkscape-font-specification:'Libian SC';letter-spacing:0px;word-spacing:0px;fill:#ffffff;fill-opacity:1;stroke:none;stroke-width:1px;stroke-linecap:butt;stroke-linejoin:miter;stroke-opacity:1"
         transform="matrix(0.30402964,-0.95266257,0.95266257,0.30402964,8.1077422,0.90796642)">
        <path
           inkscape:connector-curvature="0"
           id="path4188"
           style="font-style:normal;font-variant:normal;font-weight:normal;font-stretch:normal;font-size:135px;font-family:'Arsenale White';-inkscape-font-specification:'Arsenale White';fill:#ffffff;fill-opacity:1"
           d="m -63.084922,-17.510392 q 0,-0.0675 0.675,-1.08 0.6075,-1.08 1.62,-2.295 1.0125,-1.2825 2.295,-2.295 1.2825,-1.08 2.565,-1.08 1.1475,0 2.0925,0.7425 1.0125,0.7425 1.755,1.89 0.7425,1.1475 1.215,2.565 0.54,1.35 0.675,2.7 0,1.9575 -0.3375,3.105 -0.27,1.08 -0.675,2.025 -0.3375,0.8775 -0.675,1.8225005 -0.27,0.945 -0.27,2.6325 0,1.215 0.135,2.565 0.135,1.35 0.6075,2.4975 0.54,1.14749996 1.485,1.88999996 1.0125,0.7425 2.6325,0.7425 2.3625,0 3.7125,-1.215 1.35,-1.21499996 2.0925,-2.96999996 0.81,-1.755 1.215,-3.7125 0.4725,-1.9575 0.945,-3.5100005 -1.8225,-1.4175 -2.7,-3.7125 -0.81,-2.3625 -0.81,-4.9275 0,-1.215 0.135,-2.4975 0.135,-1.35 0.405,-2.43 0.3375,-1.1475 0.7425,-1.89 0.4725,-0.7425 1.08,-0.7425 0.2025,0 0.405,0.0675 0.27,0.0675 0.54,0.135 3.1725,1.35 4.2525,3.8475 1.1475,2.4975 1.1475,5.6025 0,0.8775 -0.0675,1.35 0,0.4725 0,0.7425 l 0,0.4725 q 0.27,0 1.9575,-0.27 1.755,-0.3375 3.8475,-0.81 2.16,-0.54 4.05,-1.08 1.9575,-0.54 2.6325,-1.08 0.3375,-0.135 0.81,-0.2025 0.54,-0.0675 1.1475,-0.0675 0.945,0 1.755,0.27 0.81,0.2025 0.81,0.8775 0,0.54 -0.81,1.4175 -0.7425,0.81 -2.7,2.0925 l -1.0125,0.3375 q -1.755,0.54 -3.375,1.0125 -1.5525,0.405 -3.105,0.81 -1.5525,0.405 -3.1725,0.675 -1.62,0.27 -3.51,0.405 l -0.7425,3.4425005 q -0.6075,2.025 -0.945,3.1725 -0.3375,1.215 -0.7425,2.0925 -0.405,0.94499996 -1.1475,1.82249996 -0.675,0.94500004 -2.025,2.43000004 -1.1475,1.215 -2.7,1.755 -1.485,0.54 -3.3075,0.54 -4.7925,0 -7.4925,-2.9025 -2.6325,-2.90250004 -2.6325,-7.7625 0,-1.755 0.3375,-2.835 0.3375,-1.08 0.7425,-2.0925005 0.405,-1.0125 0.7425,-2.295 0.3375,-1.35 0.3375,-3.645 l -0.2025,-2.9025 q 0,-0.54 -0.0675,-0.945 -0.0675,-0.405 -0.4725,-0.405 -0.0675,0 -0.2025,0.135 -0.135,0.0675 -0.675,0.675 -0.4725,0.6075 -1.485,1.89 -0.945,1.2825 -2.7675,3.7125 -0.8775,0.4725 -1.62,0.4725 -0.8775,0 -1.35,-0.4725 -0.54,-0.54 -0.54,-1.35 0,-0.8775 0.7425,-1.9575 z m 24.2325,-4.995 q 0,0.6075 -0.27,1.485 -0.27,0.81 -0.135,2.0925 l 0.0675,0.8775 q 0.0675,0.81 0.3375,1.485 0.3375,0.675 0.675,1.215 0.2025,-0.6075 0.405,-1.5525 0.27,-0.945 0.27,-2.025 0,-0.945 -0.27,-1.8225 -0.27,-0.945 -1.08,-1.755 z" />
        <path
           inkscape:connector-curvature="0"
           id="path4190"
           style="font-style:normal;font-variant:normal;font-weight:normal;font-stretch:normal;font-size:135px;font-family:'Arsenale White';-inkscape-font-specification:'Arsenale White';fill:#ffffff;fill-opacity:1"
           d="m -13.993437,-33.980392 q -1.5525,0 -2.6325,1.35 -1.0125,1.2825 -1.6875,3.0375 -0.6075,1.6875 -0.8775,3.375 -0.27,1.62 -0.27,2.295 0,2.3625 0.4725,3.8475 0.4725,1.4175 1.35,2.7675 1.1475,-1.08 2.0925,-2.7 1.0125,-1.62 1.755,-3.375 0.7425,-1.755 1.1475,-3.4425 0.4725,-1.755 0.4725,-3.105 l 0,-1.1475 q -1.08,-2.9025 -1.8225,-2.9025 z m 17.0099997,19.3725 q -1.62,2.025 -4.3875,3.78 -2.7675,1.7550005 -6.075,2.4975005 l -2.3625,0 q -1.2149997,0 -2.6324997,-0.2025 -1.4175,-0.27 -2.7675,-0.81 -2.16,-1.4850005 -3.0375,-2.0925005 -0.8775,-0.675 -1.215,-0.8775 -0.27,-0.27 -0.405,-0.4725 -0.0675,-0.2025 -0.7425,-0.8775 -1.755,-1.755 -2.3625,-4.05 -0.675,-2.295 -0.675,-4.9275 0,-2.4975 0.675,-5.1975 0.675,-2.7675 1.9575,-5.0625 1.215,-2.295 2.97,-3.78 1.8225,-1.5525 4.05,-1.5525 0.675,0 1.755,0.6075 1.1475,0.54 2.16,1.6875 1.0799997,1.08 1.8224997,2.7675 0.81,1.6875 0.81,3.915 -0.405,3.645 -2.2275,7.56 -1.8224997,3.915 -4.9274997,8.0325 0.8775,0.405 2.16,0.81 1.2825,0.3375 2.6324997,0.3375 l 2.3625,0 q 2.025,-0.6075 2.97,-1.0125 1.0125,-0.4725 1.62,-1.0125 0.675,-0.54 1.215,-1.2825 0.6075,-0.7425 1.82249995,-2.025 0.6075,-0.81 1.62000005,-0.81 0.81,0 1.485,0.54 0.675,0.4725 0.675,1.4175 0,0.945 -0.945,2.0925 z" />
        <path
           inkscape:connector-curvature="0"
           id="path4192"
           style="font-style:normal;font-variant:normal;font-weight:normal;font-stretch:normal;font-size:135px;font-family:'Arsenale White';-inkscape-font-specification:'Arsenale White';fill:#ffffff;fill-opacity:1"
           d="m 3.7063283,-40.460392 q -0.4725,0 -0.945,-0.0675 -0.4725,-0.135 -0.8775,-0.54 -0.405,-0.4725 -0.6075,-1.35 -0.27,-0.8775 -0.27,-2.4975 0.4725,-2.16 2.025,-3.4425 1.5525,-1.2825 3.4425,-1.2825 0.7425,0.0675 1.1475,0.54 0.4725,0.405 0.7425,1.08 0.27,0.675 0.3375,1.4175 0.0675,0.675 0.0675,1.215 0,0.945 -0.27,1.8225 -0.2025,0.8775 -0.81,1.5525 -0.54,0.675 -1.5525,1.1475 -0.945,0.405 -2.43,0.405 z m -3.84750002,17.55 q -0.27,-1.215 -0.405,-2.16 -0.2025,-0.945 -0.2025,-1.6875 0,-1.2825 0.7425,-1.8225 0.7425,-0.6075 2.83500002,-0.6075 1.08,0 1.6875,1.5525 0.6075,1.485 1.08,3.78 0.4725,2.295 0.945,4.9275 0.4725,2.6325 1.1475,4.9275 0.7425,2.295 1.8225,3.8475 1.0799997,1.4850005 2.9024997,1.4850005 1.62,0 2.7,-0.675 1.1475,-0.6750005 1.89,-1.6875005 0.81,-1.0125 1.35,-2.2275 0.54,-1.215 1.0125,-2.2275 0.54,-1.0125 1.1475,-1.6875 0.6075,-0.675 1.5525,-0.675 0.8775,0.8775 1.0125,1.485 0.135,0.6075 0.135,1.485 -0.405,2.025 -1.35,3.915 -0.8775,1.8225005 -2.2275,3.2400005 -1.35,1.35 -3.1725,2.2275 -1.8225,0.81 -4.05,0.81 -1.8225,0 -3.5774997,-0.4725 -1.6875,-0.54 -3.0375,-1.89 -1.35,-1.62 -2.43,-4.2525005 -1.0125,-2.7 -1.8225,-5.265 -0.94500002,-3.0375 -1.68750002,-6.345 z" />
        <path
           inkscape:connector-curvature="0"
           id="path4194"
           style="font-style:normal;font-variant:normal;font-weight:normal;font-stretch:normal;font-size:135px;font-family:'Arsenale White';-inkscape-font-specification:'Arsenale White';fill:#ffffff;fill-opacity:1"
           d="m 81.943047,-18.860392 q 0.8775,-0.7425 1.2825,-0.7425 0.54,0 0.675,0.675 0.2025,0.6075 0.2025,1.5525 0,3.3075 -1.0125,5.67 -1.0125,2.3625005 -2.3625,3.8475005 -1.2825,1.485 -2.7,2.16 -1.35,0.675 -2.025,0.675 -3.0375,0 -5.0625,-1.215 -1.9575,-1.2825 -3.4425,-3.105 -1.485,-1.8900005 -2.6325,-4.0500005 -1.1475,-2.2275 -2.43,-4.05 -1.215,-1.89 -2.835,-3.105 -1.62,-1.2825 -4.05,-1.2825 -1.8225,0 -2.835,1.215 -1.0125,1.1475 -1.755,2.9025 -0.675,1.6875 -1.215,3.78 -0.4725,2.025 -1.215,3.78 -0.675,1.6875005 -1.8225,2.9025005 -1.1475,1.1475 -3.105,1.1475 -0.945,0 -1.6875,-0.7425 -0.675,-0.81 -0.675,-1.755 l 0.6075,-7.7625005 q 0,-5.4 -1.2825,-7.7625 -1.2825,-2.43 -3.51,-2.43 -0.6075,0 -2.2275,1.4175 -1.62,1.4175 -3.7125,3.375 -2.0925,1.9575 -4.2525,4.05 -2.0925,2.025 -3.7125,3.24 -0.2025,0.135 -0.4725,0.27 -0.54,0.27 -1.08,0.27 -0.54,0 -1.35,-0.6075 -0.81,-0.6075 -0.81,-1.755 0,-0.675 0.405,-1.215 0.2025,-0.27 0.4725,-0.4725 0.8775,-0.6075 2.295,-1.8225 1.485,-1.215 3.1725,-2.6325 1.6875,-1.4175 3.4425,-2.9025 1.755,-1.485 3.3075,-2.7 1.5525,-1.215 2.7675,-1.9575 1.215,-0.81 1.755,-0.81 2.7,0 4.32,0.945 1.62,0.945 2.4975,2.4975 0.8775,1.485 1.1475,3.4425 0.3375,1.89 0.3375,3.915 2.7675,-3.1725 5.4,-4.59 2.7,-1.4175 5.4,-1.4175 3.645,0 6.345,1.62 2.7675,1.5525 5.13,5.67 l 3.51,6.5475 q 1.4175,1.4175 2.025,2.2275005 0.675,0.81 1.755,0.81 0.27,0 1.1475,-1.0125005 0.8775,-1.0125 1.89,-2.43 1.08,-1.485 2.16,-3.1725 1.08,-1.6875 1.8225,-3.105 z" />
        <path
           inkscape:connector-curvature="0"
           id="path4196"
           style="font-style:normal;font-variant:normal;font-weight:normal;font-stretch:normal;font-size:135px;font-family:'Arsenale White';-inkscape-font-specification:'Arsenale White';fill:#ffffff;fill-opacity:1"
           d="m 93.502422,-37.287892 -11.34,0 q 0.135,3.3075 0.4725,6.6825 0.3375,3.375 0.945,6.5475 0.6075,3.105 1.5525,5.8725 1.0125,2.7675 2.43,4.86 1.485,2.0925 3.51,3.3075 2.025,1.1475005 4.725,1.1475005 3.24,0 5.062498,-1.3500005 1.89,-1.4175 3.0375,-3.0375 1.215,-1.6875 1.89,-3.0375 0.7425,-1.4175 1.62,-1.4175 0.8775,0 1.35,1.0125 0.54,0.945 0.54,1.5525 -0.405,2.025 -1.4175,3.8475 -1.0125,1.8225005 -2.565,3.2400005 -1.485,1.4175 -3.4425,2.2275 -1.889998,0.81 -4.117498,0.81 -1.8225,0 -4.185,-0.3375 -2.3625,-0.405 -4.725,-1.35 -2.3625,-0.945 -4.05,-2.97 -1.6875,-2.0925005 -2.9025,-5.6700005 -1.215,-3.645 -2.025,-8.9775 -0.8775,-5.4 -1.62,-13.0275 -1.1475,0 -2.2275,-0.0675 -1.08,-0.135 -1.89,-0.3375 -0.81,-0.27 -1.2825,-0.7425 -0.54,-0.4725 -0.54,-1.215 0.54,-1.35 1.2825,-1.5525 0.675,-0.27 1.1475,-0.27 0.0675,0.0675 0.54,0.0675 0.7425,0 1.35,-0.135 0.6075,-0.135 1.215,-0.135 l -0.675,-7.4925 q -0.27,-1.215 -0.405,-2.16 -0.2025,-0.945 -0.2025,-1.6875 0,-1.2825 0.7425,-1.8225 0.7425,-0.6075 2.835,-0.6075 0.54,0 0.8775,0.945 0.27,0.8775 0.4725,2.4975 0.2025,1.62 0.27,3.8475 0.0675,2.2275 0.2025,4.7925 l 0.0675,1.89 16.335,0 q 0.405,0.405 0.675,0.81 0.27,0.3375 0.4725,0.81 0.2025,0.405 0.2025,0.8775 0,0.7425 -0.8775,1.35 -0.81,0.54 -3.1725,0.54 -0.405,0 -0.945,0 -0.4725,-0.0675 -1.215,-0.135 z" />
        <path
           inkscape:connector-curvature="0"
           id="path4198"
           style="font-style:normal;font-variant:normal;font-weight:normal;font-stretch:normal;font-size:135px;font-family:'Arsenale White';-inkscape-font-specification:'Arsenale White';fill:#ffffff;fill-opacity:1"
           d="m 109.17508,-40.460392 q -0.4725,0 -0.945,-0.0675 -0.4725,-0.135 -0.8775,-0.54 -0.405,-0.4725 -0.6075,-1.35 -0.27,-0.8775 -0.27,-2.4975 0.4725,-2.16 2.025,-3.4425 1.5525,-1.2825 3.4425,-1.2825 0.7425,0.0675 1.1475,0.54 0.4725,0.405 0.7425,1.08 0.27,0.675 0.3375,1.4175 0.0675,0.675 0.0675,1.215 0,0.945 -0.27,1.8225 -0.2025,0.8775 -0.81,1.5525 -0.54,0.675 -1.5525,1.1475 -0.945,0.405 -2.43,0.405 z m -3.8475,17.55 q -0.27,-1.215 -0.405,-2.16 -0.2025,-0.945 -0.2025,-1.6875 0,-1.2825 0.7425,-1.8225 0.7425,-0.6075 2.835,-0.6075 1.08,0 1.6875,1.5525 0.6075,1.485 1.08,3.78 0.4725,2.295 0.945,4.9275 0.4725,2.6325 1.1475,4.9275 0.7425,2.295 1.8225,3.8475 1.08,1.4850005 2.9025,1.4850005 1.62,0 2.7,-0.675 1.1475,-0.6750005 1.89,-1.6875005 0.81,-1.0125 1.35,-2.2275 0.54,-1.215 1.0125,-2.2275 0.54,-1.0125 1.1475,-1.6875 0.6075,-0.675 1.5525,-0.675 0.8775,0.8775 1.0125,1.485 0.135,0.6075 0.135,1.485 -0.405,2.025 -1.35,3.915 -0.8775,1.8225005 -2.2275,3.2400005 -1.35,1.35 -3.1725,2.2275 -1.8225,0.81 -4.05,0.81 -1.8225,0 -3.5775,-0.4725 -1.6875,-0.54 -3.0375,-1.89 -1.35,-1.62 -2.43,-4.2525005 -1.0125,-2.7 -1.8225,-5.265 -0.945,-3.0375 -1.6875,-6.345 z" />
        <path
           inkscape:connector-curvature="0"
           id="path4200"
           style="font-style:normal;font-variant:normal;font-weight:normal;font-stretch:normal;font-size:135px;font-family:'Arsenale White';-inkscape-font-specification:'Arsenale White';fill:#ffffff;fill-opacity:1"
           d="m 159.1968,-17.847892 q 0.405,-0.135 0.6075,-0.135 0.675,0 1.08,0.675 0.4725,0.6075 0.4725,1.35 0,1.08 -1.35,1.8225 -1.35,0.675 -3.0375,1.1475 -1.62,0.405 -3.1725,0.6075 -1.485,0.2025 -1.8225,0.2025 -1.0125,0 -2.295,-0.2025 -0.135,0.27 -0.2025,0.6075 -0.0675,0.27 -0.2025,0.6075 -1.755,4.5900005 -4.455,6.6825005 -2.6325,2.16 -6.2775,2.16 -1.62,0 -3.51,-0.4725 -1.8225,-0.405 -3.8475,-1.1475 -3.51,-1.35 -4.995,-4.05 -1.485,-2.7675005 -1.485,-5.9400005 0,-3.3075 1.0125,-6.0075 0.945,-2.7 2.565,-4.5225 1.62,-1.89 3.645,-2.9025 2.0925,-1.0125 4.2525,-1.0125 1.1475,0 2.565,0.27 1.4175,0.2025 2.7,0.675 1.2825,0.4725 2.16,1.08 0.945,0.6075 1.08,1.35 2.7,1.35 3.915,3.8475 1.2825,2.4975 1.4175,5.1975 0.4725,0.0675 0.81,0.0675 0.405,0 0.7425,0 0.8775,0 1.62,-0.135 0.7425,-0.135 1.5525,-0.3375 0.8775,-0.27 1.89,-0.6075 1.08,-0.405 2.565,-0.8775 z m -29.835,-0.54 q -0.8775,2.2275 -0.8775,4.32 0,2.3625 1.08,3.8475 1.1475,1.4850005 2.7,2.4300005 1.62,0.8775 3.3075,1.215 1.755,0.3375 2.97,0.3375 2.295,0 3.915,-1.4175 1.62,-1.4175 2.97,-4.8600005 0.135,-0.405 0.135,-0.7425 -1.215,-0.3375 -3.105,-0.8775 -1.89,-0.54 -3.7125,-1.35 -1.8225,-0.8775 -3.1725,-2.0925 -1.2825,-1.215 -1.2825,-2.835 0,-0.8775 0.3375,-1.485 0.3375,-0.6075 0.81,-1.215 -0.81,0.405 -1.62,0.54 -0.7425,0.135 -1.5525,0.4725 -0.7425,0.3375 -1.485,1.1475 -0.7425,0.81 -1.4175,2.565 z m 13.0275,-3.7125 q -0.8775,-0.3375 -1.755,-0.3375 -1.08,0 -1.755,0.4725 -0.6075,0.405 -0.81,0.945 l 0,0.2025 q 0,0.6075 1.0125,1.2825 1.0125,0.6075 2.3625,1.1475 1.35,0.54 2.7,0.945 1.4175,0.3375 2.2275,0.54 -0.3375,-1.62 -1.2825,-3.0375 -0.945,-1.485 -2.7,-2.16 z" />
        <path
           inkscape:connector-curvature="0"
           id="path4202"
           style="font-style:normal;font-variant:normal;font-weight:normal;font-stretch:normal;font-size:135px;font-family:'Arsenale White';-inkscape-font-specification:'Arsenale White';fill:#ffffff;fill-opacity:1"
           d="m 188.85461,-15.485392 q -2.6325,4.05 -6.615,6.7500005 -3.915,2.7 -8.775,2.7 -2.835,0 -5.7375,-1.0125 -3.0375,-0.7425 -5.4675,-2.43 -1.0125,-0.6750005 -2.0925,-1.6200005 -1.0125,-1.0125 -1.8225,-2.295 -0.81,-1.35 -1.35,-2.97 -0.6075,-1.6875 -0.675,-3.7125 0.27,-1.89 0.54,-3.9825 0.2025,-2.16 0.7425,-4.185 0.4725,-2.0925 1.4175,-3.9825 0.8775,-1.89 2.43,-3.3075 1.5525,-1.485 3.8475,-2.295 2.3625,-0.8775 5.805,-0.8775 1.8225,0 3.4425,0.7425 1.62,0.7425 2.835,2.0925 1.215,1.35 1.9575,3.24 0.7425,1.89 0.7425,4.185 0,0.8775 -0.0675,2.025 -0.0675,1.1475 -0.405,2.16 -0.3375,1.0125 -1.08,1.6875 -0.7425,0.675 -2.0925,0.675 -0.4725,0 -0.81,-0.3375 -0.27,-0.405 -0.54,-0.8775 -0.27,-0.54 -0.4725,-1.2825 0,-0.2025 0.2025,-0.675 0.2025,-0.54 0.405,-1.1475 0.27,-0.6075 0.4725,-1.215 0.2025,-0.6075 0.2025,-1.0125 0,-1.35 -0.405,-2.43 -0.405,-1.1475 -1.08,-1.9575 -0.675,-0.81 -1.5525,-1.215 -0.8775,-0.4725 -1.755,-0.4725 -0.675,0 -2.295,0.6075 -1.62,0.6075 -3.375,2.16 -1.6875,1.5525 -3.0375,4.185 -1.2825,2.6325 -1.2825,6.75 0,4.86 2.9025,7.02 2.9025,2.0925 8.235,2.7 4.455,0 7.56,-1.6875 3.1725,-1.6875 5.3325,-4.5225 0.81,-1.0125 1.9575,-1.0125 0.81,0 1.4175,0.54 0.675,0.4725 0.675,1.215 0,0.6075 -0.3375,1.08 z" />
        <path
           inkscape:connector-curvature="0"
           id="path4204"
           style="font-style:normal;font-variant:normal;font-weight:normal;font-stretch:normal;font-size:135px;font-family:'Arsenale White';-inkscape-font-specification:'Arsenale White';fill:#ffffff;fill-opacity:1"
           d="m 186.09766,-13.730392 q -0.135,-2.2275 -0.2025,-4.3875 -0.0675,-2.2275 -0.0675,-4.5225 0,-4.5225 0.405,-9.315 0.405,-4.7925 1.485,-10.4625 0.2025,-1.89 0.405,-3.645 0.2025,-1.8225 0.6075,-3.51 0.405,-1.755 1.1475,-3.375 0.81,-1.6875 2.2275,-3.375 1.08,-0.4725 1.8225,-0.4725 0.7425,0 1.35,0.4725 3.24,3.645 4.6575,7.6275 1.4175,3.9825 1.4175,8.1675 0,3.5775 -0.8775,7.0875 -0.81,3.51 -2.295,7.02 -1.485,3.4425 -3.4425,6.885 -1.9575,3.375 -4.185,6.75 0.135,1.9575 0.27,2.9700005 0.135,1.0125 0.2025,1.89 0.135,0.8775 0.2025,2.0925 0.135,1.1475 0.2025,3.5775 1.62,-1.0125 2.6325,-2.7675 1.08,-1.8225 2.025,-3.78 1.0125,-2.0250005 2.2275,-3.8475005 1.215,-1.89 3.24,-3.105 1.4175,-0.7425 2.835,-1.485 1.485,-0.81 2.97,-0.81 1.5525,0 2.43,0.81 0.8775,0.7425 1.35,1.89 0.54,1.08 0.8775,2.3625 0.3375,1.2825 0.8775,2.295 0.4725,0.6075 0.8775,1.3500005 0.4725,0.675 0.945,1.215 0.54,0.54 1.1475,0.945 0.6075,0.3375 1.35,0.3375 2.97,0 5.13,-1.0125 2.2275,-1.0125 3.9825,-2.5650005 1.8225,-1.62 3.51,-3.5775 1.6875,-2.025 3.645,-4.05 0.54,-0.54 1.2825,-0.54 0.945,0 1.6875,0.7425 0.7425,0.7425 0.7425,1.6875 0,0.7425 -0.54,1.2825 -2.0925,2.025 -4.185,4.32 -2.0925,2.2950005 -4.3875,4.2525005 -2.295,1.9575 -4.86,3.24 -2.565,1.2825 -5.6025,1.2825 -1.4175,0 -2.7,-0.6075 -1.2825,-0.6075 -2.3625,-1.62 -1.0125,-0.945 -1.89,-2.16 -0.8775,-1.2825 -1.5525,-2.6325 -0.4725,-0.675 -0.6075,-1.4175005 -0.0675,-0.81 -0.2025,-1.485 -0.0675,-0.675 -0.405,-1.1475 -0.27,-0.4725 -1.1475,-0.4725 -2.0925,0 -3.5775,1.215 -1.485,1.215 -2.6325,3.1050005 -1.1475,1.8225 -2.16,3.9825 -1.0125,2.0925 -2.16,3.915 -1.1475,1.88999996 -2.6325,3.105 -1.4175,1.215 -3.51,1.215 l -0.54,0 q -0.7425,0.2025 -1.1475,0.2025 -1.35,0 -1.35,-2.0925 0,-4.455 -0.135,-8.37 -0.2025,-3.9150005 -0.405,-7.5600005 l -0.405,0.8775 z m 7.695,-37.3275 q -0.675,1.08 -1.08,2.2275 -0.3375,1.08 -0.54,2.295 -0.2025,1.1475 -0.3375,2.4975 -0.135,1.2825 -0.3375,2.835 -0.81,4.725 -1.1475,8.775 -0.3375,4.05 -0.3375,7.8975 0,1.215 0,2.43 0.0675,1.1475 0.135,2.295 3.0375,-5.0625 5.0625,-10.1925 2.025,-5.13 2.025,-10.125 0,-2.9025 -0.81,-5.6025 -0.81,-2.7675 -2.6325,-5.3325 z" />
        <path
           inkscape:connector-curvature="0"
           id="path4206"
           style="font-style:normal;font-variant:normal;font-weight:normal;font-stretch:normal;font-size:135px;font-family:'Arsenale White';-inkscape-font-specification:'Arsenale White';fill:#ffffff;fill-opacity:1"
           d="m 267.03859,-17.847892 q 0.405,-0.135 0.6075,-0.135 0.675,0 1.08,0.675 0.4725,0.6075 0.4725,1.35 0,1.08 -1.35,1.8225 -1.35,0.675 -3.0375,1.1475 -1.62,0.405 -3.1725,0.6075 -1.485,0.2025 -1.8225,0.2025 -1.0125,0 -2.295,-0.2025 -0.135,0.27 -0.2025,0.6075 -0.0675,0.27 -0.2025,0.6075 -1.755,4.5900005 -4.455,6.6825005 -2.6325,2.16 -6.2775,2.16 -1.62,0 -3.51,-0.4725 -1.8225,-0.405 -3.8475,-1.1475 -3.51,-1.35 -4.995,-4.05 -1.485,-2.7675005 -1.485,-5.9400005 0,-3.3075 1.0125,-6.0075 0.945,-2.7 2.565,-4.5225 1.62,-1.89 3.645,-2.9025 2.0925,-1.0125 4.2525,-1.0125 1.1475,0 2.565,0.27 1.4175,0.2025 2.7,0.675 1.2825,0.4725 2.16,1.08 0.945,0.6075 1.08,1.35 2.7,1.35 3.915,3.8475 1.2825,2.4975 1.4175,5.1975 0.4725,0.0675 0.81,0.0675 0.405,0 0.7425,0 0.8775,0 1.62,-0.135 0.7425,-0.135 1.5525,-0.3375 0.8775,-0.27 1.89,-0.6075 1.08,-0.405 2.565,-0.8775 z m -29.835,-0.54 q -0.8775,2.2275 -0.8775,4.32 0,2.3625 1.08,3.8475 1.1475,1.4850005 2.7,2.4300005 1.62,0.8775 3.3075,1.215 1.755,0.3375 2.97,0.3375 2.295,0 3.915,-1.4175 1.62,-1.4175 2.97,-4.8600005 0.135,-0.405 0.135,-0.7425 -1.215,-0.3375 -3.105,-0.8775 -1.89,-0.54 -3.7125,-1.35 -1.8225,-0.8775 -3.1725,-2.0925 -1.2825,-1.215 -1.2825,-2.835 0,-0.8775 0.3375,-1.485 0.3375,-0.6075 0.81,-1.215 -0.81,0.405 -1.62,0.54 -0.7425,0.135 -1.5525,0.4725 -0.7425,0.3375 -1.485,1.1475 -0.7425,0.81 -1.4175,2.565 z m 13.0275,-3.7125 q -0.8775,-0.3375 -1.755,-0.3375 -1.08,0 -1.755,0.4725 -0.6075,0.405 -0.81,0.945 l 0,0.2025 q 0,0.6075 1.0125,1.2825 1.0125,0.6075 2.3625,1.1475 1.35,0.54 2.7,0.945 1.4175,0.3375 2.2275,0.54 -0.3375,-1.62 -1.2825,-3.0375 -0.945,-1.485 -2.7,-2.16 z" />
        <path
           inkscape:connector-curvature="0"
           id="path4208"
           style="font-style:normal;font-variant:normal;font-weight:normal;font-stretch:normal;font-size:135px;font-family:'Arsenale White';-inkscape-font-specification:'Arsenale White';fill:#ffffff;fill-opacity:1"
           d="m 296.69641,-15.485392 q -2.6325,4.05 -6.615,6.7500005 -3.915,2.7 -8.775,2.7 -2.835,0 -5.7375,-1.0125 -3.0375,-0.7425 -5.4675,-2.43 -1.0125,-0.6750005 -2.0925,-1.6200005 -1.0125,-1.0125 -1.8225,-2.295 -0.81,-1.35 -1.35,-2.97 -0.6075,-1.6875 -0.675,-3.7125 0.27,-1.89 0.54,-3.9825 0.2025,-2.16 0.7425,-4.185 0.4725,-2.0925 1.4175,-3.9825 0.8775,-1.89 2.43,-3.3075 1.5525,-1.485 3.8475,-2.295 2.3625,-0.8775 5.805,-0.8775 1.8225,0 3.4425,0.7425 1.62,0.7425 2.835,2.0925 1.215,1.35 1.9575,3.24 0.7425,1.89 0.7425,4.185 0,0.8775 -0.0675,2.025 -0.0675,1.1475 -0.405,2.16 -0.3375,1.0125 -1.08,1.6875 -0.7425,0.675 -2.0925,0.675 -0.4725,0 -0.81,-0.3375 -0.27,-0.405 -0.54,-0.8775 -0.27,-0.54 -0.4725,-1.2825 0,-0.2025 0.2025,-0.675 0.2025,-0.54 0.405,-1.1475 0.27,-0.6075 0.4725,-1.215 0.2025,-0.6075 0.2025,-1.0125 0,-1.35 -0.405,-2.43 -0.405,-1.1475 -1.08,-1.9575 -0.675,-0.81 -1.5525,-1.215 -0.8775,-0.4725 -1.755,-0.4725 -0.675,0 -2.295,0.6075 -1.62,0.6075 -3.375,2.16 -1.6875,1.5525 -3.0375,4.185 -1.2825,2.6325 -1.2825,6.75 0,4.86 2.9025,7.02 2.9025,2.0925 8.235,2.7 4.455,0 7.56,-1.6875 3.1725,-1.6875 5.3325,-4.5225 0.81,-1.0125 1.9575,-1.0125 0.81,0 1.4175,0.54 0.675,0.4725 0.675,1.215 0,0.6075 -0.3375,1.08 z" />
        <path
           inkscape:connector-curvature="0"
           id="path4210"
           style="font-style:normal;font-variant:normal;font-weight:normal;font-stretch:normal;font-size:135px;font-family:'Arsenale White';-inkscape-font-specification:'Arsenale White';fill:#ffffff;fill-opacity:1"
           d="m 327.41945,-17.847892 q 0.405,-0.135 0.6075,-0.135 0.675,0 1.08,0.675 0.4725,0.6075 0.4725,1.35 0,1.08 -1.35,1.8225 -1.35,0.675 -3.0375,1.1475 -1.62,0.405 -3.1725,0.6075 -1.485,0.2025 -1.8225,0.2025 -1.0125,0 -2.295,-0.2025 -0.135,0.27 -0.2025,0.6075 -0.0675,0.27 -0.2025,0.6075 -1.755,4.5900005 -4.455,6.6825005 -2.6325,2.16 -6.2775,2.16 -1.62,0 -3.51,-0.4725 -1.8225,-0.405 -3.8475,-1.1475 -3.51,-1.35 -4.995,-4.05 -1.485,-2.7675005 -1.485,-5.9400005 0,-3.3075 1.0125,-6.0075 0.945,-2.7 2.565,-4.5225 1.62,-1.89 3.645,-2.9025 2.0925,-1.0125 4.2525,-1.0125 1.1475,0 2.565,0.27 1.4175,0.2025 2.7,0.675 1.2825,0.4725 2.16,1.08 0.945,0.6075 1.08,1.35 2.7,1.35 3.915,3.8475 1.2825,2.4975 1.4175,5.1975 0.4725,0.0675 0.81,0.0675 0.405,0 0.7425,0 0.8775,0 1.62,-0.135 0.7425,-0.135 1.5525,-0.3375 0.8775,-0.27 1.89,-0.6075 1.08,-0.405 2.565,-0.8775 z m -29.835,-0.54 q -0.8775,2.2275 -0.8775,4.32 0,2.3625 1.08,3.8475 1.1475,1.4850005 2.7,2.4300005 1.62,0.8775 3.3075,1.215 1.755,0.3375 2.97,0.3375 2.295,0 3.915,-1.4175 1.62,-1.4175 2.97,-4.8600005 0.135,-0.405 0.135,-0.7425 -1.215,-0.3375 -3.105,-0.8775 -1.89,-0.54 -3.7125,-1.35 -1.8225,-0.8775 -3.1725,-2.0925 -1.2825,-1.215 -1.2825,-2.835 0,-0.8775 0.3375,-1.485 0.3375,-0.6075 0.81,-1.215 -0.81,0.405 -1.62,0.54 -0.7425,0.135 -1.5525,0.4725 -0.7425,0.3375 -1.485,1.1475 -0.7425,0.81 -1.4175,2.565 z m 13.0275,-3.7125 q -0.8775,-0.3375 -1.755,-0.3375 -1.08,0 -1.755,0.4725 -0.6075,0.405 -0.81,0.945 l 0,0.2025 q 0,0.6075 1.0125,1.2825 1.0125,0.6075 2.3625,1.1475 1.35,0.54 2.7,0.945 1.4175,0.3375 2.2275,0.54 -0.3375,-1.62 -1.2825,-3.0375 -0.945,-1.485 -2.7,-2.16 z" />
        <path
           inkscape:connector-curvature="0"
           id="path4212"
           style="font-style:normal;font-variant:normal;font-weight:normal;font-stretch:normal;font-size:135px;font-family:'Arsenale White';-inkscape-font-specification:'Arsenale White';fill:#ffffff;fill-opacity:1"
           d="m 417.48977,-14.877892 q -1.215,0.4725 -2.6325,0.8775 -1.4175,0.405 -2.7,0.405 -2.6325,0 -5.6025,-1.4175 -2.97,-1.4175 -5.7375,-4.59 l -7.7625,-8.37 q -2.7,-3.24 -4.5225,-4.59 -1.755,-1.35 -2.7,-1.35 -2.0925,1.9575 -3.7125,5.13 -1.5525,3.105 -2.7675,6.6825 -1.215,3.5775 -2.0925,7.29 -0.81,3.645 -1.5525,6.6150005 -0.675,2.97 -1.2825,4.7925 -0.6075,1.89 -1.215,1.89 -0.405,0 -1.215,-1.89 -0.7425,-1.8225 -1.755,-4.6575 -1.0125,-2.9025005 -2.295,-6.3450005 -1.215,-3.51 -2.6325,-6.75 -1.35,-3.3075 -2.9025,-5.94 -1.485,-2.7 -2.97,-3.8475 -0.27,0.4725 -1.485,2.565 -1.215,2.0925 -2.9025,4.995 -1.62,2.835 -3.5775,6.075 -1.9575,3.1725 -3.8475,5.8725 -1.8225,2.7000005 -3.3075,4.5225005 -1.485,1.755 -2.2275,1.755 -1.35,0 -1.62,-0.81 -0.2025,-0.8775 -0.2025,-2.16 0.81,-4.1175005 1.485,-7.6950005 0.27,-1.485 0.54,-3.0375 0.27,-1.62 0.4725,-2.97 0.27,-1.4175 0.405,-2.565 0.135,-1.1475 0.135,-1.8225 0,-1.5525 -0.135,-2.565 -0.135,-1.08 -0.54,-1.8225 -0.3375,-0.7425 -0.945,-1.215 -0.54,-0.4725 -1.4175,-0.945 l -7.7625,12.015 q -0.27,0.405 -0.675,1.4175 -0.405,0.945 -0.81,1.9575 -0.405,0.945 -0.8775,1.755 -0.405,0.7425 -0.7425,0.7425 -0.0675,0 -0.135,-0.0675 -1.0125,1.0125 -1.8225,1.0125 -0.675,0 -1.08,-0.4725 -0.4725,-0.54 -0.7425,-1.1475 -0.27,-0.7425 -0.4725,-1.62 0.0675,-0.135 0.675,-1.0125 0.54,-0.945 1.215,-2.025 0.675,-1.08 1.215,-1.9575 0.6075,-0.8775 0.675,-0.945 l 8.9775,-13.1625 q 0,-0.54 0.675,-0.6075 0.675,-0.0675 1.1475,-0.0675 4.5225,0.945 6.4125,3.8475 1.9575,2.835 1.9575,6.885 0,1.35 -0.3375,3.5775 -0.3375,2.16 -0.8775,4.2525 2.835,-4.455 4.6575,-7.83 1.89,-3.375 3.1725,-5.6025 1.35,-2.2275 2.2275,-3.3075 0.945,-1.1475 1.9575,-1.1475 2.025,0 4.05,2.025 2.0925,1.9575 3.915,5.0625 1.89,3.0375 3.375,6.75 1.485,3.645 2.43,7.02 l 2.3625,-7.155 q 1.5525,-4.725 2.6325,-7.56 1.1475,-2.9025 2.16,-4.5225 1.08,-1.62 2.16,-2.295 1.1475,-0.7425 2.7,-1.1475 2.0925,0.4725 3.4425,1.0125 1.4175,0.54 2.565,1.35 1.1475,0.7425 2.2275,1.89 1.08,1.1475 2.4975,2.835 1.4175,1.62 3.4425,3.8475 2.025,2.2275 4.995,5.1975 2.2275,1.755 4.1175,2.97 1.9575,1.215 4.185,1.215 1.8225,0 3.645,-1.2825 1.0125,0.27 1.755,0.54 0.675,0.27 1.215,0.675 0.54,0.405 0.54,0.945 0,0.4725 -0.405,0.945 -0.405,0.4725 -1.4175,1.08 z" />
        <path
           inkscape:connector-curvature="0"
           id="path4214"
           style="font-style:normal;font-variant:normal;font-weight:normal;font-stretch:normal;font-size:135px;font-family:'Arsenale White';-inkscape-font-specification:'Arsenale White';fill:#ffffff;fill-opacity:1"
           d="m 453.56219,-14.607892 q 0,0.6075 -0.7425,1.8225 -0.7425,1.215 -1.8225,2.43 -1.08,1.2150005 -2.2275,2.0925005 -1.1475,0.8775 -1.9575,0.8775 -2.0925,0 -3.7125,-1.215 -1.62,-1.2825 -2.9025,-3.1050005 -1.215,-1.89 -2.16,-4.05 -0.945,-2.2275 -1.6875,-4.05 -0.675,-1.89 -1.215,-3.105 -0.4725,-1.2825 -0.945,-1.2825 l 0.6075,4.7925 q 0,5.94 -1.89,9.045 -1.8225,3.1050005 -5.8725,3.5775005 -2.295,0 -4.9275,-1.6875 -2.6325,-1.6875005 -5.265,-4.9275005 -1.2825,-1.215 -2.0925,-2.43 -0.81,-1.215 -1.2825,-2.565 -0.4725,-1.35 -0.6075,-2.9025 -0.2025,-1.5525 -0.2025,-3.4425 0,-2.9025 1.2825,-5.265 1.215,-2.3625 2.97,-4.05 1.8225,-1.6875 3.78,-2.6325 1.9575,-1.0125 3.3075,-1.215 l 0.4725,0 q 0.54,0 1.5525,0.2025 1.08,0.135 2.43,0.81 1.4175,0.675 3.105,2.025 1.6875,1.35 3.4425,3.645 1.755,2.295 3.5775,5.805 1.8225,3.4425 3.4425,8.37 0.945,2.7675 1.89,4.1175 0.945,1.35 2.2275,1.35 0.4725,0 1.1475,-0.81 0.7425,-0.8775 1.4175,-1.9575 0.7425,-1.08 1.35,-2.0925 0.6075,-1.08 0.945,-1.485 0.675,-0.6075 1.485,-0.6075 0.8775,0 1.35,0.675 0.54,0.675 0.54,1.5525 0,0.4725 -0.2025,0.945 -0.135,0.405 -0.6075,0.7425 z m -24.0975,1.8225 q 0.54,-1.8225 0.81,-3.24 0.3375,-1.4175 0.3375,-3.375 0,-2.6325 -0.27,-5.1975 -0.27,-2.6325 -1.62,-4.86 -0.4725,-0.8775 -1.1475,-1.62 -0.54,-0.6075 -1.35,-1.08 -0.81,-0.54 -1.8225,-0.6075 -1.5525,0.2025 -2.97,1.08 -1.35,0.81 -2.3625,2.025 -1.0125,1.215 -1.62,2.7 -0.6075,1.4175 -0.6075,2.7675 0,2.97 1.35,5.4 1.35,2.43 3.0375,4.185 1.755,1.6875 3.4425,2.7 1.6875,0.945 2.3625,0.945 0.8775,0 1.35,-0.405 0.54,-0.4725 1.08,-1.4175 z" />
        <path
           inkscape:connector-curvature="0"
           id="path4216"
           style="font-style:normal;font-variant:normal;font-weight:normal;font-stretch:normal;font-size:135px;font-family:'Arsenale White';-inkscape-font-specification:'Arsenale White';fill:#ffffff;fill-opacity:1"
           d="m 481.79406,-15.485392 q -2.6325,4.05 -6.615,6.7500005 -3.915,2.7 -8.775,2.7 -2.835,0 -5.7375,-1.0125 -3.0375,-0.7425 -5.4675,-2.43 -1.0125,-0.6750005 -2.0925,-1.6200005 -1.0125,-1.0125 -1.8225,-2.295 -0.81,-1.35 -1.35,-2.97 -0.6075,-1.6875 -0.675,-3.7125 0.27,-1.89 0.54,-3.9825 0.2025,-2.16 0.7425,-4.185 0.4725,-2.0925 1.4175,-3.9825 0.8775,-1.89 2.43,-3.3075 1.5525,-1.485 3.8475,-2.295 2.3625,-0.8775 5.805,-0.8775 1.8225,0 3.4425,0.7425 1.62,0.7425 2.835,2.0925 1.215,1.35 1.9575,3.24 0.7425,1.89 0.7425,4.185 0,0.8775 -0.0675,2.025 -0.0675,1.1475 -0.405,2.16 -0.3375,1.0125 -1.08,1.6875 -0.7425,0.675 -2.0925,0.675 -0.4725,0 -0.81,-0.3375 -0.27,-0.405 -0.54,-0.8775 -0.27,-0.54 -0.4725,-1.2825 0,-0.2025 0.2025,-0.675 0.2025,-0.54 0.405,-1.1475 0.27,-0.6075 0.4725,-1.215 0.2025,-0.6075 0.2025,-1.0125 0,-1.35 -0.405,-2.43 -0.405,-1.1475 -1.08,-1.9575 -0.675,-0.81 -1.5525,-1.215 -0.8775,-0.4725 -1.755,-0.4725 -0.675,0 -2.295,0.6075 -1.62,0.6075 -3.375,2.16 -1.6875,1.5525 -3.0375,4.185 -1.2825,2.6325 -1.2825,6.75 0,4.86 2.9025,7.02 2.9025,2.0925 8.235,2.7 4.455,0 7.56,-1.6875 3.1725,-1.6875 5.3325,-4.5225 0.81,-1.0125 1.9575,-1.0125 0.81,0 1.4175,0.54 0.675,0.4725 0.675,1.215 0,0.6075 -0.3375,1.08 z" />
        <path
           inkscape:connector-curvature="0"
           id="path4218"
           style="font-style:normal;font-variant:normal;font-weight:normal;font-stretch:normal;font-size:135px;font-family:'Arsenale White';-inkscape-font-specification:'Arsenale White';fill:#ffffff;fill-opacity:1"
           d="m 482.00711,-40.460392 q -0.4725,0 -0.945,-0.0675 -0.4725,-0.135 -0.8775,-0.54 -0.405,-0.4725 -0.6075,-1.35 -0.27,-0.8775 -0.27,-2.4975 0.4725,-2.16 2.025,-3.4425 1.5525,-1.2825 3.4425,-1.2825 0.7425,0.0675 1.1475,0.54 0.4725,0.405 0.7425,1.08 0.27,0.675 0.3375,1.4175 0.0675,0.675 0.0675,1.215 0,0.945 -0.27,1.8225 -0.2025,0.8775 -0.81,1.5525 -0.54,0.675 -1.5525,1.1475 -0.945,0.405 -2.43,0.405 z m -3.8475,17.55 q -0.27,-1.215 -0.405,-2.16 -0.2025,-0.945 -0.2025,-1.6875 0,-1.2825 0.7425,-1.8225 0.7425,-0.6075 2.835,-0.6075 1.08,0 1.6875,1.5525 0.6075,1.485 1.08,3.78 0.4725,2.295 0.945,4.9275 0.4725,2.6325 1.1475,4.9275 0.7425,2.295 1.8225,3.8475 1.08,1.4850005 2.9025,1.4850005 1.62,0 2.7,-0.675 1.1475,-0.6750005 1.89,-1.6875005 0.81,-1.0125 1.35,-2.2275 0.54,-1.215 1.0125,-2.2275 0.54,-1.0125 1.1475,-1.6875 0.6075,-0.675 1.5525,-0.675 0.8775,0.8775 1.0125,1.485 0.135,0.6075 0.135,1.485 -0.405,2.025 -1.35,3.915 -0.8775,1.8225005 -2.2275,3.2400005 -1.35,1.35 -3.1725,2.2275 -1.8225,0.81 -4.05,0.81 -1.8225,0 -3.5775,-0.4725 -1.6875,-0.54 -3.0375,-1.89 -1.35,-1.62 -2.43,-4.2525005 -1.0125,-2.7 -1.8225,-5.265 -0.945,-3.0375 -1.6875,-6.345 z" />
        <path
           inkscape:connector-curvature="0"
           id="path4220"
           style="font-style:normal;font-variant:normal;font-weight:normal;font-stretch:normal;font-size:135px;font-family:'Arsenale White';-inkscape-font-specification:'Arsenale White';fill:#ffffff;fill-opacity:1"
           d="m 560.24383,-18.860392 q 0.8775,-0.7425 1.2825,-0.7425 0.54,0 0.675,0.675 0.2025,0.6075 0.2025,1.5525 0,3.3075 -1.0125,5.67 -1.0125,2.3625005 -2.3625,3.8475005 -1.2825,1.485 -2.7,2.16 -1.35,0.675 -2.025,0.675 -3.0375,0 -5.0625,-1.215 -1.9575,-1.2825 -3.4425,-3.105 -1.485,-1.8900005 -2.6325,-4.0500005 -1.1475,-2.2275 -2.43,-4.05 -1.215,-1.89 -2.835,-3.105 -1.62,-1.2825 -4.05,-1.2825 -1.8225,0 -2.835,1.215 -1.0125,1.1475 -1.755,2.9025 -0.675,1.6875 -1.215,3.78 -0.4725,2.025 -1.215,3.78 -0.675,1.6875005 -1.8225,2.9025005 -1.1475,1.1475 -3.105,1.1475 -0.945,0 -1.6875,-0.7425 -0.675,-0.81 -0.675,-1.755 l 0.6075,-7.7625005 q 0,-5.4 -1.2825,-7.7625 -1.2825,-2.43 -3.51,-2.43 -0.6075,0 -2.2275,1.4175 -1.62,1.4175 -3.7125,3.375 -2.0925,1.9575 -4.2525,4.05 -2.0925,2.025 -3.7125,3.24 -0.2025,0.135 -0.4725,0.27 -0.54,0.27 -1.08,0.27 -0.54,0 -1.35,-0.6075 -0.81,-0.6075 -0.81,-1.755 0,-0.675 0.405,-1.215 0.2025,-0.27 0.4725,-0.4725 0.8775,-0.6075 2.295,-1.8225 1.485,-1.215 3.1725,-2.6325 1.6875,-1.4175 3.4425,-2.9025 1.755,-1.485 3.3075,-2.7 1.5525,-1.215 2.7675,-1.9575 1.215,-0.81 1.755,-0.81 2.7,0 4.32,0.945 1.62,0.945 2.4975,2.4975 0.8775,1.485 1.1475,3.4425 0.3375,1.89 0.3375,3.915 2.7675,-3.1725 5.4,-4.59 2.7,-1.4175 5.4,-1.4175 3.645,0 6.345,1.62 2.7675,1.5525 5.13,5.67 l 3.51,6.5475 q 1.4175,1.4175 2.025,2.2275005 0.675,0.81 1.755,0.81 0.27,0 1.1475,-1.0125005 0.8775,-1.0125 1.89,-2.43 1.08,-1.485 2.16,-3.1725 1.08,-1.6875 1.8225,-3.105 z" />
        <path
           inkscape:connector-curvature="0"
           id="path4222"
           style="font-style:normal;font-variant:normal;font-weight:normal;font-stretch:normal;font-size:135px;font-family:'Arsenale White';-inkscape-font-specification:'Arsenale White';fill:#ffffff;fill-opacity:1"
           d="m 590.1632,-15.485392 q -2.6325,4.05 -6.615,6.7500005 -3.915,2.7 -8.775,2.7 -2.835,0 -5.7375,-1.0125 -3.0375,-0.7425 -5.4675,-2.43 -1.0125,-0.6750005 -2.0925,-1.6200005 -1.0125,-1.0125 -1.8225,-2.295 -0.81,-1.35 -1.35,-2.97 -0.6075,-1.6875 -0.675,-3.7125 0.27,-1.89 0.54,-3.9825 0.2025,-2.16 0.7425,-4.185 0.4725,-2.0925 1.4175,-3.9825 0.8775,-1.89 2.43,-3.3075 1.5525,-1.485 3.8475,-2.295 2.3625,-0.8775 5.805,-0.8775 1.8225,0 3.4425,0.7425 1.62,0.7425 2.835,2.0925 1.215,1.35 1.9575,3.24 0.7425,1.89 0.7425,4.185 0,0.8775 -0.0675,2.025 -0.0675,1.1475 -0.405,2.16 -0.3375,1.0125 -1.08,1.6875 -0.7425,0.675 -2.0925,0.675 -0.4725,0 -0.81,-0.3375 -0.27,-0.405 -0.54,-0.8775 -0.27,-0.54 -0.4725,-1.2825 0,-0.2025 0.2025,-0.675 0.2025,-0.54 0.405,-1.1475 0.27,-0.6075 0.4725,-1.215 0.2025,-0.6075 0.2025,-1.0125 0,-1.35 -0.405,-2.43 -0.405,-1.1475 -1.08,-1.9575 -0.675,-0.81 -1.5525,-1.215 -0.8775,-0.4725 -1.755,-0.4725 -0.675,0 -2.295,0.6075 -1.62,0.6075 -3.375,2.16 -1.6875,1.5525 -3.0375,4.185 -1.2825,2.6325 -1.2825,6.75 0,4.86 2.9025,7.02 2.9025,2.0925 8.235,2.7 4.455,0 7.56,-1.6875 3.1725,-1.6875 5.3325,-4.5225 0.81,-1.0125 1.9575,-1.0125 0.81,0 1.4175,0.54 0.675,0.4725 0.675,1.215 0,0.6075 -0.3375,1.08 z" />
        <path
           inkscape:connector-curvature="0"
           id="path4224"
           style="font-style:normal;font-variant:normal;font-weight:normal;font-stretch:normal;font-size:135px;font-family:'Arsenale White';-inkscape-font-specification:'Arsenale White';fill:#ffffff;fill-opacity:1"
           d="m 620.88625,-17.847892 q 0.405,-0.135 0.6075,-0.135 0.675,0 1.08,0.675 0.4725,0.6075 0.4725,1.35 0,1.08 -1.35,1.8225 -1.35,0.675 -3.0375,1.1475 -1.62,0.405 -3.1725,0.6075 -1.485,0.2025 -1.8225,0.2025 -1.0125,0 -2.295,-0.2025 -0.135,0.27 -0.2025,0.6075 -0.0675,0.27 -0.2025,0.6075 -1.755,4.5900005 -4.455,6.6825005 -2.6325,2.16 -6.2775,2.16 -1.62,0 -3.51,-0.4725 -1.8225,-0.405 -3.8475,-1.1475 -3.51,-1.35 -4.995,-4.05 -1.485,-2.7675005 -1.485,-5.9400005 0,-3.3075 1.0125,-6.0075 0.945,-2.7 2.565,-4.5225 1.62,-1.89 3.645,-2.9025 2.0925,-1.0125 4.2525,-1.0125 1.1475,0 2.565,0.27 1.4175,0.2025 2.7,0.675 1.2825,0.4725 2.16,1.08 0.945,0.6075 1.08,1.35 2.7,1.35 3.915,3.8475 1.2825,2.4975 1.4175,5.1975 0.4725,0.0675 0.81,0.0675 0.405,0 0.7425,0 0.8775,0 1.62,-0.135 0.7425,-0.135 1.5525,-0.3375 0.8775,-0.27 1.89,-0.6075 1.08,-0.405 2.565,-0.8775 z m -29.835,-0.54 q -0.8775,2.2275 -0.8775,4.32 0,2.3625 1.08,3.8475 1.1475,1.4850005 2.7,2.4300005 1.62,0.8775 3.3075,1.215 1.755,0.3375 2.97,0.3375 2.295,0 3.915,-1.4175 1.62,-1.4175 2.97,-4.8600005 0.135,-0.405 0.135,-0.7425 -1.215,-0.3375 -3.105,-0.8775 -1.89,-0.54 -3.7125,-1.35 -1.8225,-0.8775 -3.1725,-2.0925 -1.2825,-1.215 -1.2825,-2.835 0,-0.8775 0.3375,-1.485 0.3375,-0.6075 0.81,-1.215 -0.81,0.405 -1.62,0.54 -0.7425,0.135 -1.5525,0.4725 -0.7425,0.3375 -1.485,1.1475 -0.7425,0.81 -1.4175,2.565 z m 13.0275,-3.7125 q -0.8775,-0.3375 -1.755,-0.3375 -1.08,0 -1.755,0.4725 -0.6075,0.405 -0.81,0.945 l 0,0.2025 q 0,0.6075 1.0125,1.2825 1.0125,0.6075 2.3625,1.1475 1.35,0.54 2.7,0.945 1.4175,0.3375 2.2275,0.54 -0.3375,-1.62 -1.2825,-3.0375 -0.945,-1.485 -2.7,-2.16 z" />
      </g>
    </g>
    <g
       transform="matrix(0.30402964,-0.95266257,0.95266257,0.30402964,0,0)"
       style="font-style:normal;font-variant:normal;font-weight:normal;font-stretch:normal;font-size:52.27441406px;line-height:125%;font-family:'Libian SC';-inkscape-font-specification:'Libian SC';letter-spacing:0px;word-spacing:0px;fill:#550400;fill-opacity:1;stroke:none;stroke-width:1px;stroke-linecap:butt;stroke-linejoin:miter;stroke-opacity:1"
       id="text3444" />
  </g>
</svg>
