<svg xmlns="http://www.w3.org/2000/svg" width="1.5cm" height="1.5cm" viewBox="0 0 42.51968 42.519681"><path d="M41.143 35.11c0 3.288-2.706 5.952-6.043 5.952H7.42c-3.338 0-6.044-2.664-6.044-5.95V7.85c0-3.286 2.706-5.95 6.043-5.95H35.1c3.337 0 6.043 2.664 6.043 5.95v27.26z"/><path d="M36.36 14.09c0-.644-.256-1.227-.662-1.672-.007-.008-.008-.02-.015-.028-.007-.007-.017-.01-.024-.018a2.536 2.536 0 0 0-1.84-.79H8.7a2.54 2.54 0 0 0-1.84.79c-.005.007-.015.01-.022.02-.007.007-.01.018-.016.027a2.474 2.474 0 0 0-.66 1.67v14.78c0 .66.265 1.26.69 1.703.007.01.01.02.02.03.002.003.006.003.01.007a2.54 2.54 0 0 0 1.818.766h25.12a2.54 2.54 0 0 0 1.82-.767c.004 0 .007-.004.01-.007.01-.008.012-.02.02-.03a2.47 2.47 0 0 0 .69-1.706V14.09zm-9.885 6.61l8.703-7.216c.085.186.135.39.135.607v14.787c0 .196-.04.382-.11.553l-8.728-8.73zm7.346-8.083c.22 0 .43.05.62.134L21.26 23.68 8.084 12.75c.188-.083.395-.133.614-.133H33.82zM7.32 29.425a1.45 1.45 0 0 1-.11-.553v-14.78c0-.217.05-.422.135-.608l8.703 7.217-8.728 8.73zm1.38.92a1.49 1.49 0 0 1-.667-.163l8.82-8.815 4.075 3.378a.525.525 0 0 0 .672 0l4.075-3.378 8.82 8.815a1.49 1.49 0 0 1-.67.164H8.7z" stroke-width=".8" fill="#fff" stroke="#fff"/></svg>