<svg xmlns="http://www.w3.org/2000/svg" width="1.5cm" height="1.5cm" viewBox="0 0 42.51968 42.519681"><path d="M41.143 34.89c0 3.286-2.706 5.95-6.043 5.95H7.42c-3.338 0-6.044-2.664-6.044-5.95V7.63c0-3.286 2.706-5.95 6.043-5.95H35.1c3.337 0 6.043 2.664 6.043 5.95v27.26z"/><path d="M33.866 14.092c-.934.41-1.94.685-2.992.808a5.157 5.157 0 0 0 2.29-2.838 10.512 10.512 0 0 1-3.306 1.246 5.242 5.242 0 0 0-3.804-1.62c-2.877 0-5.21 2.297-5.21 5.13 0 .402.046.793.135 1.168a14.86 14.86 0 0 1-10.74-5.36 5.06 5.06 0 0 0-.71 2.58c0 1.78.92 3.35 2.317 4.27a5.238 5.238 0 0 1-2.36-.643v.065c0 2.486 1.797 4.56 4.18 5.03a5.282 5.282 0 0 1-2.353.088c.662 2.04 2.585 3.522 4.865 3.564a10.553 10.553 0 0 1-6.47 2.196c-.42 0-.835-.024-1.243-.07a14.925 14.925 0 0 0 7.99 2.303c9.58 0 14.82-7.82 14.82-14.6 0-.22-.005-.446-.013-.667a10.532 10.532 0 0 0 2.598-2.656" fill="#fff"/></svg>